Crimson-BoldItalic.ufo
<glyph name="exclam" format="1">
  <advance width="257"/>
  <unicode hex="0021"/>
  <outline>
    <contour>
      <point x="23" y="60" type="curve" smooth="yes"/>
      <point x="30" y="97"/>
      <point x="64" y="127"/>
      <point x="99" y="127" type="curve" smooth="yes"/>
      <point x="133" y="127"/>
      <point x="156" y="97"/>
      <point x="149" y="60" type="curve" smooth="yes"/>
      <point x="142" y="23"/>
      <point x="109" y="-11"/>
      <point x="74" y="-11" type="curve" smooth="yes"/>
      <point x="38" y="-11"/>
      <point x="16" y="23"/>
    </contour>
    <contour>
      <point x="205" y="642" type="curve" smooth="yes"/>
      <point x="234" y="642"/>
      <point x="258" y="617"/>
      <point x="250" y="574" type="curve" smooth="yes"/>
      <point x="245" y="546"/>
      <point x="171" y="309"/>
      <point x="142" y="221" type="curve" smooth="yes"/>
      <point x="135" y="201"/>
      <point x="119" y="190"/>
      <point x="105" y="190" type="curve" smooth="yes"/>
      <point x="100" y="190"/>
      <point x="99" y="200"/>
      <point x="99" y="212" type="curve" smooth="yes"/>
      <point x="102" y="279"/>
      <point x="121" y="524"/>
      <point x="131" y="575" type="curve" smooth="yes"/>
      <point x="139" y="617"/>
      <point x="172" y="642"/>
    </contour>
  </outline>
</glyph>
<glyph name="quotedbl" format="1">
  <advance width="334"/>
  <unicode hex="0022"/>
  <outline>
    <contour>
      <point x="332" y="698" type="curve" smooth="yes"/>
      <point x="360" y="698"/>
      <point x="371" y="692"/>
      <point x="360" y="633" type="curve" smooth="yes"/>
      <point x="349" y="577"/>
      <point x="314" y="516"/>
      <point x="295" y="449" type="curve" smooth="yes"/>
      <point x="292" y="439"/>
      <point x="281" y="434"/>
      <point x="274" y="434" type="curve" smooth="yes"/>
      <point x="267" y="434"/>
      <point x="258" y="439"/>
      <point x="259" y="447" type="curve" smooth="yes"/>
      <point x="268" y="537"/>
      <point x="259" y="590"/>
      <point x="259" y="636" type="curve"/>
      <point x="262" y="654"/>
      <point x="295" y="698"/>
    </contour>
    <contour>
      <point x="178" y="698" type="curve" smooth="yes"/>
      <point x="206" y="698"/>
      <point x="217" y="692"/>
      <point x="206" y="633" type="curve" smooth="yes"/>
      <point x="195" y="577"/>
      <point x="160" y="516"/>
      <point x="141" y="449" type="curve" smooth="yes"/>
      <point x="138" y="439"/>
      <point x="127" y="434"/>
      <point x="120" y="434" type="curve" smooth="yes"/>
      <point x="113" y="434"/>
      <point x="104" y="439"/>
      <point x="105" y="447" type="curve" smooth="yes"/>
      <point x="114" y="537"/>
      <point x="105" y="590"/>
      <point x="105" y="636" type="curve"/>
      <point x="108" y="654"/>
      <point x="141" y="698"/>
    </contour>
  </outline>
</glyph>
<glyph name="numbersign" format="1">
  <advance width="487"/>
  <unicode hex="0023"/>
  <outline>
    <contour>
      <point x="380" y="378" type="curve"/>
      <point x="380" y="378"/>
      <point x="422" y="378"/>
      <point x="451" y="378" type="curve" smooth="yes"/>
      <point x="456" y="378"/>
      <point x="458" y="377"/>
      <point x="458" y="373" type="curve" smooth="yes"/>
      <point x="458" y="357"/>
      <point x="444" y="311"/>
      <point x="433" y="311" type="curve" smooth="yes"/>
      <point x="361" y="311" type="line"/>
      <point x="332" y="237" type="line"/>
      <point x="403" y="237" type="line" smooth="yes"/>
      <point x="408" y="237"/>
      <point x="410" y="235"/>
      <point x="410" y="231" type="curve" smooth="yes"/>
      <point x="410" y="215"/>
      <point x="396" y="170"/>
      <point x="385" y="170" type="curve" smooth="yes"/>
      <point x="313" y="170" type="line"/>
      <point x="262" y="24" type="line" smooth="yes"/>
      <point x="261" y="21"/>
      <point x="252" y="16"/>
      <point x="224" y="16" type="curve" smooth="yes"/>
      <point x="213" y="16"/>
      <point x="197" y="18"/>
      <point x="197" y="21" type="curve" smooth="yes"/>
      <point x="197" y="21"/>
      <point x="198" y="23"/>
      <point x="198" y="24" type="curve" smooth="yes"/>
      <point x="199" y="28"/>
      <point x="250" y="170"/>
      <point x="250" y="170" type="curve"/>
      <point x="173" y="170" type="line"/>
      <point x="122" y="24" type="line" smooth="yes"/>
      <point x="121" y="21"/>
      <point x="112" y="16"/>
      <point x="84" y="16" type="curve" smooth="yes"/>
      <point x="73" y="16"/>
      <point x="57" y="18"/>
      <point x="57" y="21" type="curve" smooth="yes"/>
      <point x="57" y="21"/>
      <point x="58" y="23"/>
      <point x="58" y="24" type="curve" smooth="yes"/>
      <point x="59" y="28"/>
      <point x="110" y="170"/>
      <point x="110" y="170" type="curve"/>
      <point x="39" y="170" type="line" smooth="yes"/>
      <point x="34" y="170"/>
      <point x="32" y="172"/>
      <point x="32" y="176" type="curve" smooth="yes"/>
      <point x="32" y="192"/>
      <point x="46" y="237"/>
      <point x="57" y="237" type="curve" smooth="yes"/>
      <point x="129" y="237" type="line"/>
      <point x="158" y="311" type="line"/>
      <point x="87" y="311" type="line" smooth="yes"/>
      <point x="82" y="311"/>
      <point x="80" y="313"/>
      <point x="80" y="317" type="curve" smooth="yes"/>
      <point x="80" y="333"/>
      <point x="94" y="378"/>
      <point x="105" y="378" type="curve" smooth="yes"/>
      <point x="177" y="378" type="line"/>
      <point x="228" y="524" type="line" smooth="yes"/>
      <point x="229" y="527"/>
      <point x="243" y="532"/>
      <point x="271" y="532" type="curve" smooth="yes"/>
      <point x="282" y="532"/>
      <point x="293" y="529"/>
      <point x="293" y="526" type="curve" smooth="yes"/>
      <point x="293" y="526"/>
      <point x="292" y="525"/>
      <point x="292" y="524" type="curve" smooth="yes"/>
      <point x="291" y="520"/>
      <point x="240" y="378"/>
      <point x="240" y="378" type="curve"/>
      <point x="317" y="378" type="line"/>
      <point x="368" y="524" type="line" smooth="yes"/>
      <point x="369" y="527"/>
      <point x="383" y="532"/>
      <point x="411" y="532" type="curve" smooth="yes"/>
      <point x="422" y="532"/>
      <point x="433" y="529"/>
      <point x="433" y="526" type="curve" smooth="yes"/>
      <point x="433" y="526"/>
      <point x="432" y="525"/>
      <point x="432" y="524" type="curve" smooth="yes"/>
      <point x="431" y="520"/>
      <point x="380" y="378"/>
    </contour>
    <contour>
      <point x="298" y="311" type="line"/>
      <point x="221" y="311" type="line"/>
      <point x="192" y="237" type="line"/>
      <point x="269" y="237" type="line"/>
    </contour>
  </outline>
</glyph>
<glyph name="dollar" format="1">
  <advance width="492"/>
  <unicode hex="0024"/>
  <outline>
    <contour>
      <point x="325" y="643" type="curve" smooth="yes"/>
      <point x="328.738" y="643"/>
      <point x="332.411" y="642.925"/>
      <point x="336.028" y="642.782" type="curve" smooth="yes"/>
      <point x="323.496" y="602.96" type="line" smooth="yes"/>
      <point x="322.67" y="602.987"/>
      <point x="321.838" y="603"/>
      <point x="321" y="603" type="curve" smooth="yes"/>
      <point x="286" y="603"/>
      <point x="241" y="583"/>
      <point x="229" y="519" type="curve" smooth="yes"/>
      <point x="222.093" y="484.466"/>
      <point x="240.695" y="451.588"/>
      <point x="266.691" y="422.464" type="curve"/>
      <point x="216.198" y="262.022" type="line"/>
      <point x="208.465" y="268.597"/>
      <point x="201.212" y="274.606"/>
      <point x="195" y="280" type="curve" smooth="yes"/>
      <point x="139" y="327"/>
      <point x="83" y="369"/>
      <point x="102" y="469" type="curve" smooth="yes"/>
      <point x="121" y="568"/>
      <point x="233" y="643"/>
    </contour>
    <contour>
      <point x="149" y="-65" type="line"/>
      <point x="140" y="-65"/>
      <point x="115" y="-57"/>
      <point x="118" y="-50" type="curve" smooth="yes"/>
      <point x="131.958" y="-5.64985" type="line"/>
      <point x="143.631" y="-7.17155"/>
      <point x="155.247" y="-8.35373"/>
      <point x="166.645" y="-9.09912" type="curve"/>
    </contour>
    <contour>
      <point x="244.269" y="236.821" type="curve"/>
      <point x="294.18" y="394.945" type="line"/>
      <point x="305.959" y="384.177"/>
      <point x="317.975" y="374.148"/>
      <point x="329" y="365" type="curve" smooth="yes"/>
      <point x="380" y="323"/>
      <point x="444" y="282"/>
      <point x="422" y="168" type="curve" smooth="yes"/>
      <point x="402" y="62"/>
      <point x="291" y="-10"/>
      <point x="193" y="-10" type="curve" smooth="yes"/>
      <point x="184.4" y="-10"/>
      <point x="175.589" y="-9.68404"/>
      <point x="166.645" y="-9.09912" type="curve"/>
      <point x="179.261" y="30.8697" type="line"/>
      <point x="183.377" y="30.2979"/>
      <point x="187.623" y="30"/>
      <point x="192" y="30" type="curve" smooth="yes"/>
      <point x="237" y="30"/>
      <point x="284" y="55"/>
      <point x="297" y="123" type="curve" smooth="yes"/>
      <point x="305.4" y="166.94"/>
      <point x="276.221" y="205.87"/>
    </contour>
    <contour>
      <point x="244.269" y="236.821" type="curve"/>
      <point x="179.261" y="30.8697" type="line"/>
      <point x="167.426" y="32.514"/>
      <point x="156.668" y="36.4233"/>
      <point x="146.962" y="42.0271" type="curve"/>
      <point x="216.198" y="262.022" type="line"/>
      <point x="225.202" y="254.364"/>
      <point x="234.856" y="245.939"/>
    </contour>
    <contour>
      <point x="294.18" y="394.945" type="line"/>
      <point x="284.646" y="403.659"/>
      <point x="275.266" y="412.857"/>
      <point x="266.691" y="422.464" type="curve"/>
      <point x="323.496" y="602.96" type="line"/>
      <point x="336.035" y="602.555"/>
      <point x="347.116" y="599.106"/>
      <point x="356.826" y="593.415" type="curve"/>
    </contour>
    <contour>
      <point x="356.826" y="593.415" type="curve"/>
      <point x="371.282" y="639.213" type="line"/>
      <point x="403.95" y="633.989"/>
      <point x="434.118" y="624.28"/>
      <point x="470" y="616" type="curve"/>
      <point x="464" y="565"/>
      <point x="458" y="516"/>
      <point x="449" y="457" type="curve" smooth="yes"/>
      <point x="445" y="453"/>
      <point x="442" y="451"/>
      <point x="438" y="451" type="curve" smooth="yes"/>
      <point x="435" y="451"/>
      <point x="413" y="450"/>
      <point x="413" y="458" type="curve" smooth="yes"/>
      <point x="415.41" y="501.38"/>
      <point x="399.105" y="568.639"/>
    </contour>
    <contour>
      <point x="371.282" y="639.213" type="line"/>
      <point x="359.946" y="641.025"/>
      <point x="348.309" y="642.297"/>
      <point x="336.028" y="642.782" type="curve"/>
      <point x="349" y="684" type="line"/>
      <point x="357" y="685"/>
      <point x="384" y="677"/>
      <point x="381" y="670" type="curve" smooth="yes"/>
    </contour>
    <contour>
      <point x="146.962" y="42.0271" type="curve"/>
      <point x="131.958" y="-5.64985" type="line"/>
      <point x="96.3383" y="-1.00668"/>
      <point x="60.1786" y="6.79761"/>
      <point x="28" y="15" type="curve"/>
      <point x="27" y="57"/>
      <point x="34" y="151"/>
      <point x="38" y="178" type="curve"/>
      <point x="43" y="184"/>
      <point x="62" y="192"/>
      <point x="67" y="192" type="curve" smooth="yes"/>
      <point x="74" y="192"/>
      <point x="77" y="190"/>
      <point x="77" y="184" type="curve" smooth="yes"/>
      <point x="75.4189" y="142.891"/>
      <point x="97.5868" y="70.5338"/>
    </contour>
  </outline>
</glyph>
<glyph name="percent" format="1">
  <advance width="700"/>
  <unicode hex="0025"/>
  <outline>
    <contour>
      <point x="529" y="271" type="curve" smooth="yes"/>
      <point x="475" y="271"/>
      <point x="447" y="159"/>
      <point x="452" y="86" type="curve" smooth="yes"/>
      <point x="453" y="70"/>
      <point x="460" y="29"/>
      <point x="483" y="29" type="curve" smooth="yes"/>
      <point x="537" y="29"/>
      <point x="564" y="142"/>
      <point x="559" y="210" type="curve" smooth="yes"/>
      <point x="557" y="232"/>
      <point x="549" y="271"/>
    </contour>
    <contour>
      <point x="535" y="300" type="curve" smooth="yes"/>
      <point x="595" y="300"/>
      <point x="644" y="279"/>
      <point x="650" y="200" type="curve" smooth="yes"/>
      <point x="657" y="105"/>
      <point x="560" y="-1"/>
      <point x="473" y="-1" type="curve" smooth="yes"/>
      <point x="413" y="-1"/>
      <point x="365" y="33"/>
      <point x="361" y="97" type="curve" smooth="yes"/>
      <point x="354" y="192"/>
      <point x="448" y="300"/>
    </contour>
    <contour>
      <point x="239" y="613" type="curve" smooth="yes"/>
      <point x="185" y="613"/>
      <point x="157" y="501"/>
      <point x="162" y="428" type="curve" smooth="yes"/>
      <point x="163" y="412"/>
      <point x="170" y="371"/>
      <point x="193" y="371" type="curve" smooth="yes"/>
      <point x="247" y="371"/>
      <point x="274" y="484"/>
      <point x="269" y="552" type="curve" smooth="yes"/>
      <point x="267" y="574"/>
      <point x="259" y="613"/>
    </contour>
    <contour>
      <point x="245" y="642" type="curve" smooth="yes"/>
      <point x="305" y="642"/>
      <point x="354" y="621"/>
      <point x="360" y="542" type="curve" smooth="yes"/>
      <point x="367" y="447"/>
      <point x="270" y="341"/>
      <point x="183" y="341" type="curve" smooth="yes"/>
      <point x="123" y="341"/>
      <point x="75" y="375"/>
      <point x="71" y="439" type="curve" smooth="yes"/>
      <point x="64" y="534"/>
      <point x="158" y="642"/>
    </contour>
    <contour>
      <point x="590" y="618" type="curve" smooth="yes"/>
      <point x="144" y="-14" type="line"/>
      <point x="144" y="-14"/>
      <point x="110" y="-6"/>
      <point x="110" y="5" type="curve" smooth="yes"/>
      <point x="110" y="7"/>
      <point x="111" y="9"/>
      <point x="112" y="11" type="curve" smooth="yes"/>
      <point x="559" y="643" type="line"/>
      <point x="559" y="643"/>
      <point x="591" y="634"/>
      <point x="591" y="623" type="curve" smooth="yes"/>
      <point x="591" y="621"/>
      <point x="591" y="619"/>
    </contour>
  </outline>
</glyph>
<glyph name="ampersand" format="1">
  <advance width="809"/>
  <unicode hex="0026"/>
  <outline>
    <contour>
      <point x="448" y="536" type="curve" smooth="yes"/>
      <point x="495" y="536"/>
      <point x="539" y="503"/>
      <point x="539" y="456" type="curve" smooth="yes"/>
      <point x="539" y="328.769"/>
      <point x="361.6" y="271.819"/>
      <point x="250.014" y="245.039" type="curve"/>
      <point x="251.147" y="125.664"/>
      <point x="320.851" y="45"/>
      <point x="424" y="45" type="curve" smooth="yes"/>
      <point x="517" y="45"/>
      <point x="613" y="99"/>
      <point x="613" y="192" type="curve" smooth="yes"/>
      <point x="613" y="209"/>
      <point x="607" y="228"/>
      <point x="601" y="234" type="curve"/>
      <point x="547" y="214"/>
      <point x="483" y="193"/>
      <point x="483" y="149" type="curve" smooth="yes"/>
      <point x="483" y="134"/>
      <point x="484" y="131"/>
      <point x="485" y="121" type="curve"/>
      <point x="481" y="119"/>
      <point x="468" y="125"/>
      <point x="461" y="131" type="curve" smooth="yes"/>
      <point x="458" y="136"/>
      <point x="447" y="149"/>
      <point x="447" y="176" type="curve" smooth="yes"/>
      <point x="447" y="251"/>
      <point x="489" y="266"/>
      <point x="576" y="318" type="curve" smooth="yes"/>
      <point x="644" y="359"/>
      <point x="728" y="417"/>
      <point x="728" y="546" type="curve"/>
      <point x="737" y="547"/>
      <point x="747" y="543"/>
      <point x="753" y="540" type="curve" smooth="yes"/>
      <point x="777" y="522"/>
      <point x="804" y="478"/>
      <point x="804" y="431" type="curve" smooth="yes"/>
      <point x="804" y="346"/>
      <point x="738" y="294"/>
      <point x="668" y="260" type="curve"/>
      <point x="672" y="251"/>
      <point x="676" y="237"/>
      <point x="676" y="222" type="curve" smooth="yes"/>
      <point x="676" y="86"/>
      <point x="534" y="-5"/>
      <point x="393" y="-5" type="curve" smooth="yes"/>
      <point x="264.285" y="-5"/>
      <point x="121.631" y="69.6692"/>
      <point x="121.002" y="213.047" type="curve"/>
      <point x="78.9419" y="199.858"/>
      <point x="52" y="185.402"/>
      <point x="52" y="155" type="curve" smooth="yes"/>
      <point x="52" y="138"/>
      <point x="60" y="130"/>
      <point x="73" y="118" type="curve" smooth="yes"/>
      <point x="86" y="106"/>
      <point x="93" y="95"/>
      <point x="93" y="79" type="curve" smooth="yes"/>
      <point x="93" y="46"/>
      <point x="69" y="25"/>
      <point x="39" y="25" type="curve" smooth="yes"/>
      <point x="26" y="25"/>
      <point x="17" y="27"/>
      <point x="7" y="30" type="curve"/>
      <point x="-5" y="50"/>
      <point x="-10" y="80"/>
      <point x="-10" y="98" type="curve" smooth="yes"/>
      <point x="-10" y="170"/>
      <point x="36" y="225"/>
      <point x="116" y="252" type="curve" smooth="yes"/>
      <point x="118.684" y="252.906"/>
      <point x="121.515" y="253.808"/>
      <point x="124.48" y="254.71" type="curve" smooth="yes"/>
      <point x="147.77" y="393.441"/>
      <point x="285.038" y="536"/>
    </contour>
    <contour>
      <point x="251.9" y="290.921" type="curve"/>
      <point x="323.439" y="316.186"/>
      <point x="391" y="356.973"/>
      <point x="391" y="437" type="curve" smooth="yes"/>
      <point x="391" y="466"/>
      <point x="373" y="483"/>
      <point x="354" y="483" type="curve" smooth="yes"/>
      <point x="295.802" y="483"/>
      <point x="260.239" y="386.423"/>
    </contour>
  </outline>
</glyph>
<glyph name="parenleft" format="1">
  <advance width="277"/>
  <unicode hex="0028"/>
  <outline>
    <contour>
      <point x="323" y="748" type="curve"/>
      <point x="329" y="746"/>
      <point x="333" y="739"/>
      <point x="332" y="735" type="curve"/>
      <point x="257" y="664"/>
      <point x="88" y="418"/>
      <point x="110" y="164" type="curve" smooth="yes"/>
      <point x="122" y="23"/>
      <point x="159" y="-54"/>
      <point x="219" y="-109" type="curve"/>
      <point x="219" y="-112"/>
      <point x="219" y="-119"/>
      <point x="213" y="-121" type="curve"/>
      <point x="143" y="-99"/>
      <point x="54" y="4"/>
      <point x="39" y="177" type="curve" smooth="yes"/>
      <point x="13" y="474"/>
      <point x="226" y="676"/>
    </contour>
  </outline>
</glyph>
<glyph name="hyphen" format="1">
  <advance width="365"/>
  <unicode hex="002D"/>
  <outline>
    <contour>
      <point x="72" y="267" type="curve" smooth="yes"/>
      <point x="299" y="279" type="line" smooth="yes"/>
      <point x="304" y="279"/>
      <point x="305" y="272"/>
      <point x="305" y="267" type="curve" smooth="yes"/>
      <point x="305" y="254"/>
      <point x="289" y="205"/>
      <point x="279" y="204" type="curve" smooth="yes"/>
      <point x="53" y="193" type="line" smooth="yes"/>
      <point x="50" y="193"/>
      <point x="48" y="200"/>
      <point x="48" y="208" type="curve" smooth="yes"/>
      <point x="48" y="219"/>
      <point x="61" y="266"/>
    </contour>
  </outline>
</glyph>
<glyph name="period" format="1">
  <advance width="217"/>
  <unicode hex="002E"/>
  <outline>
    <contour>
      <point x="7" y="60" type="curve" smooth="yes"/>
      <point x="14" y="97"/>
      <point x="48" y="127"/>
      <point x="83" y="127" type="curve" smooth="yes"/>
      <point x="117" y="127"/>
      <point x="140" y="97"/>
      <point x="133" y="60" type="curve" smooth="yes"/>
      <point x="126" y="23"/>
      <point x="93" y="-11"/>
      <point x="58" y="-11" type="curve" smooth="yes"/>
      <point x="22" y="-11"/>
      <point x="0" y="23"/>
    </contour>
  </outline>
</glyph>
<glyph name="slash" format="1">
  <advance width="404"/>
  <unicode hex="002F"/>
  <outline>
    <contour>
      <point x="466" y="755" type="curve"/>
      <point x="42" y="-12" type="line" smooth="yes"/>
      <point x="39" y="-17"/>
      <point x="11" y="-34"/>
      <point x="-12" y="-34" type="curve" smooth="yes"/>
      <point x="-16" y="-34"/>
      <point x="-23" y="-30"/>
      <point x="-24" y="-28" type="curve"/>
      <point x="401" y="739" type="line" smooth="yes"/>
      <point x="406" y="747"/>
      <point x="436" y="761"/>
      <point x="454" y="761" type="curve" smooth="yes"/>
      <point x="460" y="761"/>
      <point x="464" y="758"/>
    </contour>
  </outline>
</glyph>
<glyph name="one" format="1">
  <advance width="481"/>
  <unicode hex="0031"/>
  <outline>
    <contour>
      <point x="205.631" y="479" type="curve"/>
      <point x="198.631" y="483"/>
      <point x="195.631" y="495"/>
      <point x="195.631" y="502" type="curve" smooth="yes"/>
      <point x="195.631" y="504"/>
      <point x="196.631" y="507"/>
      <point x="199.631" y="510" type="curve"/>
      <point x="301.631" y="565"/>
      <point x="380.631" y="609"/>
      <point x="431.631" y="642" type="curve"/>
      <point x="433.631" y="642" type="line" smooth="yes"/>
      <point x="438.631" y="642"/>
      <point x="443.631" y="619"/>
      <point x="441.631" y="606" type="curve"/>
      <point x="441.631" y="606"/>
      <point x="413.631" y="550"/>
      <point x="392.631" y="439" type="curve" smooth="yes"/>
      <point x="336.631" y="135" type="line" smooth="yes"/>
      <point x="330.631" y="102"/>
      <point x="325.631" y="73"/>
      <point x="326.631" y="46" type="curve" smooth="yes"/>
      <point x="327.631" y="35"/>
      <point x="377.631" y="26"/>
      <point x="384.631" y="26" type="curve" smooth="yes"/>
      <point x="387.631" y="26"/>
      <point x="385.631" y="15"/>
      <point x="384.631" y="8" type="curve" smooth="yes"/>
      <point x="383.631" y="3"/>
      <point x="382.631" y="-1"/>
      <point x="381.631" y="-3" type="curve"/>
      <point x="344.631" y="-1"/>
      <point x="260.631" y="2"/>
      <point x="223.631" y="2" type="curve" smooth="yes"/>
      <point x="186.631" y="2"/>
      <point x="158.631" y="-1"/>
      <point x="120.631" y="-3" type="curve"/>
      <point x="116.631" y="2"/>
      <point x="121.631" y="26"/>
      <point x="126.631" y="26" type="curve" smooth="yes"/>
      <point x="137.631" y="26"/>
      <point x="185.631" y="35"/>
      <point x="190.631" y="46" type="curve" smooth="yes"/>
      <point x="199.631" y="66"/>
      <point x="203.631" y="84"/>
      <point x="206.631" y="103" type="curve" smooth="yes"/>
      <point x="267.631" y="415" type="line" smooth="yes"/>
      <point x="279.631" y="475"/>
      <point x="285.631" y="506"/>
      <point x="266.631" y="506" type="curve" smooth="yes"/>
      <point x="259.631" y="506"/>
      <point x="223.631" y="488"/>
    </contour>
  </outline>
</glyph>
<glyph name="five" format="1">
  <advance width="481"/>
  <unicode hex="0035"/>
  <outline>
    <contour>
      <point x="477.159" y="247" type="curve" smooth="yes"/>
      <point x="477.159" y="93"/>
      <point x="318.159" y="-5"/>
      <point x="205.159" y="-5" type="curve" smooth="yes"/>
      <point x="138.159" y="-5"/>
      <point x="93.1592" y="13"/>
      <point x="70.1592" y="29" type="curve"/>
      <point x="66.1592" y="34"/>
      <point x="61.1592" y="48"/>
      <point x="61.1592" y="59" type="curve" smooth="yes"/>
      <point x="61.1592" y="113"/>
      <point x="98.1592" y="126"/>
      <point x="120.159" y="126" type="curve" smooth="yes"/>
      <point x="156.159" y="126"/>
      <point x="163.159" y="97"/>
      <point x="172.159" y="78" type="curve" smooth="yes"/>
      <point x="184.159" y="54"/>
      <point x="210.159" y="33"/>
      <point x="235.159" y="33" type="curve" smooth="yes"/>
      <point x="292.159" y="33"/>
      <point x="349.159" y="103"/>
      <point x="349.159" y="216" type="curve" smooth="yes"/>
      <point x="349.159" y="290"/>
      <point x="312.159" y="331"/>
      <point x="243.159" y="331" type="curve" smooth="yes"/>
      <point x="223.159" y="331"/>
      <point x="187.159" y="325"/>
      <point x="168.159" y="319" type="curve"/>
      <point x="165.159" y="321"/>
      <point x="160.159" y="328"/>
      <point x="156.159" y="333" type="curve"/>
      <point x="190.159" y="468"/>
      <point x="216.159" y="591"/>
      <point x="225.159" y="635" type="curve"/>
      <point x="316.159" y="635"/>
      <point x="428.159" y="635"/>
      <point x="478.159" y="646" type="curve"/>
      <point x="484.159" y="642"/>
      <point x="488.159" y="634"/>
      <point x="488.159" y="631" type="curve"/>
      <point x="488.159" y="612"/>
      <point x="451.159" y="554"/>
      <point x="441.159" y="540" type="curve"/>
      <point x="396.159" y="530"/>
      <point x="262.159" y="530"/>
      <point x="245.159" y="530" type="curve"/>
      <point x="242.159" y="518"/>
      <point x="226.159" y="438"/>
      <point x="216.159" y="392" type="curve"/>
      <point x="244.159" y="410"/>
      <point x="298.159" y="416"/>
      <point x="309.159" y="416" type="curve" smooth="yes"/>
      <point x="386.159" y="416"/>
      <point x="477.159" y="358"/>
    </contour>
  </outline>
</glyph>
<glyph name="six" format="1">
  <advance width="481"/>
  <unicode hex="0036"/>
  <outline>
    <contour>
      <point x="362.489" y="374" type="curve" smooth="yes"/>
      <point x="439.489" y="374"/>
      <point x="484.489" y="316"/>
      <point x="484.489" y="228" type="curve" smooth="yes"/>
      <point x="484.489" y="98"/>
      <point x="373.489" y="-6"/>
      <point x="246.489" y="-6" type="curve" smooth="yes"/>
      <point x="166.489" y="-6"/>
      <point x="77.4893" y="64"/>
      <point x="77.4893" y="178" type="curve" smooth="yes"/>
      <point x="77.4893" y="270"/>
      <point x="116.489" y="372"/>
      <point x="204.489" y="467" type="curve" smooth="yes"/>
      <point x="271.489" y="540"/>
      <point x="387.489" y="624"/>
      <point x="515.489" y="642" type="curve"/>
      <point x="521.489" y="638"/>
      <point x="521.489" y="624"/>
      <point x="520.489" y="618" type="curve"/>
      <point x="397.489" y="566"/>
      <point x="316.489" y="490"/>
      <point x="263.489" y="376" type="curve" smooth="yes"/>
      <point x="222.489" y="287"/>
      <point x="207.489" y="202"/>
      <point x="207.489" y="133" type="curve" smooth="yes"/>
      <point x="207.489" y="64"/>
      <point x="228.489" y="29"/>
      <point x="254.489" y="29" type="curve" smooth="yes"/>
      <point x="310.489" y="29"/>
      <point x="353.489" y="151"/>
      <point x="353.489" y="228" type="curve" smooth="yes"/>
      <point x="353.489" y="277"/>
      <point x="342.489" y="322"/>
      <point x="301.489" y="322" type="curve" smooth="yes"/>
      <point x="292.489" y="322"/>
      <point x="284.489" y="322"/>
      <point x="278.489" y="319" type="curve"/>
      <point x="275.489" y="321"/>
      <point x="273.489" y="326"/>
      <point x="273.489" y="334" type="curve" smooth="yes"/>
      <point x="273.489" y="346"/>
      <point x="325.489" y="374"/>
    </contour>
  </outline>
</glyph>
<glyph name="seven" format="1">
  <advance width="481"/>
  <unicode hex="0037"/>
  <outline>
    <contour>
      <point x="111.993" y="13" type="curve"/>
      <point x="162.993" y="73"/>
      <point x="338.993" y="334"/>
      <point x="460.993" y="526" type="curve"/>
      <point x="245.993" y="526" type="line" smooth="yes"/>
      <point x="199.993" y="526"/>
      <point x="174.993" y="480"/>
      <point x="155.993" y="442" type="curve" smooth="yes"/>
      <point x="153.993" y="439"/>
      <point x="152.993" y="437"/>
      <point x="143.993" y="436" type="curve" smooth="yes"/>
      <point x="134.993" y="435"/>
      <point x="125.993" y="440"/>
      <point x="122.993" y="444" type="curve"/>
      <point x="144.993" y="493"/>
      <point x="196.993" y="605"/>
      <point x="209.993" y="636" type="curve"/>
      <point x="224.993" y="636"/>
      <point x="477.993" y="637"/>
      <point x="477.993" y="637" type="curve" smooth="yes"/>
      <point x="510.993" y="637"/>
      <point x="555.993" y="641"/>
      <point x="561.993" y="641" type="curve" smooth="yes"/>
      <point x="567.993" y="641"/>
      <point x="566.993" y="631"/>
      <point x="565.993" y="626" type="curve" smooth="yes"/>
      <point x="563.993" y="617"/>
      <point x="549.993" y="598"/>
      <point x="528.993" y="565" type="curve" smooth="yes"/>
      <point x="163.993" y="-8" type="line"/>
      <point x="159.993" y="-10"/>
      <point x="151.993" y="-10"/>
      <point x="149.993" y="-10" type="curve" smooth="yes"/>
      <point x="142.993" y="-10"/>
      <point x="107.993" y="-6"/>
    </contour>
  </outline>
</glyph>
<glyph name="eight" format="1">
  <advance width="481"/>
  <unicode hex="0038"/>
  <outline>
    <contour>
      <point x="359.57" y="642" type="curve" smooth="yes"/>
      <point x="441.57" y="642"/>
      <point x="534.57" y="608"/>
      <point x="512.57" y="493" type="curve" smooth="yes"/>
      <point x="498.57" y="420"/>
      <point x="436.57" y="379"/>
      <point x="378.57" y="355" type="curve" smooth="yes"/>
      <point x="374.57" y="353"/>
      <point x="375.57" y="351"/>
      <point x="377.57" y="349" type="curve" smooth="yes"/>
      <point x="437.57" y="297"/>
      <point x="485.57" y="231"/>
      <point x="471.57" y="162" type="curve" smooth="yes"/>
      <point x="447.57" y="45"/>
      <point x="335.57" y="-6"/>
      <point x="238.57" y="-6" type="curve" smooth="yes"/>
      <point x="136.57" y="-6"/>
      <point x="54.5703" y="71"/>
      <point x="73.5703" y="168" type="curve" smooth="yes"/>
      <point x="90.5703" y="256"/>
      <point x="168.57" y="288"/>
      <point x="220.57" y="311" type="curve" smooth="yes"/>
      <point x="223.57" y="312"/>
      <point x="224.57" y="316"/>
      <point x="222.57" y="317" type="curve" smooth="yes"/>
      <point x="188.57" y="347"/>
      <point x="148.57" y="411"/>
      <point x="162.57" y="485" type="curve" smooth="yes"/>
      <point x="179.57" y="570"/>
      <point x="258.57" y="642"/>
    </contour>
    <contour>
      <point x="350.57" y="608" type="curve" smooth="yes"/>
      <point x="314.57" y="608"/>
      <point x="281.57" y="566"/>
      <point x="281.57" y="508" type="curve" smooth="yes"/>
      <point x="281.57" y="451"/>
      <point x="309.57" y="413"/>
      <point x="343.57" y="383" type="curve" smooth="yes"/>
      <point x="345.57" y="382"/>
      <point x="346.57" y="381"/>
      <point x="347.57" y="381" type="curve" smooth="yes"/>
      <point x="348.57" y="381"/>
      <point x="350.57" y="381"/>
      <point x="352.57" y="384" type="curve" smooth="yes"/>
      <point x="378.57" y="420"/>
      <point x="398.57" y="465"/>
      <point x="398.57" y="519" type="curve" smooth="yes"/>
      <point x="398.57" y="554"/>
      <point x="391.57" y="608"/>
    </contour>
    <contour>
      <point x="257.57" y="31" type="curve" smooth="yes"/>
      <point x="302.57" y="31"/>
      <point x="335.57" y="75"/>
      <point x="342.57" y="120" type="curve" smooth="yes"/>
      <point x="356.57" y="208"/>
      <point x="266.57" y="276"/>
      <point x="257.57" y="284" type="curve" smooth="yes"/>
      <point x="255.57" y="285"/>
      <point x="255.57" y="285"/>
      <point x="253.57" y="285" type="curve" smooth="yes"/>
      <point x="252.57" y="285"/>
      <point x="251.57" y="284"/>
      <point x="250.57" y="283" type="curve" smooth="yes"/>
      <point x="230.57" y="250"/>
      <point x="214.57" y="212"/>
      <point x="205.57" y="151" type="curve" smooth="yes"/>
      <point x="194.57" y="74"/>
      <point x="216.57" y="31"/>
    </contour>
  </outline>
</glyph>
<glyph name="less" format="1">
  <advance width="465"/>
  <unicode hex="003C"/>
  <outline>
    <contour>
      <point x="104" y="209" type="line"/>
      <point x="370" y="51" type="line"/>
      <point x="370" y="51"/>
      <point x="372" y="50"/>
      <point x="371" y="45" type="curve" smooth="yes"/>
      <point x="370" y="38"/>
      <point x="351" y="-15"/>
      <point x="345" y="-15" type="curve" smooth="yes"/>
      <point x="344" y="-15"/>
      <point x="343" y="-14"/>
      <point x="341" y="-13" type="curve" smooth="yes"/>
      <point x="29" y="177" type="line" smooth="yes"/>
      <point x="17" y="185"/>
      <point x="17" y="200"/>
      <point x="20" y="217" type="curve" smooth="yes"/>
      <point x="22" y="228"/>
      <point x="31" y="236"/>
      <point x="41" y="241" type="curve" smooth="yes"/>
      <point x="425" y="428" type="line" smooth="yes"/>
      <point x="427" y="429"/>
      <point x="429" y="430"/>
      <point x="430" y="430" type="curve" smooth="yes"/>
      <point x="433" y="430"/>
      <point x="434" y="423"/>
      <point x="434" y="386" type="curve" smooth="yes"/>
      <point x="434" y="373"/>
      <point x="430" y="364"/>
      <point x="430" y="364" type="curve"/>
    </contour>
  </outline>
</glyph>
<glyph name="equal" format="1">
  <advance width="542"/>
  <unicode hex="003D"/>
  <outline>
    <contour>
      <point x="55" y="164" type="line" smooth="yes"/>
      <point x="52" y="164"/>
      <point x="50" y="167"/>
      <point x="50" y="172" type="curve" smooth="yes"/>
      <point x="50" y="185"/>
      <point x="55" y="202"/>
      <point x="65" y="215" type="curve"/>
      <point x="456" y="215" type="line" smooth="yes"/>
      <point x="458" y="215"/>
      <point x="459" y="212"/>
      <point x="459" y="207" type="curve" smooth="yes"/>
      <point x="459" y="194"/>
      <point x="457" y="176"/>
      <point x="446" y="164" type="curve"/>
    </contour>
    <contour>
      <point x="82" y="304" type="line" smooth="yes"/>
      <point x="79" y="304"/>
      <point x="77" y="307"/>
      <point x="77" y="312" type="curve" smooth="yes"/>
      <point x="77" y="325"/>
      <point x="82" y="342"/>
      <point x="92" y="355" type="curve"/>
      <point x="483" y="355" type="line" smooth="yes"/>
      <point x="485" y="355"/>
      <point x="486" y="352"/>
      <point x="486" y="347" type="curve" smooth="yes"/>
      <point x="486" y="334"/>
      <point x="484" y="316"/>
      <point x="473" y="304" type="curve"/>
    </contour>
  </outline>
</glyph>
<glyph name="at" format="1">
  <advance width="778"/>
  <unicode hex="0040"/>
  <outline>
    <contour>
      <point x="525" y="132" type="line" smooth="yes"/>
      <point x="515" y="84"/>
      <point x="519" y="61"/>
      <point x="548" y="61" type="curve" smooth="yes"/>
      <point x="593" y="61"/>
      <point x="688" y="162"/>
      <point x="688" y="300" type="curve" smooth="yes"/>
      <point x="688" y="439"/>
      <point x="624" y="540"/>
      <point x="465" y="540" type="curve" smooth="yes"/>
      <point x="326" y="540"/>
      <point x="82" y="382"/>
      <point x="82" y="142" type="curve" smooth="yes"/>
      <point x="82" y="61"/>
      <point x="102" y="-12"/>
      <point x="172" y="-76" type="curve" smooth="yes"/>
      <point x="186" y="-89"/>
      <point x="207" y="-100"/>
      <point x="215" y="-104" type="curve"/>
      <point x="209" y="-109"/>
      <point x="194" y="-114"/>
      <point x="181" y="-114" type="curve" smooth="yes"/>
      <point x="174" y="-114"/>
      <point x="142" y="-106"/>
      <point x="121" y="-88" type="curve" smooth="yes"/>
      <point x="63" y="-38"/>
      <point x="30" y="31"/>
      <point x="30" y="131" type="curve" smooth="yes"/>
      <point x="30" y="383"/>
      <point x="275" y="582"/>
      <point x="483" y="582" type="curve" smooth="yes"/>
      <point x="668" y="582"/>
      <point x="745" y="447"/>
      <point x="745" y="314" type="curve" smooth="yes"/>
      <point x="745" y="93"/>
      <point x="547" y="-17"/>
      <point x="474" y="-17" type="curve" smooth="yes"/>
      <point x="425" y="-17"/>
      <point x="399" y="9"/>
      <point x="399" y="58" type="curve" smooth="yes"/>
      <point x="399" y="62"/>
      <point x="400" y="70"/>
      <point x="401" y="77" type="curve" smooth="yes"/>
      <point x="402" y="85"/>
      <point x="404" y="92"/>
      <point x="405" y="96" type="curve"/>
      <point x="384" y="59"/>
      <point x="319" y="-7"/>
      <point x="259" y="-7" type="curve" smooth="yes"/>
      <point x="203" y="-7"/>
      <point x="173" y="47"/>
      <point x="173" y="115" type="curve" smooth="yes"/>
      <point x="173" y="294"/>
      <point x="353" y="449"/>
      <point x="480" y="449" type="curve" smooth="yes"/>
      <point x="516" y="449"/>
      <point x="567" y="438"/>
      <point x="587" y="431" type="curve"/>
    </contour>
    <contour>
      <point x="424" y="394" type="curve" smooth="yes"/>
      <point x="356" y="394"/>
      <point x="299" y="270"/>
      <point x="299" y="152" type="curve" smooth="yes"/>
      <point x="299" y="104"/>
      <point x="313" y="81"/>
      <point x="335" y="81" type="curve" smooth="yes"/>
      <point x="369" y="81"/>
      <point x="419" y="182"/>
      <point x="439" y="281" type="curve" smooth="yes"/>
      <point x="459" y="382" type="line"/>
      <point x="452" y="390"/>
      <point x="438" y="394"/>
    </contour>
  </outline>
</glyph>
<glyph name="B" format="1">
  <advance width="589"/>
  <unicode hex="0042"/>
  <outline>
    <contour>
      <point x="262" y="371" type="line"/>
      <point x="310" y="371" type="line" smooth="yes"/>
      <point x="356" y="371"/>
      <point x="397" y="412"/>
      <point x="412" y="487" type="curve" smooth="yes"/>
      <point x="430" y="582"/>
      <point x="408" y="620"/>
      <point x="361" y="620" type="curve" smooth="yes"/>
      <point x="340" y="620"/>
      <point x="319" y="619"/>
      <point x="312" y="608" type="curve" smooth="yes"/>
      <point x="305" y="596"/>
      <point x="302" y="576"/>
      <point x="296" y="547" type="curve" smooth="yes"/>
    </contour>
    <contour>
      <point x="254" y="332" type="line"/>
      <point x="211" y="109" type="line" smooth="yes"/>
      <point x="210" y="103"/>
      <point x="202" y="63"/>
      <point x="207" y="51" type="curve" smooth="yes"/>
      <point x="212" y="40"/>
      <point x="239" y="39"/>
      <point x="263" y="39" type="curve" smooth="yes"/>
      <point x="306" y="39"/>
      <point x="368" y="73"/>
      <point x="388" y="176" type="curve" smooth="yes"/>
      <point x="403" y="251"/>
      <point x="390" y="332"/>
      <point x="302" y="332" type="curve" smooth="yes"/>
    </contour>
    <contour>
      <point x="396" y="660" type="curve" smooth="yes"/>
      <point x="482" y="660"/>
      <point x="576" y="618"/>
      <point x="553" y="502" type="curve" smooth="yes"/>
      <point x="537" y="422"/>
      <point x="453" y="376"/>
      <point x="426" y="366" type="curve" smooth="yes"/>
      <point x="418" y="363"/>
      <point x="419" y="360"/>
      <point x="420" y="360" type="curve" smooth="yes"/>
      <point x="465" y="354"/>
      <point x="557" y="296"/>
      <point x="537" y="192" type="curve" smooth="yes"/>
      <point x="524" y="126"/>
      <point x="473" y="67"/>
      <point x="408" y="30" type="curve" smooth="yes"/>
      <point x="346" y="-5"/>
      <point x="277" y="-4"/>
      <point x="208" y="-3" type="curve" smooth="yes"/>
      <point x="169" y="-3"/>
      <point x="28" y="-2"/>
      <point x="-8" y="-3" type="curve"/>
      <point x="-11" y="3"/>
      <point x="-7" y="27"/>
      <point x="-1" y="34" type="curve"/>
      <point x="11" y="35"/>
      <point x="55" y="38"/>
      <point x="62" y="51" type="curve" smooth="yes"/>
      <point x="73" y="71"/>
      <point x="79" y="102"/>
      <point x="87" y="145" type="curve" smooth="yes"/>
      <point x="159" y="513" type="line" smooth="yes"/>
      <point x="167" y="556"/>
      <point x="174" y="587"/>
      <point x="170" y="607" type="curve" smooth="yes"/>
      <point x="168" y="620"/>
      <point x="125" y="622"/>
      <point x="113" y="623" type="curve"/>
      <point x="110" y="630"/>
      <point x="116" y="654"/>
      <point x="121" y="660" type="curve"/>
      <point x="162" y="657"/>
      <point x="214" y="657"/>
      <point x="253" y="657" type="curve" smooth="yes"/>
      <point x="292" y="657"/>
      <point x="342" y="660"/>
    </contour>
  </outline>
</glyph>
<glyph name="F" format="1">
  <advance width="525"/>
  <unicode hex="0046"/>
  <outline>
    <contour>
      <point x="253" y="657" type="curve" smooth="yes"/>
      <point x="292" y="657"/>
      <point x="502" y="663"/>
      <point x="557" y="664" type="curve"/>
      <point x="554" y="614"/>
      <point x="555" y="561"/>
      <point x="555" y="516" type="curve"/>
      <point x="552" y="513"/>
      <point x="539" y="511"/>
      <point x="532" y="511" type="curve" smooth="yes"/>
      <point x="525" y="511"/>
      <point x="520" y="514"/>
      <point x="519" y="519" type="curve" smooth="yes"/>
      <point x="510" y="574"/>
      <point x="495" y="620"/>
      <point x="438" y="620" type="curve" smooth="yes"/>
      <point x="361" y="620" type="line" smooth="yes"/>
      <point x="340" y="620"/>
      <point x="319" y="619"/>
      <point x="312" y="608" type="curve" smooth="yes"/>
      <point x="305" y="596"/>
      <point x="302" y="576"/>
      <point x="296" y="547" type="curve" smooth="yes"/>
      <point x="260" y="364" type="line" smooth="yes"/>
      <point x="259" y="358"/>
      <point x="278" y="353"/>
      <point x="298" y="353" type="curve" smooth="yes"/>
      <point x="347" y="353" type="line" smooth="yes"/>
      <point x="402" y="353"/>
      <point x="417" y="365"/>
      <point x="443" y="423" type="curve" smooth="yes"/>
      <point x="445" y="428"/>
      <point x="448" y="431"/>
      <point x="455" y="431" type="curve" smooth="yes"/>
      <point x="462" y="431"/>
      <point x="470" y="429"/>
      <point x="472" y="426" type="curve"/>
      <point x="435" y="234" type="line"/>
      <point x="433" y="232"/>
      <point x="424" y="230"/>
      <point x="417" y="230" type="curve" smooth="yes"/>
      <point x="410" y="230"/>
      <point x="406" y="233"/>
      <point x="406" y="238" type="curve" smooth="yes"/>
      <point x="404" y="286"/>
      <point x="393" y="295"/>
      <point x="385" y="299" type="curve" smooth="yes"/>
      <point x="375" y="304"/>
      <point x="351" y="306"/>
      <point x="316" y="306" type="curve" smooth="yes"/>
      <point x="290" y="306"/>
      <point x="248" y="304"/>
      <point x="246" y="292" type="curve" smooth="yes"/>
      <point x="218" y="145" type="line" smooth="yes"/>
      <point x="210" y="102"/>
      <point x="203" y="71"/>
      <point x="207" y="51" type="curve" smooth="yes"/>
      <point x="209" y="38"/>
      <point x="259" y="34"/>
      <point x="271" y="33" type="curve"/>
      <point x="274" y="26"/>
      <point x="269" y="2"/>
      <point x="264" y="-4" type="curve"/>
      <point x="229" y="0"/>
      <point x="163" y="3"/>
      <point x="124" y="3" type="curve" smooth="yes"/>
      <point x="85" y="3"/>
      <point x="28" y="0"/>
      <point x="-9" y="-4" type="curve"/>
      <point x="-12" y="2"/>
      <point x="-7" y="26"/>
      <point x="-1" y="33" type="curve"/>
      <point x="11" y="34"/>
      <point x="55" y="38"/>
      <point x="62" y="51" type="curve" smooth="yes"/>
      <point x="73" y="71"/>
      <point x="79" y="102"/>
      <point x="87" y="145" type="curve" smooth="yes"/>
      <point x="159" y="513" type="line" smooth="yes"/>
      <point x="167" y="556"/>
      <point x="174" y="587"/>
      <point x="170" y="607" type="curve" smooth="yes"/>
      <point x="168" y="620"/>
      <point x="125" y="622"/>
      <point x="113" y="623" type="curve"/>
      <point x="110" y="630"/>
      <point x="116" y="654"/>
      <point x="121" y="660" type="curve"/>
      <point x="162" y="657"/>
      <point x="214" y="657"/>
    </contour>
  </outline>
</glyph>
<glyph name="G" format="1">
  <advance width="678"/>
  <unicode hex="0047"/>
  <outline>
    <contour>
      <point x="443" y="667" type="curve" smooth="yes"/>
      <point x="504" y="667"/>
      <point x="585" y="650"/>
      <point x="638" y="638" type="curve"/>
      <point x="638" y="627"/>
      <point x="627" y="506"/>
      <point x="625" y="494" type="curve" smooth="yes"/>
      <point x="624" y="488"/>
      <point x="614" y="480"/>
      <point x="603" y="480" type="curve" smooth="yes"/>
      <point x="598" y="480"/>
      <point x="594" y="480"/>
      <point x="591" y="484" type="curve"/>
      <point x="589" y="523"/>
      <point x="560" y="624"/>
      <point x="443" y="624" type="curve" smooth="yes"/>
      <point x="312" y="624"/>
      <point x="196" y="478"/>
      <point x="196" y="268" type="curve" smooth="yes"/>
      <point x="196" y="176"/>
      <point x="234" y="37"/>
      <point x="365" y="37" type="curve" smooth="yes"/>
      <point x="399" y="37"/>
      <point x="415" y="45"/>
      <point x="422" y="50" type="curve" smooth="yes"/>
      <point x="426" y="53"/>
      <point x="430" y="58"/>
      <point x="432" y="67" type="curve" smooth="yes"/>
      <point x="435" y="82"/>
      <point x="447" y="148"/>
      <point x="456" y="196" type="curve" smooth="yes"/>
      <point x="460" y="216"/>
      <point x="462" y="225"/>
      <point x="461" y="247" type="curve" smooth="yes"/>
      <point x="459" y="272"/>
      <point x="411" y="274"/>
      <point x="400" y="274" type="curve" smooth="yes"/>
      <point x="395" y="274"/>
      <point x="401" y="306"/>
      <point x="407" y="311" type="curve"/>
      <point x="454" y="309"/>
      <point x="506" y="305"/>
      <point x="553" y="305" type="curve" smooth="yes"/>
      <point x="592" y="305"/>
      <point x="625" y="309"/>
      <point x="663" y="311" type="curve"/>
      <point x="664" y="298"/>
      <point x="658" y="274"/>
      <point x="655" y="274" type="curve"/>
      <point x="648" y="274"/>
      <point x="620" y="268"/>
      <point x="608" y="261" type="curve" smooth="yes"/>
      <point x="602" y="257"/>
      <point x="593" y="237"/>
      <point x="589" y="218" type="curve" smooth="yes"/>
      <point x="582" y="181"/>
      <point x="573" y="132"/>
      <point x="566" y="98" type="curve" smooth="yes"/>
      <point x="564" y="89"/>
      <point x="567" y="74"/>
      <point x="566" y="69" type="curve" smooth="yes"/>
      <point x="564" y="58"/>
      <point x="542" y="42"/>
      <point x="529" y="36" type="curve" smooth="yes"/>
      <point x="476" y="10"/>
      <point x="423" y="-7"/>
      <point x="337" y="-7" type="curve" smooth="yes"/>
      <point x="142" y="-7"/>
      <point x="52" y="142"/>
      <point x="52" y="276" type="curve" smooth="yes"/>
      <point x="52" y="526"/>
      <point x="266" y="667"/>
    </contour>
  </outline>
</glyph>
<glyph name="I" format="1">
  <advance width="353"/>
  <unicode hex="0049"/>
  <outline>
    <contour>
      <point x="253" y="655" type="curve" smooth="yes"/>
      <point x="292" y="655"/>
      <point x="348" y="658"/>
      <point x="385" y="662" type="curve"/>
      <point x="388" y="656"/>
      <point x="384" y="632"/>
      <point x="378" y="625" type="curve"/>
      <point x="366" y="624"/>
      <point x="322" y="620"/>
      <point x="315" y="607" type="curve" smooth="yes"/>
      <point x="304" y="587"/>
      <point x="297" y="556"/>
      <point x="289" y="513" type="curve" smooth="yes"/>
      <point x="218" y="145" type="line" smooth="yes"/>
      <point x="210" y="102"/>
      <point x="203" y="71"/>
      <point x="207" y="51" type="curve" smooth="yes"/>
      <point x="209" y="38"/>
      <point x="251" y="34"/>
      <point x="263" y="33" type="curve"/>
      <point x="266" y="26"/>
      <point x="261" y="2"/>
      <point x="256" y="-4" type="curve"/>
      <point x="221" y="0"/>
      <point x="163" y="3"/>
      <point x="124" y="3" type="curve" smooth="yes"/>
      <point x="85" y="3"/>
      <point x="28" y="0"/>
      <point x="-9" y="-4" type="curve"/>
      <point x="-12" y="2"/>
      <point x="-7" y="26"/>
      <point x="-1" y="33" type="curve"/>
      <point x="11" y="34"/>
      <point x="55" y="38"/>
      <point x="62" y="51" type="curve" smooth="yes"/>
      <point x="73" y="71"/>
      <point x="79" y="102"/>
      <point x="87" y="145" type="curve" smooth="yes"/>
      <point x="159" y="513" type="line" smooth="yes"/>
      <point x="167" y="556"/>
      <point x="174" y="587"/>
      <point x="170" y="607" type="curve" smooth="yes"/>
      <point x="168" y="620"/>
      <point x="126" y="624"/>
      <point x="114" y="625" type="curve"/>
      <point x="111" y="632"/>
      <point x="116" y="656"/>
      <point x="121" y="662" type="curve"/>
      <point x="156" y="658"/>
      <point x="214" y="655"/>
    </contour>
  </outline>
</glyph>
<glyph name="J" format="1">
  <advance width="336"/>
  <unicode hex="004A"/>
  <outline>
    <contour>
      <point x="247" y="655" type="curve" smooth="yes"/>
      <point x="286" y="655"/>
      <point x="342" y="658"/>
      <point x="379" y="662" type="curve"/>
      <point x="382" y="656"/>
      <point x="378" y="632"/>
      <point x="372" y="625" type="curve"/>
      <point x="360" y="624"/>
      <point x="316" y="620"/>
      <point x="309" y="607" type="curve" smooth="yes"/>
      <point x="298" y="587"/>
      <point x="291" y="556"/>
      <point x="283" y="513" type="curve" smooth="yes"/>
      <point x="211" y="143" type="line" smooth="yes"/>
      <point x="167" y="-85"/>
      <point x="-39" y="-200"/>
      <point x="-98" y="-218" type="curve"/>
      <point x="-103" y="-215"/>
      <point x="-109" y="-205"/>
      <point x="-109" y="-200" type="curve" smooth="yes"/>
      <point x="-109" y="-197"/>
      <point x="-108" y="-195"/>
      <point x="-107" y="-194" type="curve"/>
      <point x="-4" y="-138"/>
      <point x="48" y="-31"/>
      <point x="80" y="135" type="curve" smooth="yes"/>
      <point x="153" y="513" type="line" smooth="yes"/>
      <point x="161" y="556"/>
      <point x="168" y="587"/>
      <point x="164" y="607" type="curve" smooth="yes"/>
      <point x="162" y="620"/>
      <point x="120" y="624"/>
      <point x="108" y="625" type="curve"/>
      <point x="105" y="632"/>
      <point x="110" y="656"/>
      <point x="115" y="662" type="curve"/>
      <point x="150" y="658"/>
      <point x="208" y="655"/>
    </contour>
  </outline>
</glyph>
<glyph name="K" format="1">
  <advance width="688"/>
  <unicode hex="004B"/>
  <outline>
    <contour>
      <point x="521" y="141" type="curve" smooth="yes"/>
      <point x="598" y="26"/>
      <point x="653" y="29"/>
      <point x="660" y="29" type="curve"/>
      <point x="663" y="22"/>
      <point x="656" y="0"/>
      <point x="655" y="-2" type="curve"/>
      <point x="628" y="-4"/>
      <point x="628" y="-6"/>
      <point x="590" y="-6" type="curve" smooth="yes"/>
      <point x="491" y="-6"/>
      <point x="449" y="20"/>
      <point x="401" y="92" type="curve" smooth="yes"/>
      <point x="378" y="126"/>
      <point x="304" y="244"/>
      <point x="267" y="302" type="curve" smooth="yes"/>
      <point x="265" y="305"/>
      <point x="260" y="306"/>
      <point x="258" y="306" type="curve" smooth="yes"/>
      <point x="254" y="306"/>
      <point x="251" y="304"/>
      <point x="248" y="300" type="curve"/>
      <point x="218" y="145" type="line" smooth="yes"/>
      <point x="210" y="102"/>
      <point x="203" y="71"/>
      <point x="207" y="51" type="curve" smooth="yes"/>
      <point x="209" y="38"/>
      <point x="251" y="34"/>
      <point x="263" y="33" type="curve"/>
      <point x="266" y="26"/>
      <point x="261" y="2"/>
      <point x="256" y="-4" type="curve"/>
      <point x="221" y="0"/>
      <point x="163" y="3"/>
      <point x="124" y="3" type="curve" smooth="yes"/>
      <point x="85" y="3"/>
      <point x="28" y="0"/>
      <point x="-9" y="-4" type="curve"/>
      <point x="-12" y="2"/>
      <point x="-7" y="26"/>
      <point x="-1" y="33" type="curve"/>
      <point x="11" y="34"/>
      <point x="55" y="38"/>
      <point x="62" y="51" type="curve" smooth="yes"/>
      <point x="73" y="71"/>
      <point x="79" y="102"/>
      <point x="87" y="145" type="curve" smooth="yes"/>
      <point x="159" y="513" type="line" smooth="yes"/>
      <point x="167" y="556"/>
      <point x="174" y="587"/>
      <point x="170" y="607" type="curve" smooth="yes"/>
      <point x="168" y="620"/>
      <point x="126" y="624"/>
      <point x="114" y="625" type="curve"/>
      <point x="111" y="632"/>
      <point x="116" y="656"/>
      <point x="121" y="662" type="curve"/>
      <point x="156" y="658"/>
      <point x="214" y="655"/>
      <point x="253" y="655" type="curve" smooth="yes"/>
      <point x="292" y="655"/>
      <point x="348" y="658"/>
      <point x="385" y="662" type="curve"/>
      <point x="388" y="656"/>
      <point x="384" y="632"/>
      <point x="378" y="625" type="curve"/>
      <point x="366" y="624"/>
      <point x="322" y="620"/>
      <point x="315" y="607" type="curve" smooth="yes"/>
      <point x="304" y="587"/>
      <point x="297" y="556"/>
      <point x="289" y="513" type="curve" smooth="yes"/>
      <point x="255" y="337" type="line"/>
      <point x="303" y="372"/>
      <point x="342" y="403"/>
      <point x="369" y="428" type="curve" smooth="yes"/>
      <point x="437" y="489"/>
      <point x="468" y="514"/>
      <point x="518" y="570" type="curve" smooth="yes"/>
      <point x="530" y="583"/>
      <point x="533" y="596"/>
      <point x="534" y="603" type="curve" smooth="yes"/>
      <point x="538" y="624"/>
      <point x="499" y="626"/>
      <point x="486" y="626" type="curve"/>
      <point x="483" y="634"/>
      <point x="486" y="653"/>
      <point x="491" y="662" type="curve"/>
      <point x="525" y="660"/>
      <point x="577" y="655"/>
      <point x="611" y="655" type="curve" smooth="yes"/>
      <point x="652" y="655"/>
      <point x="692" y="658"/>
      <point x="727" y="662" type="curve"/>
      <point x="728" y="655"/>
      <point x="725" y="633"/>
      <point x="719" y="627" type="curve"/>
      <point x="710" y="626"/>
      <point x="644" y="619"/>
      <point x="605" y="583" type="curve" smooth="yes"/>
      <point x="605" y="583"/>
      <point x="465" y="455"/>
      <point x="380" y="376" type="curve" smooth="yes"/>
      <point x="373" y="369"/>
      <point x="372" y="365"/>
      <point x="375" y="360" type="curve" smooth="yes"/>
      <point x="429" y="274"/>
      <point x="468" y="220"/>
    </contour>
  </outline>
</glyph>
<glyph name="L" format="1">
  <advance width="547"/>
  <unicode hex="004C"/>
  <outline>
    <contour>
      <point x="217" y="141" type="line" smooth="yes"/>
      <point x="216" y="135"/>
      <point x="205" y="82"/>
      <point x="209" y="62" type="curve" smooth="yes"/>
      <point x="212" y="48"/>
      <point x="241" y="42"/>
      <point x="265" y="42" type="curve" smooth="yes"/>
      <point x="327" y="42" type="line" smooth="yes"/>
      <point x="362" y="42"/>
      <point x="394" y="52"/>
      <point x="420" y="75" type="curve" smooth="yes"/>
      <point x="444" y="96"/>
      <point x="463" y="125"/>
      <point x="488" y="170" type="curve" smooth="yes"/>
      <point x="490" y="174"/>
      <point x="496" y="176"/>
      <point x="503" y="176" type="curve" smooth="yes"/>
      <point x="512" y="176"/>
      <point x="527" y="173"/>
      <point x="529" y="170" type="curve"/>
      <point x="501" y="116"/>
      <point x="461" y="42"/>
      <point x="446" y="-2" type="curve"/>
      <point x="420" y="-2"/>
      <point x="249" y="-2"/>
      <point x="124" y="-2" type="curve" smooth="yes"/>
      <point x="58" y="-2"/>
      <point x="5" y="-3"/>
      <point x="-8" y="-3" type="curve"/>
      <point x="-11" y="3"/>
      <point x="-7" y="27"/>
      <point x="-1" y="34" type="curve"/>
      <point x="11" y="35"/>
      <point x="55" y="38"/>
      <point x="62" y="51" type="curve" smooth="yes"/>
      <point x="73" y="71"/>
      <point x="79" y="102"/>
      <point x="87" y="145" type="curve" smooth="yes"/>
      <point x="159" y="513" type="line" smooth="yes"/>
      <point x="167" y="556"/>
      <point x="174" y="587"/>
      <point x="170" y="607" type="curve" smooth="yes"/>
      <point x="168" y="620"/>
      <point x="126" y="624"/>
      <point x="114" y="625" type="curve"/>
      <point x="111" y="632"/>
      <point x="116" y="656"/>
      <point x="121" y="662" type="curve"/>
      <point x="156" y="658"/>
      <point x="214" y="655"/>
      <point x="253" y="655" type="curve" smooth="yes"/>
      <point x="292" y="655"/>
      <point x="348" y="658"/>
      <point x="385" y="662" type="curve"/>
      <point x="388" y="656"/>
      <point x="384" y="632"/>
      <point x="378" y="625" type="curve"/>
      <point x="366" y="624"/>
      <point x="322" y="620"/>
      <point x="315" y="607" type="curve" smooth="yes"/>
      <point x="304" y="587"/>
      <point x="297" y="556"/>
      <point x="289" y="513" type="curve" smooth="yes"/>
    </contour>
  </outline>
</glyph>
<glyph name="N" format="1">
  <advance width="715"/>
  <unicode hex="004E"/>
  <outline>
    <contour>
      <point x="221" y="655" type="curve" smooth="yes"/>
      <point x="254" y="655"/>
      <point x="293" y="658"/>
      <point x="324" y="662" type="curve"/>
      <point x="344" y="584"/>
      <point x="457" y="401"/>
      <point x="542" y="248" type="curve"/>
      <point x="545" y="255"/>
      <point x="549" y="275"/>
      <point x="552" y="289" type="curve" smooth="yes"/>
      <point x="588" y="476" type="line" smooth="yes"/>
      <point x="595" y="514"/>
      <point x="607" y="589"/>
      <point x="603" y="604" type="curve" smooth="yes"/>
      <point x="599" y="622"/>
      <point x="543" y="626"/>
      <point x="532" y="626" type="curve"/>
      <point x="530" y="626"/>
      <point x="533" y="654"/>
      <point x="539" y="663" type="curve"/>
      <point x="581" y="661"/>
      <point x="608" y="655"/>
      <point x="651" y="655" type="curve" smooth="yes"/>
      <point x="692" y="655"/>
      <point x="732" y="661"/>
      <point x="770" y="663" type="curve"/>
      <point x="771" y="657"/>
      <point x="768" y="635"/>
      <point x="760" y="625" type="curve"/>
      <point x="753" y="625"/>
      <point x="691" y="623"/>
      <point x="679" y="602" type="curve" smooth="yes"/>
      <point x="672" y="588"/>
      <point x="652" y="515"/>
      <point x="645" y="479" type="curve" smooth="yes"/>
      <point x="579" y="139" type="line" smooth="yes"/>
      <point x="568" y="81"/>
      <point x="564" y="51"/>
      <point x="556" y="-1" type="curve"/>
      <point x="553" y="-4"/>
      <point x="535" y="-5"/>
      <point x="532" y="-5" type="curve" smooth="yes"/>
      <point x="524" y="-5"/>
      <point x="515" y="5"/>
      <point x="508" y="18" type="curve" smooth="yes"/>
      <point x="226" y="519" type="line"/>
      <point x="156" y="157" type="line" smooth="yes"/>
      <point x="149" y="121"/>
      <point x="145" y="74"/>
      <point x="147" y="60" type="curve" smooth="yes"/>
      <point x="150" y="41"/>
      <point x="212" y="34"/>
      <point x="219" y="34" type="curve"/>
      <point x="223" y="24"/>
      <point x="216" y="2"/>
      <point x="213" y="-4" type="curve"/>
      <point x="176" y="-2"/>
      <point x="138" y="4"/>
      <point x="97" y="4" type="curve" smooth="yes"/>
      <point x="54" y="4"/>
      <point x="25" y="-2"/>
      <point x="-18" y="-4" type="curve"/>
      <point x="-21" y="5"/>
      <point x="-12" y="33"/>
      <point x="-10" y="33" type="curve"/>
      <point x="1" y="33"/>
      <point x="58" y="41"/>
      <point x="69" y="59" type="curve" smooth="yes"/>
      <point x="78" y="74"/>
      <point x="93" y="122"/>
      <point x="100" y="160" type="curve" smooth="yes"/>
      <point x="125" y="291"/>
      <point x="144" y="383"/>
      <point x="169" y="514" type="curve" smooth="yes"/>
      <point x="179" y="568"/>
      <point x="177" y="585"/>
      <point x="169" y="604" type="curve" smooth="yes"/>
      <point x="163" y="617"/>
      <point x="123" y="625"/>
      <point x="112" y="625" type="curve" smooth="yes"/>
      <point x="107" y="625"/>
      <point x="111" y="657"/>
      <point x="117" y="662" type="curve"/>
      <point x="145" y="660"/>
      <point x="178" y="655"/>
    </contour>
  </outline>
</glyph>
<glyph name="O" format="1">
  <advance width="705"/>
  <unicode hex="004F"/>
  <outline>
    <contour>
      <point x="402" y="624" type="curve" smooth="yes"/>
      <point x="264" y="624"/>
      <point x="193" y="409"/>
      <point x="193" y="244" type="curve" smooth="yes"/>
      <point x="193" y="129"/>
      <point x="231" y="33"/>
      <point x="326" y="33" type="curve" smooth="yes"/>
      <point x="461" y="33"/>
      <point x="535" y="245"/>
      <point x="535" y="410" type="curve" smooth="yes"/>
      <point x="535" y="525"/>
      <point x="492" y="624"/>
    </contour>
    <contour>
      <point x="424" y="667" type="curve" smooth="yes"/>
      <point x="588" y="667"/>
      <point x="679" y="522"/>
      <point x="679" y="393" type="curve" smooth="yes"/>
      <point x="679" y="137"/>
      <point x="461" y="-10"/>
      <point x="295" y="-10" type="curve" smooth="yes"/>
      <point x="155" y="-10"/>
      <point x="49" y="115"/>
      <point x="49" y="261" type="curve" smooth="yes"/>
      <point x="49" y="510"/>
      <point x="259" y="667"/>
    </contour>
  </outline>
</glyph>
<glyph name="Q" format="1">
  <advance width="706"/>
  <unicode hex="0051"/>
  <outline>
    <contour>
      <point x="425" y="667" type="curve" smooth="yes"/>
      <point x="589" y="667"/>
      <point x="680" y="522"/>
      <point x="680" y="393" type="curve" smooth="yes"/>
      <point x="680" y="179"/>
      <point x="535" y="56"/>
      <point x="406" y="10" type="curve"/>
      <point x="486" y="-36"/>
      <point x="527" y="-73"/>
      <point x="623" y="-73" type="curve" smooth="yes"/>
      <point x="646" y="-73"/>
      <point x="667" y="-68"/>
      <point x="674" y="-66" type="curve"/>
      <point x="681" y="-66"/>
      <point x="689" y="-70"/>
      <point x="693" y="-76" type="curve"/>
      <point x="681" y="-86"/>
      <point x="592" y="-140"/>
      <point x="535" y="-140" type="curve" smooth="yes"/>
      <point x="429" y="-140"/>
      <point x="355" y="-58"/>
      <point x="234" y="-8" type="curve" smooth="yes"/>
      <point x="118" y="40"/>
      <point x="50" y="141"/>
      <point x="50" y="261" type="curve" smooth="yes"/>
      <point x="50" y="510"/>
      <point x="260" y="667"/>
    </contour>
    <contour>
      <point x="403" y="624" type="curve" smooth="yes"/>
      <point x="265" y="624"/>
      <point x="194" y="409"/>
      <point x="194" y="244" type="curve" smooth="yes"/>
      <point x="194" y="129"/>
      <point x="232" y="33"/>
      <point x="327" y="33" type="curve" smooth="yes"/>
      <point x="462" y="33"/>
      <point x="536" y="245"/>
      <point x="536" y="410" type="curve" smooth="yes"/>
      <point x="536" y="525"/>
      <point x="493" y="624"/>
    </contour>
  </outline>
</glyph>
<glyph name="S" format="1">
  <advance width="494"/>
  <unicode hex="0053"/>
  <outline>
    <contour>
      <point x="332" y="670" type="curve" smooth="yes"/>
      <point x="387" y="670"/>
      <point x="429" y="655"/>
      <point x="483" y="642" type="curve"/>
      <point x="477" y="589"/>
      <point x="470" y="537"/>
      <point x="461" y="476" type="curve"/>
      <point x="457" y="472"/>
      <point x="453" y="470"/>
      <point x="449" y="470" type="curve" smooth="yes"/>
      <point x="446" y="470"/>
      <point x="423" y="469"/>
      <point x="423" y="477" type="curve" smooth="yes"/>
      <point x="426" y="533"/>
      <point x="400" y="628"/>
      <point x="328" y="628" type="curve" smooth="yes"/>
      <point x="292" y="628"/>
      <point x="245" y="608"/>
      <point x="232" y="541" type="curve" smooth="yes"/>
      <point x="220" y="479"/>
      <point x="287" y="422"/>
      <point x="336" y="381" type="curve" smooth="yes"/>
      <point x="389" y="337"/>
      <point x="456" y="294"/>
      <point x="433" y="175" type="curve" smooth="yes"/>
      <point x="412" y="65"/>
      <point x="296" y="-10"/>
      <point x="194" y="-10" type="curve" smooth="yes"/>
      <point x="139" y="-10"/>
      <point x="75" y="2"/>
      <point x="22" y="16" type="curve"/>
      <point x="21" y="60"/>
      <point x="29" y="158"/>
      <point x="33" y="186" type="curve"/>
      <point x="38" y="192"/>
      <point x="58" y="200"/>
      <point x="63" y="200" type="curve" smooth="yes"/>
      <point x="70" y="200"/>
      <point x="73" y="198"/>
      <point x="73" y="192" type="curve" smooth="yes"/>
      <point x="71" y="138"/>
      <point x="109" y="32"/>
      <point x="193" y="32" type="curve" smooth="yes"/>
      <point x="240" y="32"/>
      <point x="288" y="58"/>
      <point x="302" y="129" type="curve" smooth="yes"/>
      <point x="316" y="200"/>
      <point x="236" y="258"/>
      <point x="196" y="292" type="curve" smooth="yes"/>
      <point x="138" y="341"/>
      <point x="79" y="385"/>
      <point x="99" y="489" type="curve" smooth="yes"/>
      <point x="119" y="592"/>
      <point x="236" y="670"/>
    </contour>
  </outline>
</glyph>
<glyph name="X" format="1">
  <advance width="659"/>
  <unicode hex="0058"/>
  <outline>
    <contour>
      <point x="239" y="656" type="curve" smooth="yes"/>
      <point x="285" y="656"/>
      <point x="336" y="660"/>
      <point x="374" y="662" type="curve"/>
      <point x="375" y="656"/>
      <point x="370" y="625"/>
      <point x="365" y="625" type="curve"/>
      <point x="352" y="625"/>
      <point x="316" y="619"/>
      <point x="312" y="604" type="curve" smooth="yes"/>
      <point x="311" y="598"/>
      <point x="312" y="588"/>
      <point x="315" y="582" type="curve" smooth="yes"/>
      <point x="386" y="414" type="line"/>
      <point x="438" y="471"/>
      <point x="520" y="551"/>
      <point x="540" y="584" type="curve" smooth="yes"/>
      <point x="543" y="588"/>
      <point x="544" y="591"/>
      <point x="544" y="594" type="curve" smooth="yes"/>
      <point x="547" y="611"/>
      <point x="514" y="625"/>
      <point x="482" y="625" type="curve"/>
      <point x="477" y="625"/>
      <point x="482" y="657"/>
      <point x="488" y="662" type="curve"/>
      <point x="520" y="658"/>
      <point x="576" y="655"/>
      <point x="610" y="655" type="curve" smooth="yes"/>
      <point x="658" y="655"/>
      <point x="695" y="658"/>
      <point x="723" y="662" type="curve"/>
      <point x="725" y="656"/>
      <point x="720" y="625"/>
      <point x="715" y="625" type="curve"/>
      <point x="708" y="625"/>
      <point x="651" y="623"/>
      <point x="601" y="572" type="curve" smooth="yes"/>
      <point x="402" y="369" type="line"/>
      <point x="455" y="242"/>
      <point x="521" y="93"/>
      <point x="532" y="76" type="curve" smooth="yes"/>
      <point x="552" y="41"/>
      <point x="603" y="33"/>
      <point x="616" y="33" type="curve"/>
      <point x="618" y="24"/>
      <point x="615" y="4"/>
      <point x="609" y="-4" type="curve"/>
      <point x="572" y="-2"/>
      <point x="499" y="2"/>
      <point x="461" y="2" type="curve" smooth="yes"/>
      <point x="409" y="2"/>
      <point x="365" y="-2"/>
      <point x="313" y="-4" type="curve"/>
      <point x="309" y="1"/>
      <point x="317" y="33"/>
      <point x="322" y="33" type="curve" smooth="yes"/>
      <point x="332" y="33"/>
      <point x="377" y="43"/>
      <point x="380" y="61" type="curve" smooth="yes"/>
      <point x="381" y="64"/>
      <point x="380" y="69"/>
      <point x="379" y="72" type="curve" smooth="yes"/>
      <point x="294" y="273" type="line"/>
      <point x="276" y="253"/>
      <point x="164" y="130"/>
      <point x="129" y="83" type="curve" smooth="yes"/>
      <point x="123" y="75"/>
      <point x="119" y="69"/>
      <point x="118" y="66" type="curve" smooth="yes"/>
      <point x="113" y="42"/>
      <point x="161" y="33"/>
      <point x="189" y="33" type="curve"/>
      <point x="192" y="26"/>
      <point x="190" y="7"/>
      <point x="185" y="-4" type="curve"/>
      <point x="155" y="-2"/>
      <point x="97" y="2"/>
      <point x="63" y="2" type="curve" smooth="yes"/>
      <point x="15" y="2"/>
      <point x="-19" y="-2"/>
      <point x="-57" y="-4" type="curve"/>
      <point x="-60" y="2"/>
      <point x="-56" y="26"/>
      <point x="-50" y="33" type="curve"/>
      <point x="-43" y="33"/>
      <point x="22" y="35"/>
      <point x="60" y="79" type="curve" smooth="yes"/>
      <point x="273" y="322" type="line"/>
      <point x="185" y="537" type="line" smooth="yes"/>
      <point x="174" y="564"/>
      <point x="160" y="600"/>
      <point x="149" y="610" type="curve" smooth="yes"/>
      <point x="138" y="620"/>
      <point x="99" y="625"/>
      <point x="88" y="625" type="curve"/>
      <point x="83" y="625"/>
      <point x="89" y="657"/>
      <point x="95" y="662" type="curve"/>
      <point x="140" y="660"/>
      <point x="193" y="656"/>
    </contour>
  </outline>
</glyph>
<glyph name="Z" format="1">
  <advance width="608"/>
  <unicode hex="005A"/>
  <outline>
    <contour>
      <point x="291" y="610" type="line" smooth="yes"/>
      <point x="192" y="610"/>
      <point x="163" y="536"/>
      <point x="130" y="474" type="curve" smooth="yes"/>
      <point x="128" y="471"/>
      <point x="126" y="468"/>
      <point x="117" y="468" type="curve" smooth="yes"/>
      <point x="107" y="468"/>
      <point x="93" y="470"/>
      <point x="91" y="473" type="curve"/>
      <point x="113" y="531"/>
      <point x="139" y="598"/>
      <point x="161" y="662" type="curve"/>
      <point x="175" y="658"/>
      <point x="269" y="655"/>
      <point x="282" y="655" type="curve" smooth="yes"/>
      <point x="412" y="656" type="line" smooth="yes"/>
      <point x="490" y="657"/>
      <point x="551" y="660"/>
      <point x="630" y="666" type="curve"/>
      <point x="634" y="665"/>
      <point x="635" y="643"/>
      <point x="633" y="633" type="curve"/>
      <point x="630" y="625"/>
      <point x="157" y="47"/>
      <point x="157" y="47" type="curve"/>
      <point x="358" y="47" type="line" smooth="yes"/>
      <point x="393" y="47"/>
      <point x="427" y="59"/>
      <point x="453" y="82" type="curve" smooth="yes"/>
      <point x="477" y="103"/>
      <point x="494" y="125"/>
      <point x="519" y="170" type="curve" smooth="yes"/>
      <point x="521" y="174"/>
      <point x="526" y="176"/>
      <point x="533" y="176" type="curve" smooth="yes"/>
      <point x="542" y="176"/>
      <point x="558" y="173"/>
      <point x="560" y="170" type="curve"/>
      <point x="535" y="117"/>
      <point x="494" y="44"/>
      <point x="477" y="1" type="curve"/>
      <point x="438" y="1"/>
      <point x="-1" y="0"/>
      <point x="-1" y="0" type="curve"/>
      <point x="-13" y="0"/>
      <point x="-25" y="18"/>
      <point x="-21" y="22" type="curve" smooth="yes"/>
      <point x="462" y="610" type="line"/>
    </contour>
  </outline>
</glyph>
<glyph name="bracketright" format="1">
  <advance width="260"/>
  <unicode hex="005D"/>
  <outline>
    <contour>
      <point x="102" y="765" type="curve"/>
      <point x="137" y="762"/>
      <point x="210" y="756"/>
      <point x="267" y="756" type="curve" smooth="yes"/>
      <point x="275" y="756"/>
      <point x="278" y="749"/>
      <point x="277" y="745" type="curve" smooth="yes"/>
      <point x="276" y="738"/>
      <point x="112" y="-97"/>
      <point x="112" y="-97" type="curve" smooth="yes"/>
      <point x="111" y="-98"/>
      <point x="108" y="-105"/>
      <point x="100" y="-106" type="curve" smooth="yes"/>
      <point x="35" y="-112"/>
      <point x="-14" y="-121"/>
      <point x="-53" y="-133" type="curve"/>
      <point x="-55" y="-132"/>
      <point x="-60" y="-126"/>
      <point x="-60" y="-119" type="curve" smooth="yes"/>
      <point x="-60" y="-107"/>
      <point x="-43" y="-96"/>
      <point x="-33" y="-91" type="curve" smooth="yes"/>
      <point x="-9" y="-79"/>
      <point x="27" y="-64"/>
      <point x="54" y="-56" type="curve" smooth="yes"/>
      <point x="60" y="-54"/>
      <point x="62" y="-52"/>
      <point x="63" y="-48" type="curve" smooth="yes"/>
      <point x="210" y="697" type="line" smooth="yes"/>
      <point x="211" y="702"/>
      <point x="209" y="705"/>
      <point x="203" y="706" type="curve" smooth="yes"/>
      <point x="179" y="709"/>
      <point x="134" y="716"/>
      <point x="108" y="728" type="curve"/>
      <point x="97" y="734"/>
      <point x="93" y="746"/>
      <point x="93" y="755" type="curve" smooth="yes"/>
      <point x="93" y="763"/>
      <point x="101" y="765"/>
    </contour>
  </outline>
</glyph>
<glyph name="asciicircum" format="1">
  <advance width="323"/>
  <unicode hex="005E"/>
  <outline>
    <contour>
      <point x="20" y="499" type="curve"/>
      <point x="28" y="513"/>
      <point x="113" y="567"/>
      <point x="182" y="677" type="curve" smooth="yes"/>
      <point x="187" y="686"/>
      <point x="187" y="690"/>
      <point x="194" y="690" type="curve" smooth="yes"/>
      <point x="217" y="690"/>
      <point x="204" y="668"/>
      <point x="244" y="588" type="curve" smooth="yes"/>
      <point x="260" y="558"/>
      <point x="302" y="505"/>
      <point x="303" y="500" type="curve"/>
      <point x="302" y="496"/>
      <point x="292" y="469"/>
      <point x="285" y="469" type="curve" smooth="yes"/>
      <point x="270" y="469"/>
      <point x="211" y="525"/>
      <point x="177" y="582" type="curve"/>
      <point x="125" y="525"/>
      <point x="41" y="469"/>
      <point x="26" y="469" type="curve" smooth="yes"/>
      <point x="20" y="469"/>
      <point x="20" y="485"/>
    </contour>
  </outline>
</glyph>
<glyph name="b" format="1">
  <advance width="465"/>
  <unicode hex="0062"/>
  <outline>
    <contour>
      <point x="280" y="361" type="curve" smooth="yes"/>
      <point x="235" y="361"/>
      <point x="175" y="255"/>
      <point x="158" y="167" type="curve" smooth="yes"/>
      <point x="147" y="111"/>
      <point x="147" y="39"/>
      <point x="183" y="39" type="curve" smooth="yes"/>
      <point x="247" y="39"/>
      <point x="308" y="206"/>
      <point x="308" y="302" type="curve" smooth="yes"/>
      <point x="308" y="327"/>
      <point x="304" y="361"/>
    </contour>
    <contour>
      <point x="190" y="336" type="line"/>
      <point x="218" y="379"/>
      <point x="298" y="449"/>
      <point x="346" y="449" type="curve" smooth="yes"/>
      <point x="402" y="449"/>
      <point x="437" y="410"/>
      <point x="437" y="337" type="curve" smooth="yes"/>
      <point x="437" y="149"/>
      <point x="265" y="-6"/>
      <point x="151" y="-6" type="curve" smooth="yes"/>
      <point x="88" y="-6"/>
      <point x="35" y="38"/>
      <point x="35" y="107" type="curve" smooth="yes"/>
      <point x="35" y="120"/>
      <point x="38" y="148"/>
      <point x="41" y="162" type="curve" smooth="yes"/>
      <point x="119" y="560" type="line" smooth="yes"/>
      <point x="123" y="578"/>
      <point x="128" y="602"/>
      <point x="128" y="613" type="curve" smooth="yes"/>
      <point x="128" y="632"/>
      <point x="83" y="632"/>
      <point x="67" y="632" type="curve"/>
      <point x="64" y="636"/>
      <point x="67" y="657"/>
      <point x="71" y="661" type="curve"/>
      <point x="126" y="666"/>
      <point x="229" y="688"/>
      <point x="251" y="696" type="curve"/>
      <point x="256" y="693"/>
      <point x="257" y="683"/>
      <point x="257" y="677" type="curve" smooth="yes"/>
      <point x="257" y="669"/>
      <point x="249" y="626"/>
      <point x="244" y="602" type="curve" smooth="yes"/>
    </contour>
  </outline>
</glyph>
<glyph name="d" format="1">
  <advance width="487"/>
  <unicode hex="0064"/>
  <outline>
    <contour>
      <point x="287" y="353" type="curve" smooth="yes"/>
      <point x="287" y="383"/>
      <point x="278" y="394"/>
      <point x="261" y="394" type="curve" smooth="yes"/>
      <point x="193" y="394"/>
      <point x="136" y="270"/>
      <point x="136" y="152" type="curve" smooth="yes"/>
      <point x="136" y="104"/>
      <point x="150" y="81"/>
      <point x="172" y="81" type="curve" smooth="yes"/>
      <point x="206" y="81"/>
      <point x="264" y="201"/>
      <point x="276" y="281" type="curve" smooth="yes"/>
      <point x="276" y="281"/>
      <point x="287" y="340"/>
    </contour>
    <contour>
      <point x="332" y="560" type="line" smooth="yes"/>
      <point x="335" y="578"/>
      <point x="341" y="602"/>
      <point x="341" y="613" type="curve" smooth="yes"/>
      <point x="341" y="632"/>
      <point x="296" y="632"/>
      <point x="280" y="632" type="curve"/>
      <point x="277" y="636"/>
      <point x="280" y="657"/>
      <point x="284" y="661" type="curve"/>
      <point x="339" y="666"/>
      <point x="442" y="688"/>
      <point x="464" y="696" type="curve"/>
      <point x="469" y="693"/>
      <point x="470" y="683"/>
      <point x="470" y="677" type="curve" smooth="yes"/>
      <point x="470" y="669"/>
      <point x="462" y="626"/>
      <point x="457" y="602" type="curve" smooth="yes"/>
      <point x="362" y="132" type="line" smooth="yes"/>
      <point x="361" y="128"/>
      <point x="358" y="104"/>
      <point x="358" y="99" type="curve" smooth="yes"/>
      <point x="358" y="90"/>
      <point x="362" y="78"/>
      <point x="372" y="78" type="curve" smooth="yes"/>
      <point x="394" y="78"/>
      <point x="440" y="133"/>
      <point x="443" y="139" type="curve"/>
      <point x="450" y="139"/>
      <point x="457" y="118"/>
      <point x="457" y="112" type="curve"/>
      <point x="440" y="80"/>
      <point x="352" y="-8"/>
      <point x="298" y="-8" type="curve" smooth="yes"/>
      <point x="276" y="-8"/>
      <point x="259" y="0"/>
      <point x="248" y="16" type="curve" smooth="yes"/>
      <point x="242" y="25"/>
      <point x="236" y="36"/>
      <point x="236" y="58" type="curve" smooth="yes"/>
      <point x="236" y="66"/>
      <point x="240" y="88"/>
      <point x="242" y="96" type="curve"/>
      <point x="221" y="59"/>
      <point x="156" y="-7"/>
      <point x="96" y="-7" type="curve" smooth="yes"/>
      <point x="40" y="-7"/>
      <point x="10" y="47"/>
      <point x="10" y="115" type="curve" smooth="yes"/>
      <point x="10" y="282"/>
      <point x="169" y="429"/>
      <point x="293" y="448" type="curve" smooth="yes"/>
      <point x="299" y="449"/>
      <point x="304" y="449"/>
      <point x="310" y="449" type="curve"/>
    </contour>
  </outline>
</glyph>
<glyph name="e" format="1">
  <advance width="394"/>
  <unicode hex="0065"/>
  <outline>
    <contour>
      <point x="268" y="449" type="curve" smooth="yes"/>
      <point x="319" y="449"/>
      <point x="379" y="427"/>
      <point x="379" y="357" type="curve" smooth="yes"/>
      <point x="379" y="254"/>
      <point x="204" y="188"/>
      <point x="142" y="188" type="curve"/>
      <point x="141" y="185"/>
      <point x="140" y="168"/>
      <point x="140" y="163" type="curve" smooth="yes"/>
      <point x="140" y="126"/>
      <point x="151" y="77"/>
      <point x="201" y="77" type="curve" smooth="yes"/>
      <point x="246" y="77"/>
      <point x="299" y="139"/>
      <point x="302" y="142" type="curve"/>
      <point x="311" y="142"/>
      <point x="317" y="118"/>
      <point x="317" y="112" type="curve"/>
      <point x="304" y="90"/>
      <point x="194" y="-6"/>
      <point x="131" y="-6" type="curve" smooth="yes"/>
      <point x="60" y="-6"/>
      <point x="16" y="47"/>
      <point x="16" y="140" type="curve" smooth="yes"/>
      <point x="16" y="288"/>
      <point x="153" y="449"/>
    </contour>
    <contour>
      <point x="145" y="226" type="curve"/>
      <point x="184" y="226"/>
      <point x="260" y="299"/>
      <point x="260" y="373" type="curve" smooth="yes"/>
      <point x="260" y="391"/>
      <point x="256" y="412"/>
      <point x="234" y="412" type="curve" smooth="yes"/>
      <point x="186" y="412"/>
      <point x="150" y="277"/>
    </contour>
  </outline>
</glyph>
<glyph name="g" format="1">
  <advance width="444"/>
  <unicode hex="0067"/>
  <outline>
    <contour>
      <point x="274" y="-113" type="curve" smooth="yes"/>
      <point x="274" y="-72"/>
      <point x="174" y="-32"/>
      <point x="115" y="-14" type="curve"/>
      <point x="79" y="-33"/>
      <point x="59" y="-53"/>
      <point x="59" y="-84" type="curve" smooth="yes"/>
      <point x="59" y="-149"/>
      <point x="112" y="-178"/>
      <point x="172" y="-178" type="curve" smooth="yes"/>
      <point x="211" y="-178"/>
      <point x="274" y="-157"/>
    </contour>
    <contour>
      <point x="235" y="419" type="curve" smooth="yes"/>
      <point x="186" y="421"/>
      <point x="158" y="344"/>
      <point x="155" y="277" type="curve" smooth="yes"/>
      <point x="153" y="230"/>
      <point x="162" y="180"/>
      <point x="199" y="178" type="curve" smooth="yes"/>
      <point x="243" y="176"/>
      <point x="278" y="242"/>
      <point x="280" y="302" type="curve" smooth="yes"/>
      <point x="282" y="349"/>
      <point x="274" y="417"/>
    </contour>
    <contour>
      <point x="364" y="394" type="curve"/>
      <point x="368" y="388"/>
      <point x="392" y="360"/>
      <point x="392" y="309" type="curve" smooth="yes"/>
      <point x="392" y="215"/>
      <point x="302" y="159"/>
      <point x="254" y="140" type="curve" smooth="yes"/>
      <point x="226" y="129"/>
      <point x="188" y="126"/>
      <point x="188" y="105" type="curve" smooth="yes"/>
      <point x="188" y="75"/>
      <point x="378" y="60"/>
      <point x="378" y="-40" type="curve" smooth="yes"/>
      <point x="378" y="-135"/>
      <point x="267" y="-226"/>
      <point x="121" y="-226" type="curve" smooth="yes"/>
      <point x="11" y="-226"/>
      <point x="-57" y="-174"/>
      <point x="-57" y="-110" type="curve" smooth="yes"/>
      <point x="-57" y="-39"/>
      <point x="31" y="-13"/>
      <point x="79" y="4" type="curve"/>
      <point x="79" y="4"/>
      <point x="41" y="21"/>
      <point x="34" y="28" type="curve" smooth="yes"/>
      <point x="26" y="36"/>
      <point x="19" y="37"/>
      <point x="19" y="56" type="curve" smooth="yes"/>
      <point x="19" y="81"/>
      <point x="116" y="133"/>
      <point x="164" y="144" type="curve"/>
      <point x="102" y="160"/>
      <point x="41" y="198"/>
      <point x="41" y="277" type="curve" smooth="yes"/>
      <point x="41" y="376"/>
      <point x="125" y="458"/>
      <point x="223" y="458" type="curve"/>
      <point x="262" y="458"/>
      <point x="293" y="445"/>
      <point x="318" y="434" type="curve" smooth="yes"/>
      <point x="327" y="430"/>
      <point x="391" y="447"/>
      <point x="404" y="449" type="curve"/>
      <point x="417" y="445"/>
      <point x="455" y="424"/>
      <point x="455" y="412" type="curve" smooth="yes"/>
      <point x="455" y="405"/>
      <point x="447" y="394"/>
      <point x="439" y="394" type="curve" smooth="yes"/>
      <point x="425" y="394"/>
      <point x="377" y="394"/>
    </contour>
  </outline>
</glyph>
<glyph name="m" format="1">
  <advance width="755"/>
  <unicode hex="006D"/>
  <outline>
    <contour>
      <point x="517" y="123" type="curve" smooth="yes"/>
      <point x="527" y="168"/>
      <point x="543" y="242"/>
      <point x="543" y="242" type="curve" smooth="yes"/>
      <point x="546" y="254"/>
      <point x="555" y="308"/>
      <point x="555" y="318" type="curve" smooth="yes"/>
      <point x="555" y="328"/>
      <point x="550" y="339"/>
      <point x="539" y="339" type="curve" smooth="yes"/>
      <point x="510" y="339"/>
      <point x="432" y="218"/>
      <point x="404" y="91" type="curve"/>
      <point x="384" y="0" type="line"/>
      <point x="374" y="-3"/>
      <point x="339" y="-6"/>
      <point x="328" y="-6" type="curve" smooth="yes"/>
      <point x="317" y="-6"/>
      <point x="281" y="-3"/>
      <point x="269" y="0" type="curve"/>
      <point x="321" y="242" type="line" smooth="yes"/>
      <point x="324" y="254"/>
      <point x="333" y="308"/>
      <point x="333" y="318" type="curve" smooth="yes"/>
      <point x="333" y="328"/>
      <point x="328" y="339"/>
      <point x="317" y="339" type="curve" smooth="yes"/>
      <point x="288" y="339"/>
      <point x="210" y="218"/>
      <point x="182" y="91" type="curve" smooth="yes"/>
      <point x="162" y="0" type="line"/>
      <point x="152" y="-3"/>
      <point x="117" y="-6"/>
      <point x="106" y="-6" type="curve" smooth="yes"/>
      <point x="95" y="-6"/>
      <point x="59" y="-3"/>
      <point x="47" y="0" type="curve"/>
      <point x="106" y="309" type="line" smooth="yes"/>
      <point x="107" y="313"/>
      <point x="111" y="337"/>
      <point x="111" y="342" type="curve" smooth="yes"/>
      <point x="111" y="351"/>
      <point x="106" y="363"/>
      <point x="96" y="363" type="curve" smooth="yes"/>
      <point x="74" y="363"/>
      <point x="28" y="308"/>
      <point x="25" y="302" type="curve"/>
      <point x="18" y="302"/>
      <point x="11" y="323"/>
      <point x="11" y="329" type="curve"/>
      <point x="28" y="361"/>
      <point x="112" y="449"/>
      <point x="166" y="449" type="curve" smooth="yes"/>
      <point x="206" y="449"/>
      <point x="233" y="424"/>
      <point x="233" y="378" type="curve" smooth="yes"/>
      <point x="233" y="364"/>
      <point x="226" y="328"/>
      <point x="224" y="318" type="curve" smooth="yes"/>
      <point x="222" y="306"/>
      <point x="214" y="274"/>
      <point x="214" y="274" type="curve"/>
      <point x="244" y="342"/>
      <point x="333" y="449"/>
      <point x="383" y="449" type="curve" smooth="yes"/>
      <point x="439" y="449"/>
      <point x="455" y="419"/>
      <point x="455" y="362" type="curve" smooth="yes"/>
      <point x="455" y="346"/>
      <point x="452" y="321"/>
      <point x="448" y="297" type="curve"/>
      <point x="485" y="364"/>
      <point x="560" y="449"/>
      <point x="605" y="449" type="curve" smooth="yes"/>
      <point x="661" y="449"/>
      <point x="677" y="419"/>
      <point x="677" y="362" type="curve" smooth="yes"/>
      <point x="677" y="325"/>
      <point x="662" y="260"/>
      <point x="657" y="233" type="curve" smooth="yes"/>
      <point x="652" y="208"/>
      <point x="640" y="160"/>
      <point x="635" y="132" type="curve" smooth="yes"/>
      <point x="633" y="122"/>
      <point x="631" y="104"/>
      <point x="631" y="99" type="curve" smooth="yes"/>
      <point x="631" y="90"/>
      <point x="635" y="78"/>
      <point x="645" y="78" type="curve" smooth="yes"/>
      <point x="667" y="78"/>
      <point x="713" y="133"/>
      <point x="716" y="139" type="curve"/>
      <point x="723" y="139"/>
      <point x="730" y="118"/>
      <point x="730" y="112" type="curve"/>
      <point x="713" y="80"/>
      <point x="625" y="-8"/>
      <point x="571" y="-8" type="curve" smooth="yes"/>
      <point x="538" y="-8"/>
      <point x="508" y="12"/>
      <point x="508" y="63" type="curve" smooth="yes"/>
      <point x="508" y="77"/>
      <point x="515" y="115"/>
    </contour>
  </outline>
</glyph>
<glyph name="n" format="1">
  <advance width="536"/>
  <unicode hex="006E"/>
  <outline>
    <contour>
      <point x="224" y="318" type="curve" smooth="yes"/>
      <point x="222" y="306"/>
      <point x="214" y="273"/>
      <point x="214" y="274" type="curve"/>
      <point x="244" y="342"/>
      <point x="333" y="449"/>
      <point x="383" y="449" type="curve" smooth="yes"/>
      <point x="439" y="449"/>
      <point x="455" y="419"/>
      <point x="455" y="362" type="curve" smooth="yes"/>
      <point x="455" y="328"/>
      <point x="440" y="259"/>
      <point x="435" y="233" type="curve" smooth="yes"/>
      <point x="416" y="132" type="line" smooth="yes"/>
      <point x="415" y="128"/>
      <point x="412" y="104"/>
      <point x="412" y="99" type="curve" smooth="yes"/>
      <point x="412" y="90"/>
      <point x="416" y="78"/>
      <point x="426" y="78" type="curve" smooth="yes"/>
      <point x="448" y="78"/>
      <point x="494" y="133"/>
      <point x="497" y="139" type="curve"/>
      <point x="504" y="139"/>
      <point x="511" y="118"/>
      <point x="511" y="112" type="curve"/>
      <point x="494" y="80"/>
      <point x="406" y="-8"/>
      <point x="352" y="-8" type="curve" smooth="yes"/>
      <point x="319" y="-8"/>
      <point x="289" y="12"/>
      <point x="289" y="63" type="curve" smooth="yes"/>
      <point x="289" y="77"/>
      <point x="296" y="115"/>
      <point x="298" y="123" type="curve"/>
      <point x="321" y="242" type="line" smooth="yes"/>
      <point x="324" y="254"/>
      <point x="333" y="308"/>
      <point x="333" y="318" type="curve" smooth="yes"/>
      <point x="333" y="328"/>
      <point x="328" y="339"/>
      <point x="317" y="339" type="curve" smooth="yes"/>
      <point x="288" y="339"/>
      <point x="210" y="218"/>
      <point x="182" y="91" type="curve" smooth="yes"/>
      <point x="162" y="0" type="line"/>
      <point x="152" y="-3"/>
      <point x="117" y="-6"/>
      <point x="106" y="-6" type="curve" smooth="yes"/>
      <point x="95" y="-6"/>
      <point x="59" y="-3"/>
      <point x="47" y="0" type="curve"/>
      <point x="106" y="309" type="line" smooth="yes"/>
      <point x="107" y="313"/>
      <point x="111" y="337"/>
      <point x="111" y="342" type="curve" smooth="yes"/>
      <point x="111" y="351"/>
      <point x="106" y="363"/>
      <point x="96" y="363" type="curve" smooth="yes"/>
      <point x="74" y="363"/>
      <point x="28" y="308"/>
      <point x="25" y="302" type="curve"/>
      <point x="18" y="302"/>
      <point x="11" y="323"/>
      <point x="11" y="329" type="curve"/>
      <point x="28" y="361"/>
      <point x="112" y="449"/>
      <point x="166" y="449" type="curve" smooth="yes"/>
      <point x="206" y="449"/>
      <point x="233" y="424"/>
      <point x="233" y="378" type="curve" smooth="yes"/>
      <point x="233" y="364"/>
      <point x="226" y="328"/>
    </contour>
  </outline>
</glyph>
<glyph name="p" format="1">
  <advance width="496"/>
  <unicode hex="0070"/>
  <outline>
    <contour>
      <point x="301" y="365" type="curve" smooth="yes"/>
      <point x="271" y="365"/>
      <point x="241" y="345"/>
      <point x="219" y="323" type="curve"/>
      <point x="214" y="296"/>
      <point x="184" y="149"/>
      <point x="184" y="149" type="curve" smooth="yes"/>
      <point x="169" y="72"/>
      <point x="181" y="39"/>
      <point x="207" y="39" type="curve" smooth="yes"/>
      <point x="278" y="39"/>
      <point x="340" y="215"/>
      <point x="340" y="299" type="curve" smooth="yes"/>
      <point x="340" y="332"/>
      <point x="333" y="365"/>
    </contour>
    <contour>
      <point x="371" y="449" type="curve" smooth="yes"/>
      <point x="435" y="449"/>
      <point x="469" y="398"/>
      <point x="469" y="328" type="curve" smooth="yes"/>
      <point x="469" y="160"/>
      <point x="301" y="-5"/>
      <point x="179" y="-5" type="curve" smooth="yes"/>
      <point x="173" y="-5"/>
      <point x="161" y="-4"/>
      <point x="152" y="0" type="curve"/>
      <point x="126" y="-126" type="line" smooth="yes"/>
      <point x="124" y="-135"/>
      <point x="123" y="-144"/>
      <point x="123" y="-154" type="curve" smooth="yes"/>
      <point x="123" y="-159"/>
      <point x="127" y="-174"/>
      <point x="137" y="-177" type="curve" smooth="yes"/>
      <point x="154" y="-181"/>
      <point x="181" y="-180"/>
      <point x="184" y="-180" type="curve" smooth="yes"/>
      <point x="188" y="-181"/>
      <point x="185" y="-209"/>
      <point x="180" y="-211" type="curve"/>
      <point x="167" y="-211"/>
      <point x="156" y="-210"/>
      <point x="145" y="-210" type="curve" smooth="yes"/>
      <point x="94" y="-210"/>
      <point x="6" y="-212"/>
      <point x="-52" y="-219" type="curve"/>
      <point x="-57" y="-218"/>
      <point x="-55" y="-190"/>
      <point x="-50" y="-187" type="curve"/>
      <point x="-32" y="-187"/>
      <point x="-19" y="-182"/>
      <point x="-10" y="-171" type="curve" smooth="yes"/>
      <point x="-3" y="-162"/>
      <point x="1" y="-151"/>
      <point x="6" y="-128" type="curve" smooth="yes"/>
      <point x="81" y="232" type="line"/>
      <point x="33" y="184" type="line"/>
      <point x="29" y="189"/>
      <point x="26" y="204"/>
      <point x="26" y="211" type="curve" smooth="yes"/>
      <point x="26" y="222"/>
      <point x="35" y="234"/>
      <point x="41" y="239" type="curve" smooth="yes"/>
      <point x="92" y="287" type="line"/>
      <point x="122" y="444" type="line"/>
      <point x="133" y="447"/>
      <point x="172" y="449"/>
      <point x="183" y="449" type="curve" smooth="yes"/>
      <point x="194" y="449"/>
      <point x="231" y="446"/>
      <point x="241" y="441" type="curve"/>
      <point x="238" y="423"/>
      <point x="229" y="382"/>
      <point x="227" y="373" type="curve"/>
      <point x="255" y="404"/>
      <point x="320" y="449"/>
    </contour>
  </outline>
</glyph>
<glyph name="q" format="1">
  <advance width="454"/>
  <unicode hex="0071"/>
  <outline>
    <contour>
      <point x="357" y="-211" type="curve"/>
      <point x="343" y="-211"/>
      <point x="289" y="-210"/>
      <point x="276" y="-210" type="curve" smooth="yes"/>
      <point x="218" y="-210"/>
      <point x="161" y="-216"/>
      <point x="124" y="-220" type="curve"/>
      <point x="122" y="-218"/>
      <point x="122" y="-188"/>
      <point x="128" y="-188" type="curve" smooth="yes"/>
      <point x="157" y="-185"/>
      <point x="185" y="-172"/>
      <point x="190" y="-146" type="curve" smooth="yes"/>
      <point x="234" y="84" type="line"/>
      <point x="212" y="49"/>
      <point x="153" y="-7"/>
      <point x="95" y="-7" type="curve" smooth="yes"/>
      <point x="36" y="-7"/>
      <point x="11" y="56"/>
      <point x="11" y="114" type="curve" smooth="yes"/>
      <point x="11" y="276"/>
      <point x="173" y="449"/>
      <point x="322" y="449" type="curve" smooth="yes"/>
      <point x="357" y="449"/>
      <point x="393" y="443"/>
      <point x="419" y="427" type="curve"/>
      <point x="364" y="139" type="line" smooth="yes"/>
      <point x="363" y="135"/>
      <point x="312" y="-133"/>
      <point x="312" y="-133" type="curve" smooth="yes"/>
      <point x="311" y="-140"/>
      <point x="310" y="-148"/>
      <point x="310" y="-154" type="curve" smooth="yes"/>
      <point x="310" y="-170"/>
      <point x="317" y="-181"/>
      <point x="361" y="-181" type="curve" smooth="yes"/>
      <point x="365" y="-181"/>
      <point x="362" y="-208"/>
    </contour>
    <contour>
      <point x="287" y="341" type="curve" smooth="yes"/>
      <point x="290" y="358"/>
      <point x="289" y="394"/>
      <point x="262" y="394" type="curve" smooth="yes"/>
      <point x="195" y="394"/>
      <point x="137" y="272"/>
      <point x="137" y="157" type="curve" smooth="yes"/>
      <point x="137" y="102"/>
      <point x="154" y="81"/>
      <point x="171" y="81" type="curve" smooth="yes"/>
      <point x="206" y="81"/>
      <point x="259" y="186"/>
      <point x="276" y="275" type="curve" smooth="yes"/>
      <point x="281" y="302"/>
      <point x="283" y="314"/>
    </contour>
  </outline>
</glyph>
<glyph name="r" format="1">
  <advance width="432"/>
  <unicode hex="0072"/>
  <outline>
    <contour>
      <point x="375" y="449" type="curve" smooth="yes"/>
      <point x="404" y="449"/>
      <point x="413" y="445"/>
      <point x="430" y="436" type="curve"/>
      <point x="438" y="426"/>
      <point x="446" y="411"/>
      <point x="446" y="392" type="curve" smooth="yes"/>
      <point x="446" y="344"/>
      <point x="415" y="320"/>
      <point x="388" y="320" type="curve" smooth="yes"/>
      <point x="368" y="320"/>
      <point x="354" y="332"/>
      <point x="342" y="338" type="curve" smooth="yes"/>
      <point x="332" y="343"/>
      <point x="331" y="346"/>
      <point x="315" y="346" type="curve" smooth="yes"/>
      <point x="286" y="346"/>
      <point x="210" y="218"/>
      <point x="182" y="91" type="curve" smooth="yes"/>
      <point x="162" y="0" type="line"/>
      <point x="152" y="-3"/>
      <point x="117" y="-6"/>
      <point x="106" y="-6" type="curve" smooth="yes"/>
      <point x="95" y="-6"/>
      <point x="59" y="-3"/>
      <point x="47" y="0" type="curve"/>
      <point x="106" y="309" type="line" smooth="yes"/>
      <point x="107" y="313"/>
      <point x="111" y="337"/>
      <point x="111" y="342" type="curve" smooth="yes"/>
      <point x="111" y="351"/>
      <point x="106" y="363"/>
      <point x="96" y="363" type="curve" smooth="yes"/>
      <point x="74" y="363"/>
      <point x="28" y="308"/>
      <point x="25" y="302" type="curve"/>
      <point x="18" y="302"/>
      <point x="11" y="323"/>
      <point x="11" y="329" type="curve"/>
      <point x="28" y="361"/>
      <point x="112" y="449"/>
      <point x="166" y="449" type="curve" smooth="yes"/>
      <point x="206" y="449"/>
      <point x="233" y="424"/>
      <point x="233" y="378" type="curve" smooth="yes"/>
      <point x="233" y="364"/>
      <point x="226" y="328"/>
      <point x="224" y="318" type="curve" smooth="yes"/>
      <point x="222" y="306"/>
      <point x="210" y="253"/>
      <point x="210" y="254" type="curve"/>
      <point x="235" y="346"/>
      <point x="321" y="449"/>
    </contour>
  </outline>
</glyph>
<glyph name="s" format="1">
  <advance width="366"/>
  <unicode hex="0073"/>
  <outline>
    <contour>
      <point x="223" y="449" type="curve" smooth="yes"/>
      <point x="276" y="449"/>
      <point x="311" y="435"/>
      <point x="333" y="418" type="curve"/>
      <point x="342" y="408"/>
      <point x="344" y="386"/>
      <point x="344" y="378" type="curve" smooth="yes"/>
      <point x="344" y="356"/>
      <point x="326" y="327"/>
      <point x="294" y="327" type="curve" smooth="yes"/>
      <point x="269" y="327"/>
      <point x="248" y="354"/>
      <point x="235" y="373" type="curve" smooth="yes"/>
      <point x="222" y="393"/>
      <point x="210" y="410"/>
      <point x="186" y="410" type="curve" smooth="yes"/>
      <point x="164" y="410"/>
      <point x="146" y="391"/>
      <point x="146" y="364" type="curve" smooth="yes"/>
      <point x="146" y="327"/>
      <point x="206" y="287"/>
      <point x="243" y="251" type="curve" smooth="yes"/>
      <point x="267" y="228"/>
      <point x="299" y="199"/>
      <point x="299" y="137" type="curve" smooth="yes"/>
      <point x="299" y="48"/>
      <point x="213" y="-7"/>
      <point x="116" y="-7" type="curve" smooth="yes"/>
      <point x="76" y="-7"/>
      <point x="33" y="7"/>
      <point x="11" y="24" type="curve"/>
      <point x="2" y="35"/>
      <point x="-1" y="51"/>
      <point x="-1" y="62" type="curve" smooth="yes"/>
      <point x="-1" y="88"/>
      <point x="18" y="116"/>
      <point x="47" y="116" type="curve" smooth="yes"/>
      <point x="72" y="116"/>
      <point x="88" y="98"/>
      <point x="107" y="71" type="curve" smooth="yes"/>
      <point x="124" y="47"/>
      <point x="136" y="33"/>
      <point x="161" y="33" type="curve" smooth="yes"/>
      <point x="183" y="33"/>
      <point x="206" y="58"/>
      <point x="206" y="76" type="curve" smooth="yes"/>
      <point x="206" y="120"/>
      <point x="141" y="160"/>
      <point x="103" y="202" type="curve" smooth="yes"/>
      <point x="78" y="230"/>
      <point x="54" y="250"/>
      <point x="54" y="310" type="curve" smooth="yes"/>
      <point x="54" y="390"/>
      <point x="126" y="449"/>
    </contour>
  </outline>
</glyph>
<glyph name="u" format="1">
  <advance width="533"/>
  <unicode hex="0075"/>
  <outline>
    <contour>
      <point x="289" y="113" type="curve" smooth="yes"/>
      <point x="293" y="134"/>
      <point x="298" y="155"/>
      <point x="301" y="166" type="curve"/>
      <point x="263" y="85"/>
      <point x="169" y="-8"/>
      <point x="126" y="-8" type="curve" smooth="yes"/>
      <point x="75" y="-8"/>
      <point x="63" y="17"/>
      <point x="63" y="78" type="curve" smooth="yes"/>
      <point x="63" y="110"/>
      <point x="77" y="178"/>
      <point x="82" y="204" type="curve" smooth="yes"/>
      <point x="90" y="245"/>
      <point x="96" y="268"/>
      <point x="102" y="309" type="curve" smooth="yes"/>
      <point x="103" y="313"/>
      <point x="107" y="337"/>
      <point x="107" y="342" type="curve" smooth="yes"/>
      <point x="107" y="351"/>
      <point x="102" y="363"/>
      <point x="92" y="363" type="curve" smooth="yes"/>
      <point x="70" y="363"/>
      <point x="24" y="308"/>
      <point x="21" y="302" type="curve"/>
      <point x="14" y="302"/>
      <point x="7" y="323"/>
      <point x="7" y="329" type="curve"/>
      <point x="24" y="361"/>
      <point x="108" y="449"/>
      <point x="162" y="449" type="curve" smooth="yes"/>
      <point x="202" y="449"/>
      <point x="229" y="424"/>
      <point x="229" y="378" type="curve" smooth="yes"/>
      <point x="229" y="364"/>
      <point x="222" y="328"/>
      <point x="220" y="318" type="curve" smooth="yes"/>
      <point x="218" y="306"/>
      <point x="197" y="199"/>
      <point x="197" y="199" type="curve" smooth="yes"/>
      <point x="195" y="187"/>
      <point x="185" y="133"/>
      <point x="185" y="123" type="curve" smooth="yes"/>
      <point x="185" y="113"/>
      <point x="190" y="102"/>
      <point x="201" y="102" type="curve" smooth="yes"/>
      <point x="230" y="102"/>
      <point x="313" y="249"/>
      <point x="338" y="372" type="curve" smooth="yes"/>
      <point x="352" y="441" type="line"/>
      <point x="362" y="444"/>
      <point x="397" y="447"/>
      <point x="408" y="447" type="curve" smooth="yes"/>
      <point x="419" y="447"/>
      <point x="455" y="444"/>
      <point x="467" y="441" type="curve"/>
      <point x="409" y="132" type="line" smooth="yes"/>
      <point x="408" y="127"/>
      <point x="405" y="104"/>
      <point x="405" y="99" type="curve" smooth="yes"/>
      <point x="405" y="90"/>
      <point x="409" y="78"/>
      <point x="419" y="78" type="curve" smooth="yes"/>
      <point x="441" y="78"/>
      <point x="487" y="133"/>
      <point x="490" y="139" type="curve"/>
      <point x="497" y="139"/>
      <point x="504" y="118"/>
      <point x="504" y="112" type="curve"/>
      <point x="487" y="80"/>
      <point x="399" y="-8"/>
      <point x="345" y="-8" type="curve" smooth="yes"/>
      <point x="312" y="-8"/>
      <point x="282" y="12"/>
      <point x="282" y="63" type="curve" smooth="yes"/>
      <point x="282" y="70"/>
      <point x="285" y="91"/>
    </contour>
  </outline>
</glyph>
<glyph name="v" format="1">
  <advance width="465"/>
  <unicode hex="0076"/>
  <outline>
    <contour>
      <point x="236" y="112" type="curve"/>
      <point x="268" y="135"/>
      <point x="302" y="170"/>
      <point x="324" y="211" type="curve" smooth="yes"/>
      <point x="346" y="253"/>
      <point x="348" y="286"/>
      <point x="348" y="307" type="curve" smooth="yes"/>
      <point x="348" y="332"/>
      <point x="331" y="364"/>
      <point x="306" y="384" type="curve"/>
      <point x="306" y="421"/>
      <point x="348" y="449"/>
      <point x="372" y="449" type="curve" smooth="yes"/>
      <point x="410" y="449"/>
      <point x="450" y="425"/>
      <point x="450" y="357" type="curve" smooth="yes"/>
      <point x="450" y="230"/>
      <point x="192" y="-5"/>
      <point x="129" y="-5" type="curve"/>
      <point x="107" y="45"/>
      <point x="92" y="168"/>
      <point x="92" y="290" type="curve" smooth="yes"/>
      <point x="92" y="334" type="line" smooth="yes"/>
      <point x="92" y="343"/>
      <point x="91" y="356"/>
      <point x="81" y="356" type="curve" smooth="yes"/>
      <point x="66" y="356"/>
      <point x="26" y="308"/>
      <point x="23" y="302" type="curve"/>
      <point x="16" y="302"/>
      <point x="9" y="323"/>
      <point x="9" y="329" type="curve"/>
      <point x="27" y="362"/>
      <point x="110" y="449"/>
      <point x="164" y="449" type="curve" smooth="yes"/>
      <point x="207" y="449"/>
      <point x="214" y="423"/>
      <point x="214" y="393" type="curve" smooth="yes"/>
      <point x="214" y="393"/>
      <point x="214" y="373"/>
      <point x="214" y="361" type="curve" smooth="yes"/>
      <point x="214" y="341" type="line" smooth="yes"/>
      <point x="214" y="231"/>
      <point x="228" y="122"/>
    </contour>
  </outline>
</glyph>
<glyph name="x" format="1">
  <advance width="511"/>
  <unicode hex="0078"/>
  <outline>
    <contour>
      <point x="204" y="449" type="curve" smooth="yes"/>
      <point x="232" y="449"/>
      <point x="246" y="422"/>
      <point x="254" y="393" type="curve" smooth="yes"/>
      <point x="281" y="297" type="line"/>
      <point x="321" y="375" type="line"/>
      <point x="346" y="421"/>
      <point x="377" y="449"/>
      <point x="417" y="449" type="curve" smooth="yes"/>
      <point x="442" y="449"/>
      <point x="476" y="440"/>
      <point x="489" y="428" type="curve"/>
      <point x="494" y="419"/>
      <point x="501" y="396"/>
      <point x="501" y="380" type="curve" smooth="yes"/>
      <point x="501" y="353"/>
      <point x="482" y="319"/>
      <point x="446" y="319" type="curve" smooth="yes"/>
      <point x="422" y="319"/>
      <point x="408" y="337"/>
      <point x="401" y="348" type="curve" smooth="yes"/>
      <point x="395" y="358"/>
      <point x="386" y="373"/>
      <point x="379" y="373" type="curve" smooth="yes"/>
      <point x="368" y="373"/>
      <point x="359" y="360"/>
      <point x="347" y="340" type="curve" smooth="yes"/>
      <point x="295" y="251" type="line"/>
      <point x="335" y="118" type="line" smooth="yes"/>
      <point x="341" y="99"/>
      <point x="349" y="78"/>
      <point x="366" y="78" type="curve" smooth="yes"/>
      <point x="388" y="78"/>
      <point x="434" y="133"/>
      <point x="437" y="139" type="curve"/>
      <point x="444" y="139"/>
      <point x="451" y="118"/>
      <point x="451" y="112" type="curve"/>
      <point x="434" y="80"/>
      <point x="345" y="-8"/>
      <point x="291" y="-8" type="curve" smooth="yes"/>
      <point x="256" y="-8"/>
      <point x="241" y="24"/>
      <point x="229" y="58" type="curve" smooth="yes"/>
      <point x="229" y="60"/>
      <point x="219" y="96"/>
      <point x="205" y="143" type="curve"/>
      <point x="166" y="67" type="line"/>
      <point x="141" y="21"/>
      <point x="110" y="-7"/>
      <point x="70" y="-7" type="curve" smooth="yes"/>
      <point x="38" y="-7"/>
      <point x="19" y="0"/>
      <point x="3" y="11" type="curve"/>
      <point x="-4" y="17"/>
      <point x="-12" y="37"/>
      <point x="-12" y="59" type="curve" smooth="yes"/>
      <point x="-12" y="86"/>
      <point x="5" y="123"/>
      <point x="41" y="123" type="curve" smooth="yes"/>
      <point x="65" y="123"/>
      <point x="79" y="105"/>
      <point x="86" y="94" type="curve" smooth="yes"/>
      <point x="92" y="85"/>
      <point x="101" y="69"/>
      <point x="108" y="69" type="curve" smooth="yes"/>
      <point x="118" y="69"/>
      <point x="128" y="75"/>
      <point x="144" y="104" type="curve" smooth="yes"/>
      <point x="191" y="189" type="line"/>
      <point x="154" y="315" type="line" smooth="yes"/>
      <point x="151" y="324"/>
      <point x="141" y="356"/>
      <point x="121" y="356" type="curve" smooth="yes"/>
      <point x="106" y="356"/>
      <point x="66" y="308"/>
      <point x="63" y="302" type="curve"/>
      <point x="56" y="302"/>
      <point x="49" y="323"/>
      <point x="49" y="329" type="curve"/>
      <point x="67" y="362"/>
      <point x="150" y="449"/>
    </contour>
  </outline>
</glyph>
<glyph name="z" format="1">
  <advance width="441"/>
  <unicode hex="007A"/>
  <outline>
    <contour>
      <point x="170" y="450" type="curve" smooth="yes"/>
      <point x="212" y="450"/>
      <point x="238" y="440"/>
      <point x="265" y="428" type="curve" smooth="yes"/>
      <point x="283" y="420"/>
      <point x="309" y="409"/>
      <point x="348" y="409" type="curve" smooth="yes"/>
      <point x="371" y="409"/>
      <point x="402" y="434"/>
      <point x="418" y="449" type="curve"/>
      <point x="438" y="449"/>
      <point x="438" y="430"/>
      <point x="439" y="421" type="curve" smooth="yes"/>
      <point x="439" y="407"/>
      <point x="135" y="129"/>
      <point x="132" y="125" type="curve"/>
      <point x="137" y="127"/>
      <point x="161" y="133"/>
      <point x="174" y="133" type="curve" smooth="yes"/>
      <point x="202" y="133"/>
      <point x="229" y="128"/>
      <point x="249" y="118" type="curve" smooth="yes"/>
      <point x="266" y="110"/>
      <point x="293" y="95"/>
      <point x="314" y="95" type="curve" smooth="yes"/>
      <point x="344" y="95"/>
      <point x="364" y="136"/>
      <point x="371" y="145" type="curve"/>
      <point x="381" y="145"/>
      <point x="388" y="129"/>
      <point x="389" y="121" type="curve"/>
      <point x="370" y="82"/>
      <point x="306" y="-3"/>
      <point x="253" y="-3" type="curve" smooth="yes"/>
      <point x="211" y="-3"/>
      <point x="185" y="7"/>
      <point x="158" y="19" type="curve" smooth="yes"/>
      <point x="140" y="27"/>
      <point x="114" y="38"/>
      <point x="75" y="38" type="curve" smooth="yes"/>
      <point x="52" y="38"/>
      <point x="21" y="13"/>
      <point x="5" y="-2" type="curve"/>
      <point x="-15" y="-2"/>
      <point x="-15" y="17"/>
      <point x="-16" y="26" type="curve"/>
      <point x="-16" y="42"/>
      <point x="289" y="318"/>
      <point x="291" y="322" type="curve"/>
      <point x="286" y="320"/>
      <point x="262" y="314"/>
      <point x="249" y="314" type="curve" smooth="yes"/>
      <point x="221" y="314"/>
      <point x="194" y="319"/>
      <point x="174" y="329" type="curve" smooth="yes"/>
      <point x="157" y="337"/>
      <point x="130" y="352"/>
      <point x="109" y="352" type="curve" smooth="yes"/>
      <point x="79" y="352"/>
      <point x="59" y="311"/>
      <point x="52" y="302" type="curve"/>
      <point x="42" y="302"/>
      <point x="35" y="318"/>
      <point x="34" y="326" type="curve"/>
      <point x="53" y="365"/>
      <point x="117" y="450"/>
    </contour>
  </outline>
</glyph>
<glyph name="braceleft" format="1">
  <advance width="248"/>
  <unicode hex="007B"/>
  <outline>
    <contour>
      <point x="128" y="404" type="curve" smooth="yes"/>
      <point x="133" y="432"/>
      <point x="127" y="455"/>
      <point x="124" y="481" type="curve" smooth="yes"/>
      <point x="120" y="503"/>
      <point x="118" y="526"/>
      <point x="123" y="554" type="curve" smooth="yes"/>
      <point x="142" y="654"/>
      <point x="250" y="730"/>
      <point x="295" y="740" type="curve"/>
      <point x="301" y="740"/>
      <point x="306" y="726"/>
      <point x="302" y="718" type="curve"/>
      <point x="273" y="704"/>
      <point x="216" y="657"/>
      <point x="205" y="599" type="curve" smooth="yes"/>
      <point x="197" y="560"/>
      <point x="202" y="540"/>
      <point x="207" y="516" type="curve" smooth="yes"/>
      <point x="211" y="495"/>
      <point x="216" y="471"/>
      <point x="208" y="432" type="curve" smooth="yes"/>
      <point x="193" y="356"/>
      <point x="121" y="303"/>
      <point x="91" y="298" type="curve"/>
      <point x="119" y="293"/>
      <point x="171" y="240"/>
      <point x="156" y="164" type="curve" smooth="yes"/>
      <point x="148" y="125"/>
      <point x="135" y="101"/>
      <point x="123" y="80" type="curve" smooth="yes"/>
      <point x="109" y="56"/>
      <point x="96" y="36"/>
      <point x="88" y="-3" type="curve" smooth="yes"/>
      <point x="77" y="-61"/>
      <point x="115" y="-108"/>
      <point x="138" y="-122" type="curve"/>
      <point x="139" y="-130"/>
      <point x="129" y="-144"/>
      <point x="123" y="-144" type="curve"/>
      <point x="82" y="-134"/>
      <point x="4" y="-58"/>
      <point x="23" y="42" type="curve" smooth="yes"/>
      <point x="29" y="73"/>
      <point x="43" y="98"/>
      <point x="56" y="122" type="curve" smooth="yes"/>
      <point x="69" y="145"/>
      <point x="82" y="166"/>
      <point x="87" y="192" type="curve" smooth="yes"/>
      <point x="97" y="245"/>
      <point x="64" y="275"/>
      <point x="29" y="287" type="curve"/>
      <point x="28" y="289"/>
      <point x="27" y="294"/>
      <point x="28" y="298" type="curve" smooth="yes"/>
      <point x="29" y="302"/>
      <point x="31" y="307"/>
      <point x="33" y="309" type="curve"/>
      <point x="73" y="321"/>
      <point x="118" y="351"/>
    </contour>
  </outline>
</glyph>
<glyph name="bar" format="1">
  <advance width="200"/>
  <unicode hex="007C"/>
  <outline>
    <contour>
      <point x="172" y="757" type="curve"/>
      <point x="179" y="762"/>
      <point x="190" y="766"/>
      <point x="203" y="766" type="curve" smooth="yes"/>
      <point x="211" y="766"/>
      <point x="220" y="763"/>
      <point x="219" y="756" type="curve" smooth="yes"/>
      <point x="49" y="-116" type="line"/>
      <point x="38" y="-124"/>
      <point x="21" y="-125"/>
      <point x="14" y="-125" type="curve" smooth="yes"/>
      <point x="5" y="-125"/>
      <point x="1" y="-119"/>
      <point x="2" y="-115" type="curve" smooth="yes"/>
      <point x="2" y="-115"/>
      <point x="102" y="418"/>
    </contour>
  </outline>
</glyph>
<glyph name="exclamdown" format="1">
  <advance width="236"/>
  <unicode hex="00A1"/>
  <outline>
    <contour>
      <point x="22" y="-238" type="curve" smooth="yes"/>
      <point x="-7" y="-238"/>
      <point x="-28" y="-219"/>
      <point x="-28" y="-187" type="curve" smooth="yes"/>
      <point x="-28" y="-149"/>
      <point x="76" y="184"/>
      <point x="88" y="220" type="curve" smooth="yes"/>
      <point x="92" y="232"/>
      <point x="99" y="242"/>
      <point x="104" y="242" type="curve" smooth="yes"/>
      <point x="117" y="242"/>
      <point x="128" y="231"/>
      <point x="128" y="213" type="curve" smooth="yes"/>
      <point x="128" y="181"/>
      <point x="98" y="-141"/>
      <point x="93" y="-170" type="curve" smooth="yes"/>
      <point x="85" y="-213"/>
      <point x="51" y="-238"/>
    </contour>
    <contour>
      <point x="67" y="351" type="curve" smooth="yes"/>
      <point x="67" y="401"/>
      <point x="114" y="443"/>
      <point x="154" y="443" type="curve" smooth="yes"/>
      <point x="186" y="443"/>
      <point x="207" y="417"/>
      <point x="207" y="383" type="curve" smooth="yes"/>
      <point x="207" y="334"/>
      <point x="164" y="293"/>
      <point x="121" y="293" type="curve" smooth="yes"/>
      <point x="90" y="293"/>
      <point x="67" y="317"/>
    </contour>
  </outline>
</glyph>
<glyph name="sterling" format="1">
  <advance width="475"/>
  <unicode hex="00A3"/>
  <outline>
    <contour>
      <point x="227" y="270" type="curve" smooth="yes"/>
      <point x="212" y="195"/>
      <point x="166" y="145"/>
      <point x="138" y="122" type="curve"/>
      <point x="157" y="132"/>
      <point x="181" y="137"/>
      <point x="202" y="137" type="curve" smooth="yes"/>
      <point x="237" y="137"/>
      <point x="284" y="94"/>
      <point x="332" y="94" type="curve" smooth="yes"/>
      <point x="367" y="94"/>
      <point x="387" y="126"/>
      <point x="397" y="141" type="curve" smooth="yes"/>
      <point x="401" y="143"/>
      <point x="408" y="139"/>
      <point x="411" y="134" type="curve" smooth="yes"/>
      <point x="415" y="128"/>
      <point x="413" y="121"/>
      <point x="412" y="115" type="curve" smooth="yes"/>
      <point x="396" y="83"/>
      <point x="335" y="-8"/>
      <point x="262" y="-8" type="curve" smooth="yes"/>
      <point x="199" y="-8"/>
      <point x="162" y="51"/>
      <point x="93" y="51" type="curve" smooth="yes"/>
      <point x="76" y="51"/>
      <point x="29" y="10"/>
      <point x="10" y="-6" type="curve"/>
      <point x="3" y="-6"/>
      <point x="-2" y="12"/>
      <point x="0" y="21" type="curve" smooth="yes"/>
      <point x="16" y="44"/>
      <point x="60" y="81"/>
      <point x="75" y="102" type="curve" smooth="yes"/>
      <point x="96" y="139"/>
      <point x="110" y="183"/>
      <point x="120" y="232" type="curve" smooth="yes"/>
      <point x="124.299" y="253.495"/>
      <point x="124.347" y="280.72"/>
      <point x="123.482" y="307" type="curve"/>
      <point x="57" y="307" type="line"/>
      <point x="53" y="313"/>
      <point x="76" y="349"/>
      <point x="84" y="349" type="curve" smooth="yes"/>
      <point x="121.757" y="349" type="line"/>
      <point x="121.109" y="366.758"/>
      <point x="121.021" y="381.763"/>
      <point x="123" y="391" type="curve" smooth="yes"/>
      <point x="159" y="567"/>
      <point x="288" y="641"/>
      <point x="375" y="641" type="curve" smooth="yes"/>
      <point x="408" y="641"/>
      <point x="418" y="628"/>
      <point x="433" y="616" type="curve"/>
      <point x="443" y="595"/>
      <point x="424" y="535"/>
      <point x="385" y="535" type="curve" smooth="yes"/>
      <point x="341" y="535"/>
      <point x="346" y="585"/>
      <point x="306" y="585" type="curve" smooth="yes"/>
      <point x="269" y="585"/>
      <point x="245" y="528"/>
      <point x="233" y="459" type="curve" smooth="yes"/>
      <point x="226.388" y="419.328"/>
      <point x="228.58" y="382.996"/>
      <point x="230.042" y="349" type="curve"/>
      <point x="378" y="349" type="line"/>
      <point x="389" y="338"/>
      <point x="366" y="311"/>
      <point x="360" y="307" type="curve"/>
      <point x="230.782" y="307" type="line"/>
      <point x="230.443" y="294.394"/>
      <point x="229.373" y="282.081"/>
    </contour>
  </outline>
</glyph>
<glyph name="brokenbar" format="1">
  <advance width="204"/>
  <unicode hex="00A6"/>
  <outline>
    <contour>
      <point x="173" y="757" type="curve"/>
      <point x="180" y="762"/>
      <point x="191" y="766"/>
      <point x="204" y="766" type="curve" smooth="yes"/>
      <point x="212" y="766"/>
      <point x="221" y="763"/>
      <point x="220" y="756" type="curve" smooth="yes"/>
      <point x="147" y="384" type="line"/>
      <point x="136" y="376"/>
      <point x="119" y="375"/>
      <point x="112" y="375" type="curve" smooth="yes"/>
      <point x="103" y="375"/>
      <point x="99" y="381"/>
      <point x="100" y="385" type="curve" smooth="yes"/>
      <point x="100" y="385"/>
      <point x="108" y="417"/>
    </contour>
    <contour>
      <point x="76" y="257" type="curve"/>
      <point x="83" y="262"/>
      <point x="94" y="266"/>
      <point x="107" y="266" type="curve" smooth="yes"/>
      <point x="115" y="266"/>
      <point x="124" y="263"/>
      <point x="123" y="256" type="curve" smooth="yes"/>
      <point x="50" y="-116" type="line"/>
      <point x="39" y="-124"/>
      <point x="22" y="-125"/>
      <point x="15" y="-125" type="curve" smooth="yes"/>
      <point x="6" y="-125"/>
      <point x="2" y="-119"/>
      <point x="3" y="-115" type="curve" smooth="yes"/>
      <point x="3" y="-115"/>
      <point x="11" y="-83"/>
    </contour>
  </outline>
</glyph>
<glyph name="section" format="1">
  <advance width="438"/>
  <unicode hex="00A7"/>
  <outline>
    <contour>
      <point x="387" y="184" type="curve" smooth="yes"/>
      <point x="371.56" y="105.085"/>
      <point x="317" y="25"/>
      <point x="245" y="-33" type="curve" smooth="yes"/>
      <point x="198.035" y="-70.833"/>
      <point x="140" y="-92"/>
      <point x="84" y="-92" type="curve" smooth="yes"/>
      <point x="55" y="-92"/>
      <point x="34" y="-84"/>
      <point x="24" y="-78" type="curve"/>
      <point x="22" y="-71"/>
      <point x="22" y="-58"/>
      <point x="23" y="-52" type="curve" smooth="yes"/>
      <point x="27" y="-30"/>
      <point x="42" y="-9"/>
      <point x="69" y="-9" type="curve" smooth="yes"/>
      <point x="87" y="-9"/>
      <point x="97" y="-22"/>
      <point x="104" y="-31" type="curve" smooth="yes"/>
      <point x="110" y="-39"/>
      <point x="122" y="-42"/>
      <point x="136" y="-42" type="curve" smooth="yes"/>
      <point x="165" y="-42"/>
      <point x="210" y="-26"/>
      <point x="217" y="12" type="curve" smooth="yes"/>
      <point x="226" y="58"/>
      <point x="165" y="134"/>
      <point x="130" y="177" type="curve" smooth="yes"/>
      <point x="82" y="236"/>
      <point x="39" y="285"/>
      <point x="57" y="377" type="curve" smooth="yes"/>
      <point x="72.4399" y="455.915"/>
      <point x="128" y="525"/>
      <point x="189" y="580" type="curve" smooth="yes"/>
      <point x="246.36" y="631.719"/>
      <point x="315" y="653"/>
      <point x="376" y="653" type="curve" smooth="yes"/>
      <point x="389" y="653"/>
      <point x="408" y="646"/>
      <point x="420" y="640" type="curve"/>
      <point x="423" y="630"/>
      <point x="421" y="616"/>
      <point x="420" y="610" type="curve" smooth="yes"/>
      <point x="416" y="588"/>
      <point x="403" y="570"/>
      <point x="376" y="570" type="curve" smooth="yes"/>
      <point x="358" y="570"/>
      <point x="349" y="582"/>
      <point x="342" y="590" type="curve" smooth="yes"/>
      <point x="335" y="598"/>
      <point x="322" y="603"/>
      <point x="308" y="603" type="curve" smooth="yes"/>
      <point x="279" y="603"/>
      <point x="234" y="587"/>
      <point x="227" y="549" type="curve" smooth="yes"/>
      <point x="218" y="503"/>
      <point x="279" y="427"/>
      <point x="314" y="384" type="curve" smooth="yes"/>
      <point x="362" y="325"/>
      <point x="405" y="276"/>
    </contour>
    <contour>
      <point x="163.422" y="496.085" type="curve"/>
      <point x="148.977" y="478.282"/>
      <point x="139.769" y="460.924"/>
      <point x="134" y="431" type="curve" smooth="yes"/>
      <point x="118" y="348"/>
      <point x="161" y="291"/>
      <point x="202" y="241" type="curve" smooth="yes"/>
      <point x="238" y="197"/>
      <point x="296.569" y="142.889"/>
      <point x="283" y="75" type="curve" smooth="yes"/>
      <point x="282.276" y="71.3778"/>
      <point x="281.389" y="67.7412"/>
      <point x="280.347" y="64.0986" type="curve" smooth="yes"/>
      <point x="294.4" y="81.9137"/>
      <point x="304.32" y="100.533"/>
      <point x="310" y="130" type="curve" smooth="yes"/>
      <point x="326" y="213"/>
      <point x="282" y="270"/>
      <point x="242" y="320" type="curve" smooth="yes"/>
      <point x="206" y="364"/>
      <point x="148" y="418"/>
      <point x="161" y="486" type="curve" smooth="yes"/>
      <point x="161.642" y="489.357"/>
      <point x="162.479" y="492.716"/>
    </contour>
  </outline>
</glyph>
<glyph name="copyright" format="1">
  <advance width="616"/>
  <unicode hex="00A9"/>
  <outline>
    <contour>
      <point x="341" y="455" type="curve" smooth="yes"/>
      <point x="366" y="455"/>
      <point x="398" y="444"/>
      <point x="420" y="439" type="curve"/>
      <point x="420" y="434"/>
      <point x="426" y="382"/>
      <point x="425" y="377" type="curve" smooth="yes"/>
      <point x="425" y="375"/>
      <point x="415" y="371"/>
      <point x="410" y="371" type="curve" smooth="yes"/>
      <point x="408" y="371"/>
      <point x="407" y="370"/>
      <point x="405" y="372" type="curve"/>
      <point x="403" y="388"/>
      <point x="394" y="429"/>
      <point x="340" y="429" type="curve" smooth="yes"/>
      <point x="286" y="429"/>
      <point x="258" y="368"/>
      <point x="251" y="310" type="curve" smooth="yes"/>
      <point x="243" y="246"/>
      <point x="261" y="188"/>
      <point x="315" y="188" type="curve" smooth="yes"/>
      <point x="338" y="188"/>
      <point x="355" y="195"/>
      <point x="366" y="205" type="curve" smooth="yes"/>
      <point x="384" y="221"/>
      <point x="398" y="253"/>
      <point x="399" y="256" type="curve"/>
      <point x="405" y="256"/>
      <point x="414" y="255"/>
      <point x="416" y="252" type="curve"/>
      <point x="415" y="247"/>
      <point x="399" y="191"/>
      <point x="393" y="189" type="curve" smooth="yes"/>
      <point x="368" y="180"/>
      <point x="336" y="163"/>
      <point x="301" y="163" type="curve" smooth="yes"/>
      <point x="222" y="163"/>
      <point x="173" y="217"/>
      <point x="184" y="305" type="curve" smooth="yes"/>
      <point x="195" y="394"/>
      <point x="268" y="455"/>
    </contour>
    <contour>
      <point x="104" y="310" type="curve" smooth="yes"/>
      <point x="89" y="184"/>
      <point x="171" y="82"/>
      <point x="288" y="82" type="curve" smooth="yes"/>
      <point x="405" y="82"/>
      <point x="513" y="184"/>
      <point x="528" y="310" type="curve" smooth="yes"/>
      <point x="543" y="436"/>
      <point x="461" y="538"/>
      <point x="344" y="538" type="curve" smooth="yes"/>
      <point x="227" y="538"/>
      <point x="119" y="436"/>
    </contour>
    <contour>
      <point x="350" y="584" type="curve" smooth="yes"/>
      <point x="490" y="584"/>
      <point x="590" y="462"/>
      <point x="571" y="311" type="curve" smooth="yes"/>
      <point x="552" y="160"/>
      <point x="423" y="38"/>
      <point x="283" y="38" type="curve" smooth="yes"/>
      <point x="143" y="38"/>
      <point x="44" y="160"/>
      <point x="63" y="311" type="curve" smooth="yes"/>
      <point x="82" y="462"/>
      <point x="210" y="584"/>
    </contour>
  </outline>
</glyph>
<glyph name="degree" format="1">
  <advance width="281"/>
  <unicode hex="00B0"/>
  <outline>
    <contour>
      <point x="131" y="537" type="curve" smooth="yes"/>
      <point x="124" y="501"/>
      <point x="145" y="471"/>
      <point x="178" y="471" type="curve" smooth="yes"/>
      <point x="211" y="471"/>
      <point x="244" y="501"/>
      <point x="251" y="537" type="curve" smooth="yes"/>
      <point x="258" y="573"/>
      <point x="237" y="602"/>
      <point x="204" y="602" type="curve" smooth="yes"/>
      <point x="171" y="602"/>
      <point x="138" y="573"/>
    </contour>
    <contour>
      <point x="88" y="537" type="curve" smooth="yes"/>
      <point x="100" y="598"/>
      <point x="155" y="647"/>
      <point x="212" y="647" type="curve" smooth="yes"/>
      <point x="269" y="647"/>
      <point x="306" y="598"/>
      <point x="294" y="537" type="curve" smooth="yes"/>
      <point x="282" y="476"/>
      <point x="226" y="425"/>
      <point x="169" y="425" type="curve" smooth="yes"/>
      <point x="112" y="425"/>
      <point x="76" y="476"/>
    </contour>
  </outline>
</glyph>
<glyph name="plusminus" format="1">
  <advance width="511"/>
  <unicode hex="00B1"/>
  <outline>
    <contour>
      <point x="415" y="62" type="line" smooth="yes"/>
      <point x="417" y="62"/>
      <point x="418" y="59"/>
      <point x="418" y="54" type="curve" smooth="yes"/>
      <point x="418" y="41"/>
      <point x="416" y="23"/>
      <point x="405" y="11" type="curve"/>
      <point x="14" y="11" type="line" smooth="yes"/>
      <point x="11" y="11"/>
      <point x="9" y="14"/>
      <point x="9" y="19" type="curve" smooth="yes"/>
      <point x="9" y="32"/>
      <point x="14" y="49"/>
      <point x="24" y="62" type="curve"/>
    </contour>
    <contour>
      <point x="72" y="307" type="line" smooth="yes"/>
      <point x="69" y="307"/>
      <point x="67" y="310"/>
      <point x="67" y="315" type="curve" smooth="yes"/>
      <point x="67" y="328"/>
      <point x="72" y="345"/>
      <point x="82" y="358" type="curve"/>
      <point x="249" y="358" type="line"/>
      <point x="282" y="529" type="line" smooth="yes"/>
      <point x="284" y="542"/>
      <point x="327" y="545"/>
      <point x="331" y="545" type="curve" smooth="yes"/>
      <point x="339" y="545"/>
      <point x="341" y="541"/>
      <point x="340" y="537" type="curve" smooth="yes"/>
      <point x="305" y="358" type="line"/>
      <point x="473" y="358" type="line" smooth="yes"/>
      <point x="475" y="358"/>
      <point x="476" y="355"/>
      <point x="476" y="350" type="curve" smooth="yes"/>
      <point x="476" y="337"/>
      <point x="474" y="319"/>
      <point x="463" y="307" type="curve"/>
      <point x="297" y="307" type="line"/>
      <point x="262" y="133" type="line" smooth="yes"/>
      <point x="260" y="123"/>
      <point x="235" y="117"/>
      <point x="219" y="117" type="curve" smooth="yes"/>
      <point x="209" y="117"/>
      <point x="204" y="121"/>
      <point x="205" y="125" type="curve" smooth="yes"/>
      <point x="241" y="307" type="line"/>
    </contour>
  </outline>
</glyph>
<glyph name="uni00B2" format="1">
  <advance width="339"/>
  <unicode hex="00B2"/>
  <outline>
    <contour>
      <point x="336" y="553" type="curve" smooth="yes"/>
      <point x="336" y="498"/>
      <point x="278" y="438"/>
      <point x="236" y="403" type="curve" smooth="yes"/>
      <point x="203" y="376"/>
      <point x="185" y="357"/>
      <point x="145" y="330" type="curve"/>
      <point x="237" y="330" type="line" smooth="yes"/>
      <point x="268" y="330"/>
      <point x="280" y="358"/>
      <point x="294" y="380" type="curve" smooth="yes"/>
      <point x="296" y="383"/>
      <point x="299" y="385"/>
      <point x="303" y="385" type="curve" smooth="yes"/>
      <point x="307" y="385"/>
      <point x="315" y="384"/>
      <point x="317" y="382" type="curve"/>
      <point x="305" y="353"/>
      <point x="263" y="265"/>
      <point x="257" y="254" type="curve"/>
      <point x="46" y="254" type="line"/>
      <point x="44" y="257"/>
      <point x="42" y="265"/>
      <point x="42" y="268" type="curve"/>
      <point x="97" y="321"/>
      <point x="123" y="347"/>
      <point x="180" y="409" type="curve" smooth="yes"/>
      <point x="221" y="454"/>
      <point x="246" y="498"/>
      <point x="246" y="537" type="curve" smooth="yes"/>
      <point x="246" y="569"/>
      <point x="231" y="589"/>
      <point x="199" y="589" type="curve" smooth="yes"/>
      <point x="158" y="589"/>
      <point x="130" y="552"/>
      <point x="124" y="547" type="curve"/>
      <point x="121" y="547"/>
      <point x="109" y="553"/>
      <point x="111" y="565" type="curve"/>
      <point x="126" y="588"/>
      <point x="175" y="644"/>
      <point x="240" y="644" type="curve" smooth="yes"/>
      <point x="305" y="644"/>
      <point x="336" y="599"/>
    </contour>
  </outline>
</glyph>
<glyph name="acute" format="1">
  <advance width="202"/>
  <unicode hex="00B4"/>
  <outline>
    <contour>
      <point x="291.021" y="653.988" type="curve" smooth="yes"/>
      <point x="291.021" y="612.751"/>
      <point x="180.337" y="522"/>
      <point x="171.632" y="522" type="curve" smooth="yes"/>
      <point x="164.581" y="522"/>
      <point x="152.61" y="535.76"/>
      <point x="152.61" y="540.26" type="curve" smooth="yes"/>
      <point x="152.61" y="547.513"/>
      <point x="186.996" y="635.602"/>
      <point x="212.632" y="678" type="curve" smooth="yes"/>
      <point x="216.632" y="683"/>
      <point x="241.632" y="687"/>
      <point x="241.632" y="687" type="curve" smooth="yes"/>
      <point x="285.916" y="687"/>
      <point x="291.021" y="667.193"/>
    </contour>
  </outline>
</glyph>
<glyph name="mu" format="1">
  <advance width="529"/>
  <unicode hex="00B5"/>
  <outline>
    <contour>
      <point x="172" y="446" type="curve" smooth="yes"/>
      <point x="181" y="446"/>
      <point x="225" y="422"/>
      <point x="222" y="409" type="curve" smooth="yes"/>
      <point x="220" y="399"/>
      <point x="213" y="355"/>
      <point x="179" y="266" type="curve" smooth="yes"/>
      <point x="177" y="260"/>
      <point x="165" y="223"/>
      <point x="165" y="223" type="curve" smooth="yes"/>
      <point x="150" y="144"/>
      <point x="162" y="90"/>
      <point x="193" y="90" type="curve" smooth="yes"/>
      <point x="244" y="90"/>
      <point x="271" y="145"/>
      <point x="289" y="204" type="curve"/>
      <point x="291" y="212"/>
      <point x="337" y="433"/>
      <point x="337" y="433" type="curve"/>
      <point x="352" y="443"/>
      <point x="372" y="447"/>
      <point x="383" y="446" type="curve" smooth="yes"/>
      <point x="424" y="443"/>
      <point x="446" y="422"/>
      <point x="443" y="409" type="curve" smooth="yes"/>
      <point x="440" y="391"/>
      <point x="425" y="335"/>
      <point x="391" y="246" type="curve" smooth="yes"/>
      <point x="389" y="240"/>
      <point x="382" y="223"/>
      <point x="382" y="223" type="curve"/>
      <point x="365" y="141"/>
      <point x="357" y="78"/>
      <point x="397" y="78" type="curve" smooth="yes"/>
      <point x="419" y="78"/>
      <point x="449" y="100"/>
      <point x="457" y="109" type="curve"/>
      <point x="460" y="109"/>
      <point x="463" y="101"/>
      <point x="465" y="96" type="curve" smooth="yes"/>
      <point x="466" y="92"/>
      <point x="465" y="79"/>
      <point x="464" y="76" type="curve" smooth="yes"/>
      <point x="444" y="32"/>
      <point x="402" y="-4"/>
      <point x="367" y="-4" type="curve" smooth="yes"/>
      <point x="325" y="-3"/>
      <point x="307" y="64"/>
      <point x="312" y="128" type="curve"/>
      <point x="272" y="58"/>
      <point x="230" y="-9"/>
      <point x="169" y="-9" type="curve" smooth="yes"/>
      <point x="133" y="-9"/>
      <point x="131" y="42"/>
      <point x="127" y="76" type="curve"/>
      <point x="124" y="51"/>
      <point x="66" y="-123"/>
      <point x="109" y="-191" type="curve"/>
      <point x="103" y="-199"/>
      <point x="71" y="-227"/>
      <point x="55" y="-227" type="curve" smooth="yes"/>
      <point x="9" y="-227"/>
      <point x="1" y="-166"/>
      <point x="1" y="-127" type="curve" smooth="yes"/>
      <point x="1" y="-90"/>
      <point x="52" y="100"/>
      <point x="83" y="204" type="curve"/>
      <point x="88" y="228"/>
      <point x="94" y="275"/>
      <point x="98" y="298" type="curve" smooth="yes"/>
      <point x="101" y="311"/>
      <point x="116" y="390"/>
      <point x="123" y="426" type="curve"/>
      <point x="129" y="434"/>
      <point x="161" y="446"/>
    </contour>
  </outline>
</glyph>
<glyph name="uni00B9" format="1">
  <advance width="282"/>
  <unicode hex="00B9"/>
  <outline>
    <contour>
      <point x="158" y="511" type="line" smooth="yes"/>
      <point x="163" y="538"/>
      <point x="160" y="558"/>
      <point x="149" y="558" type="curve" smooth="yes"/>
      <point x="141" y="558"/>
      <point x="115" y="547"/>
      <point x="104" y="542" type="curve"/>
      <point x="100" y="543"/>
      <point x="96" y="554"/>
      <point x="98" y="562" type="curve" smooth="yes"/>
      <point x="98" y="563"/>
      <point x="99" y="568"/>
      <point x="100" y="569" type="curve"/>
      <point x="172" y="599"/>
      <point x="257" y="641"/>
      <point x="259" y="641" type="curve" smooth="yes"/>
      <point x="260" y="641" type="line" smooth="yes"/>
      <point x="264" y="641"/>
      <point x="271" y="624"/>
      <point x="271" y="621" type="curve"/>
      <point x="266" y="610"/>
      <point x="252" y="575"/>
      <point x="244" y="536" type="curve" smooth="yes"/>
      <point x="207" y="346" type="line" smooth="yes"/>
      <point x="204" y="328"/>
      <point x="200" y="298"/>
      <point x="205" y="291" type="curve" smooth="yes"/>
      <point x="211" y="282"/>
      <point x="242" y="278"/>
      <point x="247" y="278" type="curve"/>
      <point x="249" y="278"/>
      <point x="243" y="253"/>
      <point x="242" y="252" type="curve"/>
      <point x="220" y="253"/>
      <point x="171" y="256"/>
      <point x="149" y="256" type="curve" smooth="yes"/>
      <point x="127" y="256"/>
      <point x="77" y="253"/>
      <point x="54" y="252" type="curve"/>
      <point x="52" y="255"/>
      <point x="56" y="278"/>
      <point x="59" y="278" type="curve"/>
      <point x="66" y="278"/>
      <point x="98" y="284"/>
      <point x="106" y="292" type="curve" smooth="yes"/>
      <point x="112" y="298"/>
      <point x="124" y="336"/>
      <point x="126" y="347" type="curve" smooth="yes"/>
    </contour>
  </outline>
</glyph>
<glyph name="ordmasculine" format="1">
  <advance width="358"/>
  <unicode hex="00BA"/>
  <outline>
    <contour>
      <point x="237" y="523" type="curve" smooth="yes"/>
      <point x="183" y="523"/>
      <point x="149" y="411"/>
      <point x="149" y="338" type="curve" smooth="yes"/>
      <point x="149" y="322"/>
      <point x="151" y="281"/>
      <point x="174" y="281" type="curve" smooth="yes"/>
      <point x="228" y="281"/>
      <point x="261" y="394"/>
      <point x="261" y="462" type="curve" smooth="yes"/>
      <point x="261" y="484"/>
      <point x="257" y="523"/>
    </contour>
    <contour>
      <point x="245" y="552" type="curve" smooth="yes"/>
      <point x="305" y="552"/>
      <point x="353" y="531"/>
      <point x="353" y="452" type="curve" smooth="yes"/>
      <point x="353" y="357"/>
      <point x="249" y="251"/>
      <point x="162" y="251" type="curve" smooth="yes"/>
      <point x="102" y="251"/>
      <point x="57" y="285"/>
      <point x="57" y="349" type="curve" smooth="yes"/>
      <point x="57" y="444"/>
      <point x="158" y="552"/>
    </contour>
  </outline>
</glyph>
<glyph name="onequarter" format="1">
  <advance width="705"/>
  <unicode hex="00BC"/>
  <outline>
    <contour>
      <point x="638" y="400" type="curve" smooth="yes"/>
      <point x="644" y="400"/>
      <point x="652" y="389"/>
      <point x="651" y="384" type="curve" smooth="yes"/>
      <point x="606" y="152" type="line"/>
      <point x="639" y="152" type="line" smooth="yes"/>
      <point x="643" y="152"/>
      <point x="644" y="147"/>
      <point x="644" y="142" type="curve" smooth="yes"/>
      <point x="644" y="131"/>
      <point x="637" y="116"/>
      <point x="633" y="110" type="curve"/>
      <point x="597" y="110" type="line"/>
      <point x="577" y="3" type="line"/>
      <point x="577" y="3"/>
      <point x="555" y="-1"/>
      <point x="533" y="-1" type="curve" smooth="yes"/>
      <point x="519" y="-1"/>
      <point x="495" y="1"/>
      <point x="496" y="5" type="curve" smooth="yes"/>
      <point x="517" y="110" type="line"/>
      <point x="362" y="110" type="line"/>
      <point x="358" y="112"/>
      <point x="356" y="121"/>
      <point x="357" y="125" type="curve"/>
      <point x="620" y="390" type="line" smooth="yes"/>
      <point x="626" y="396"/>
      <point x="634" y="400"/>
    </contour>
    <contour>
      <point x="548" y="282" type="line"/>
      <point x="423" y="152" type="line"/>
      <point x="524" y="152" type="line"/>
    </contour>
    <contour>
      <point x="98" y="542" type="curve"/>
      <point x="94" y="544"/>
      <point x="91" y="557"/>
      <point x="91" y="561" type="curve" smooth="yes"/>
      <point x="91" y="562"/>
      <point x="92" y="564"/>
      <point x="94" y="566" type="curve"/>
      <point x="156" y="598"/>
      <point x="228" y="630"/>
      <point x="260" y="646" type="curve"/>
      <point x="262" y="646" type="line" smooth="yes"/>
      <point x="265" y="646"/>
      <point x="268" y="632"/>
      <point x="267" y="624" type="curve"/>
      <point x="267" y="624"/>
      <point x="250" y="590"/>
      <point x="237" y="522" type="curve" smooth="yes"/>
      <point x="204" y="343" type="line" smooth="yes"/>
      <point x="200" y="323"/>
      <point x="198" y="298"/>
      <point x="198" y="295" type="curve" smooth="yes"/>
      <point x="198" y="278"/>
      <point x="244" y="277"/>
      <point x="248" y="277" type="curve" smooth="yes"/>
      <point x="250" y="277"/>
      <point x="248" y="265"/>
      <point x="247" y="261" type="curve" smooth="yes"/>
      <point x="246" y="258"/>
      <point x="246" y="255"/>
      <point x="245" y="254" type="curve"/>
      <point x="223" y="255"/>
      <point x="168" y="258"/>
      <point x="146" y="258" type="curve" smooth="yes"/>
      <point x="124" y="258"/>
      <point x="76" y="255"/>
      <point x="53" y="254" type="curve"/>
      <point x="51" y="257"/>
      <point x="55" y="277"/>
      <point x="58" y="277" type="curve" smooth="yes"/>
      <point x="65" y="277"/>
      <point x="98" y="281"/>
      <point x="104" y="291" type="curve" smooth="yes"/>
      <point x="108" y="298"/>
      <point x="111" y="312"/>
      <point x="113" y="324" type="curve" smooth="yes"/>
      <point x="149" y="508" type="line" smooth="yes"/>
      <point x="156" y="544"/>
      <point x="161" y="563"/>
      <point x="149" y="563" type="curve" smooth="yes"/>
      <point x="145" y="563"/>
      <point x="109" y="547"/>
    </contour>
    <contour>
      <point x="633" y="633" type="curve" smooth="yes"/>
      <point x="182" y="-8" type="line"/>
      <point x="182" y="-8"/>
      <point x="155" y="-7"/>
      <point x="155" y="4" type="curve" smooth="yes"/>
      <point x="155" y="6"/>
      <point x="156" y="8"/>
      <point x="157" y="10" type="curve" smooth="yes"/>
      <point x="609" y="651" type="line"/>
      <point x="609" y="651"/>
      <point x="634" y="649"/>
      <point x="634" y="638" type="curve" smooth="yes"/>
      <point x="634" y="636"/>
      <point x="634" y="634"/>
    </contour>
  </outline>
</glyph>
<glyph name="onehalf" format="1">
  <advance width="747"/>
  <unicode hex="00BD"/>
  <outline>
    <contour>
      <point x="703" y="297" type="curve" smooth="yes"/>
      <point x="703" y="242"/>
      <point x="645" y="182"/>
      <point x="603" y="147" type="curve" smooth="yes"/>
      <point x="570" y="120"/>
      <point x="552" y="101"/>
      <point x="512" y="74" type="curve"/>
      <point x="604" y="74" type="line" smooth="yes"/>
      <point x="635" y="74"/>
      <point x="647" y="102"/>
      <point x="661" y="124" type="curve" smooth="yes"/>
      <point x="663" y="127"/>
      <point x="666" y="129"/>
      <point x="670" y="129" type="curve" smooth="yes"/>
      <point x="674" y="129"/>
      <point x="682" y="128"/>
      <point x="684" y="126" type="curve"/>
      <point x="672" y="97"/>
      <point x="630" y="9"/>
      <point x="624" y="-2" type="curve"/>
      <point x="413" y="-2" type="line"/>
      <point x="411" y="1"/>
      <point x="409" y="9"/>
      <point x="409" y="12" type="curve"/>
      <point x="464" y="65"/>
      <point x="490" y="91"/>
      <point x="547" y="153" type="curve" smooth="yes"/>
      <point x="588" y="198"/>
      <point x="613" y="242"/>
      <point x="613" y="281" type="curve" smooth="yes"/>
      <point x="613" y="313"/>
      <point x="598" y="333"/>
      <point x="566" y="333" type="curve" smooth="yes"/>
      <point x="525" y="333"/>
      <point x="497" y="296"/>
      <point x="491" y="291" type="curve"/>
      <point x="488" y="291"/>
      <point x="476" y="297"/>
      <point x="478" y="309" type="curve"/>
      <point x="493" y="332"/>
      <point x="542" y="388"/>
      <point x="607" y="388" type="curve" smooth="yes"/>
      <point x="672" y="388"/>
      <point x="703" y="343"/>
    </contour>
    <contour>
      <point x="98" y="542" type="curve"/>
      <point x="94" y="544"/>
      <point x="91" y="557"/>
      <point x="91" y="561" type="curve" smooth="yes"/>
      <point x="91" y="562"/>
      <point x="92" y="564"/>
      <point x="94" y="566" type="curve"/>
      <point x="156" y="598"/>
      <point x="228" y="630"/>
      <point x="260" y="646" type="curve"/>
      <point x="262" y="646" type="line" smooth="yes"/>
      <point x="265" y="646"/>
      <point x="268" y="632"/>
      <point x="267" y="624" type="curve"/>
      <point x="267" y="624"/>
      <point x="250" y="590"/>
      <point x="237" y="522" type="curve" smooth="yes"/>
      <point x="204" y="343" type="line" smooth="yes"/>
      <point x="200" y="323"/>
      <point x="198" y="298"/>
      <point x="198" y="295" type="curve" smooth="yes"/>
      <point x="198" y="278"/>
      <point x="244" y="277"/>
      <point x="248" y="277" type="curve" smooth="yes"/>
      <point x="250" y="277"/>
      <point x="248" y="265"/>
      <point x="247" y="261" type="curve" smooth="yes"/>
      <point x="246" y="258"/>
      <point x="246" y="255"/>
      <point x="245" y="254" type="curve"/>
      <point x="223" y="255"/>
      <point x="168" y="258"/>
      <point x="146" y="258" type="curve" smooth="yes"/>
      <point x="124" y="258"/>
      <point x="76" y="255"/>
      <point x="53" y="254" type="curve"/>
      <point x="51" y="257"/>
      <point x="55" y="277"/>
      <point x="58" y="277" type="curve" smooth="yes"/>
      <point x="65" y="277"/>
      <point x="98" y="281"/>
      <point x="104" y="291" type="curve" smooth="yes"/>
      <point x="108" y="298"/>
      <point x="111" y="312"/>
      <point x="113" y="324" type="curve" smooth="yes"/>
      <point x="149" y="508" type="line" smooth="yes"/>
      <point x="156" y="544"/>
      <point x="161" y="563"/>
      <point x="149" y="563" type="curve" smooth="yes"/>
      <point x="145" y="563"/>
      <point x="109" y="547"/>
    </contour>
    <contour>
      <point x="633" y="633" type="curve" smooth="yes"/>
      <point x="182" y="-8" type="line"/>
      <point x="182" y="-8"/>
      <point x="155" y="-7"/>
      <point x="155" y="4" type="curve" smooth="yes"/>
      <point x="155" y="6"/>
      <point x="156" y="8"/>
      <point x="157" y="10" type="curve" smooth="yes"/>
      <point x="609" y="651" type="line"/>
      <point x="609" y="651"/>
      <point x="634" y="649"/>
      <point x="634" y="638" type="curve" smooth="yes"/>
      <point x="634" y="636"/>
      <point x="634" y="634"/>
    </contour>
  </outline>
</glyph>
<glyph name="threequarters" format="1">
  <advance width="712"/>
  <unicode hex="00BE"/>
  <outline>
    <contour>
      <point x="646" y="400" type="curve" smooth="yes"/>
      <point x="652" y="400"/>
      <point x="660" y="389"/>
      <point x="659" y="384" type="curve" smooth="yes"/>
      <point x="614" y="152" type="line"/>
      <point x="647" y="152" type="line" smooth="yes"/>
      <point x="651" y="152"/>
      <point x="652" y="147"/>
      <point x="652" y="142" type="curve" smooth="yes"/>
      <point x="652" y="131"/>
      <point x="645" y="116"/>
      <point x="641" y="110" type="curve"/>
      <point x="606" y="110" type="line"/>
      <point x="585" y="3" type="line"/>
      <point x="585" y="3"/>
      <point x="563" y="-1"/>
      <point x="541" y="-1" type="curve" smooth="yes"/>
      <point x="527" y="-1"/>
      <point x="504" y="1"/>
      <point x="505" y="5" type="curve" smooth="yes"/>
      <point x="525" y="110" type="line"/>
      <point x="370" y="110" type="line"/>
      <point x="366" y="112"/>
      <point x="364" y="121"/>
      <point x="365" y="125" type="curve"/>
      <point x="628" y="390" type="line" smooth="yes"/>
      <point x="634" y="396"/>
      <point x="642" y="400"/>
    </contour>
    <contour>
      <point x="556" y="282" type="line"/>
      <point x="431" y="152" type="line"/>
      <point x="532" y="152" type="line"/>
    </contour>
    <contour>
      <point x="238" y="644" type="curve" smooth="yes"/>
      <point x="271" y="644"/>
      <point x="322" y="630"/>
      <point x="322" y="568" type="curve" smooth="yes"/>
      <point x="322" y="510"/>
      <point x="255" y="481"/>
      <point x="234" y="477" type="curve"/>
      <point x="252" y="476"/>
      <point x="318" y="468"/>
      <point x="318" y="394" type="curve" smooth="yes"/>
      <point x="318" y="294"/>
      <point x="193" y="245"/>
      <point x="120" y="245" type="curve" smooth="yes"/>
      <point x="83" y="245"/>
      <point x="53" y="257"/>
      <point x="43" y="268" type="curve"/>
      <point x="40" y="275"/>
      <point x="38" y="288"/>
      <point x="40" y="298" type="curve" smooth="yes"/>
      <point x="43" y="315"/>
      <point x="58" y="338"/>
      <point x="81" y="338" type="curve" smooth="yes"/>
      <point x="99" y="338"/>
      <point x="108" y="322"/>
      <point x="116" y="303" type="curve" smooth="yes"/>
      <point x="123" y="285"/>
      <point x="136" y="276"/>
      <point x="151" y="276" type="curve" smooth="yes"/>
      <point x="186" y="276"/>
      <point x="225" y="320"/>
      <point x="225" y="372" type="curve" smooth="yes"/>
      <point x="225" y="406"/>
      <point x="212" y="446"/>
      <point x="174" y="446" type="curve" smooth="yes"/>
      <point x="170" y="446"/>
      <point x="153" y="446"/>
      <point x="143" y="443" type="curve"/>
      <point x="142" y="446"/>
      <point x="141" y="449"/>
      <point x="141" y="454" type="curve" smooth="yes"/>
      <point x="141" y="458"/>
      <point x="142" y="465"/>
      <point x="143" y="467" type="curve"/>
      <point x="173" y="471"/>
      <point x="242" y="490"/>
      <point x="242" y="552" type="curve" smooth="yes"/>
      <point x="242" y="573"/>
      <point x="231" y="594"/>
      <point x="197" y="594" type="curve" smooth="yes"/>
      <point x="163" y="594"/>
      <point x="129" y="553"/>
      <point x="124" y="548" type="curve"/>
      <point x="120" y="549"/>
      <point x="107" y="559"/>
      <point x="111" y="569" type="curve"/>
      <point x="144" y="613"/>
      <point x="193" y="644"/>
    </contour>
    <contour>
      <point x="637" y="633" type="curve" smooth="yes"/>
      <point x="186" y="-8" type="line"/>
      <point x="186" y="-8"/>
      <point x="159" y="-7"/>
      <point x="159" y="4" type="curve" smooth="yes"/>
      <point x="159" y="6"/>
      <point x="160" y="8"/>
      <point x="161" y="10" type="curve" smooth="yes"/>
      <point x="613" y="651" type="line"/>
      <point x="613" y="651"/>
      <point x="638" y="649"/>
      <point x="638" y="638" type="curve" smooth="yes"/>
      <point x="638" y="636"/>
      <point x="638" y="634"/>
    </contour>
  </outline>
</glyph>
<glyph name="AE" format="1">
  <advance width="864"/>
  <unicode hex="00C6"/>
  <outline>
    <contour>
      <point x="507" y="657" type="curve" smooth="yes"/>
      <point x="546" y="657"/>
      <point x="756" y="663"/>
      <point x="811" y="664" type="curve"/>
      <point x="813" y="614"/>
      <point x="818" y="561"/>
      <point x="822" y="516" type="curve"/>
      <point x="819" y="513"/>
      <point x="807" y="511"/>
      <point x="800" y="511" type="curve" smooth="yes"/>
      <point x="793" y="511"/>
      <point x="787" y="514"/>
      <point x="786" y="519" type="curve" smooth="yes"/>
      <point x="772" y="574"/>
      <point x="753" y="620"/>
      <point x="696" y="620" type="curve" smooth="yes"/>
      <point x="619" y="620" type="line" smooth="yes"/>
      <point x="598" y="620"/>
      <point x="577" y="619"/>
      <point x="571" y="608" type="curve" smooth="yes"/>
      <point x="565" y="596"/>
      <point x="563" y="576"/>
      <point x="560" y="547" type="curve" smooth="yes"/>
      <point x="542" y="360" type="line" smooth="yes"/>
      <point x="542" y="354"/>
      <point x="561" y="349"/>
      <point x="581" y="349" type="curve" smooth="yes"/>
      <point x="630" y="349" type="line" smooth="yes"/>
      <point x="685" y="349"/>
      <point x="699" y="361"/>
      <point x="720" y="419" type="curve" smooth="yes"/>
      <point x="722" y="424"/>
      <point x="724" y="427"/>
      <point x="731" y="427" type="curve" smooth="yes"/>
      <point x="738" y="427"/>
      <point x="746" y="425"/>
      <point x="748" y="422" type="curve"/>
      <point x="729" y="230" type="line"/>
      <point x="727" y="228"/>
      <point x="719" y="226"/>
      <point x="712" y="226" type="curve" smooth="yes"/>
      <point x="705" y="226"/>
      <point x="700" y="229"/>
      <point x="700" y="234" type="curve" smooth="yes"/>
      <point x="694" y="282"/>
      <point x="681" y="291"/>
      <point x="673" y="295" type="curve" smooth="yes"/>
      <point x="663" y="300"/>
      <point x="639" y="302"/>
      <point x="604" y="302" type="curve" smooth="yes"/>
      <point x="578" y="302"/>
      <point x="536" y="300"/>
      <point x="535" y="288" type="curve" smooth="yes"/>
      <point x="519" y="141" type="line" smooth="yes"/>
      <point x="518" y="135"/>
      <point x="513" y="82"/>
      <point x="519" y="62" type="curve" smooth="yes"/>
      <point x="523" y="48"/>
      <point x="553" y="42"/>
      <point x="577" y="42" type="curve" smooth="yes"/>
      <point x="639" y="42" type="line" smooth="yes"/>
      <point x="674" y="42"/>
      <point x="705" y="52"/>
      <point x="729" y="75" type="curve" smooth="yes"/>
      <point x="751" y="96"/>
      <point x="767" y="125"/>
      <point x="788" y="170" type="curve" smooth="yes"/>
      <point x="790" y="174"/>
      <point x="795" y="176"/>
      <point x="802" y="176" type="curve" smooth="yes"/>
      <point x="811" y="176"/>
      <point x="827" y="173"/>
      <point x="829" y="170" type="curve"/>
      <point x="806" y="116"/>
      <point x="773" y="42"/>
      <point x="762" y="-2" type="curve"/>
      <point x="736" y="-2"/>
      <point x="562" y="-2"/>
      <point x="436" y="-2" type="curve" smooth="yes"/>
      <point x="372" y="-2"/>
      <point x="320" y="-3"/>
      <point x="308" y="-3" type="curve"/>
      <point x="304" y="3"/>
      <point x="306" y="27"/>
      <point x="311" y="34" type="curve"/>
      <point x="323" y="35"/>
      <point x="367" y="38"/>
      <point x="373" y="51" type="curve" smooth="yes"/>
      <point x="382" y="71"/>
      <point x="385" y="102"/>
      <point x="389" y="145" type="curve" smooth="yes"/>
      <point x="401" y="265" type="line" smooth="yes"/>
      <point x="400" y="266"/>
      <point x="399" y="269"/>
      <point x="397" y="269" type="curve" smooth="yes"/>
      <point x="362" y="271"/>
      <point x="340" y="270"/>
      <point x="317" y="270" type="curve" smooth="yes"/>
      <point x="279" y="270"/>
      <point x="264" y="270"/>
      <point x="231" y="269" type="curve" smooth="yes"/>
      <point x="228" y="269"/>
      <point x="223" y="266"/>
      <point x="222" y="264" type="curve" smooth="yes"/>
      <point x="222" y="264"/>
      <point x="151" y="163"/>
      <point x="132" y="135" type="curve" smooth="yes"/>
      <point x="116" y="110"/>
      <point x="95" y="74"/>
      <point x="93" y="67" type="curve" smooth="yes"/>
      <point x="86" y="41"/>
      <point x="148" y="33"/>
      <point x="155" y="33" type="curve"/>
      <point x="158" y="26"/>
      <point x="156" y="0"/>
      <point x="152" y="-4" type="curve"/>
      <point x="120" y="0"/>
      <point x="81" y="4"/>
      <point x="40" y="4" type="curve" smooth="yes"/>
      <point x="-3" y="4"/>
      <point x="-29" y="0"/>
      <point x="-62" y="-4" type="curve"/>
      <point x="-65" y="0"/>
      <point x="-68" y="21"/>
      <point x="-61" y="32" type="curve"/>
      <point x="-50" y="32"/>
      <point x="0" y="48"/>
      <point x="13" y="64" type="curve" smooth="yes"/>
      <point x="37" y="92"/>
      <point x="45" y="106"/>
      <point x="65" y="134" type="curve" smooth="yes"/>
      <point x="381" y="590" type="line" smooth="yes"/>
      <point x="381" y="590"/>
      <point x="389" y="603"/>
      <point x="389" y="608" type="curve" smooth="yes"/>
      <point x="389" y="618"/>
      <point x="370" y="623"/>
      <point x="364" y="623" type="curve"/>
      <point x="360" y="630"/>
      <point x="365" y="654"/>
      <point x="369" y="660" type="curve"/>
      <point x="410" y="657"/>
      <point x="468" y="657"/>
    </contour>
    <contour>
      <point x="431" y="567" type="curve"/>
      <point x="260" y="325" type="line"/>
      <point x="260" y="325"/>
      <point x="260" y="321"/>
      <point x="262" y="321" type="curve" smooth="yes"/>
      <point x="280" y="319"/>
      <point x="305" y="318"/>
      <point x="326" y="318" type="curve" smooth="yes"/>
      <point x="355" y="318"/>
      <point x="373" y="318"/>
      <point x="402" y="320" type="curve" smooth="yes"/>
      <point x="404" y="320"/>
      <point x="407" y="325"/>
      <point x="407" y="325" type="curve"/>
      <point x="427" y="513" type="line" smooth="yes"/>
      <point x="429" y="534"/>
      <point x="430" y="552"/>
    </contour>
  </outline>
</glyph>
<glyph name="Oslash" format="1">
  <advance width="705"/>
  <unicode hex="00D8"/>
  <outline>
    <contour>
      <point x="104" y="-13" type="line"/>
      <point x="96" y="-10"/>
      <point x="75" y="6"/>
      <point x="80" y="12" type="curve"/>
      <point x="596" y="669" type="line"/>
      <point x="604" y="667"/>
      <point x="626" y="651"/>
      <point x="621" y="645" type="curve"/>
    </contour>
    <component base="O"/>
  </outline>
</glyph>
<glyph name="germandbls" format="1">
  <advance width="527"/>
  <unicode hex="00DF"/>
  <outline>
    <contour>
      <point x="115" y="424" type="line"/>
      <point x="147" y="588"/>
      <point x="288" y="695"/>
      <point x="368" y="695" type="curve" smooth="yes"/>
      <point x="434" y="695"/>
      <point x="507" y="648"/>
      <point x="507" y="570" type="curve" smooth="yes"/>
      <point x="507" y="468"/>
      <point x="407" y="414"/>
      <point x="376" y="391" type="curve" smooth="yes"/>
      <point x="363" y="382"/>
      <point x="360" y="371"/>
      <point x="360" y="361" type="curve" smooth="yes"/>
      <point x="360" y="334"/>
      <point x="389" y="295"/>
      <point x="410" y="266" type="curve" smooth="yes"/>
      <point x="449" y="213"/>
      <point x="473" y="174"/>
      <point x="473" y="127" type="curve" smooth="yes"/>
      <point x="473" y="57"/>
      <point x="400" y="-4"/>
      <point x="321" y="-4" type="curve" smooth="yes"/>
      <point x="261" y="-4"/>
      <point x="247" y="0"/>
      <point x="230" y="11" type="curve"/>
      <point x="224" y="16"/>
      <point x="213" y="29"/>
      <point x="213" y="52" type="curve" smooth="yes"/>
      <point x="213" y="80"/>
      <point x="238" y="97"/>
      <point x="259" y="97" type="curve" smooth="yes"/>
      <point x="296" y="97"/>
      <point x="291" y="30"/>
      <point x="340" y="30" type="curve" smooth="yes"/>
      <point x="356" y="30"/>
      <point x="382" y="44"/>
      <point x="382" y="76" type="curve" smooth="yes"/>
      <point x="382" y="107"/>
      <point x="336" y="157"/>
      <point x="309" y="193" type="curve" smooth="yes"/>
      <point x="280" y="232"/>
      <point x="261" y="264"/>
      <point x="261" y="310" type="curve" smooth="yes"/>
      <point x="261" y="360"/>
      <point x="314" y="398"/>
      <point x="344" y="430" type="curve" smooth="yes"/>
      <point x="359" y="446"/>
      <point x="400" y="492"/>
      <point x="400" y="556" type="curve" smooth="yes"/>
      <point x="400" y="568"/>
      <point x="398" y="655"/>
      <point x="347" y="655" type="curve" smooth="yes"/>
      <point x="289" y="655"/>
      <point x="253" y="563"/>
      <point x="230" y="424" type="curve" smooth="yes"/>
      <point x="206" y="282"/>
      <point x="190" y="184"/>
      <point x="166" y="58" type="curve" smooth="yes"/>
      <point x="134" y="-106"/>
      <point x="21" y="-218"/>
      <point x="-59" y="-218" type="curve" smooth="yes"/>
      <point x="-93" y="-218"/>
      <point x="-122" y="-208"/>
      <point x="-133" y="-200" type="curve"/>
      <point x="-138" y="-192"/>
      <point x="-142" y="-180"/>
      <point x="-142" y="-167" type="curve" smooth="yes"/>
      <point x="-142" y="-142"/>
      <point x="-127" y="-118"/>
      <point x="-104" y="-118" type="curve" smooth="yes"/>
      <point x="-87" y="-118"/>
      <point x="-73" y="-127"/>
      <point x="-62" y="-142" type="curve" smooth="yes"/>
      <point x="-53" y="-155"/>
      <point x="-43" y="-172"/>
      <point x="-25" y="-172" type="curve" smooth="yes"/>
      <point x="14" y="-172"/>
      <point x="20" y="-105"/>
      <point x="51" y="54" type="curve"/>
    </contour>
  </outline>
</glyph>
<glyph name="ae" format="1">
  <advance width="607"/>
  <unicode hex="00E6"/>
  <outline>
    <contour>
      <point x="449" y="412" type="curve" smooth="yes"/>
      <point x="401" y="412"/>
      <point x="365" y="277"/>
      <point x="360" y="226" type="curve"/>
      <point x="399" y="226"/>
      <point x="475" y="299"/>
      <point x="475" y="373" type="curve" smooth="yes"/>
      <point x="475" y="391"/>
      <point x="471" y="412"/>
    </contour>
    <contour>
      <point x="236" y="91" type="curve"/>
      <point x="233" y="106"/>
      <point x="234" y="186"/>
      <point x="240" y="209" type="curve"/>
      <point x="219" y="205"/>
      <point x="177" y="189"/>
      <point x="167" y="182" type="curve" smooth="yes"/>
      <point x="152" y="172"/>
      <point x="131" y="146"/>
      <point x="128" y="124" type="curve"/>
      <point x="120" y="81"/>
      <point x="146" y="62"/>
      <point x="168" y="62" type="curve" smooth="yes"/>
      <point x="188" y="62"/>
      <point x="226" y="83"/>
    </contour>
    <contour>
      <point x="259" y="449" type="curve" smooth="yes"/>
      <point x="302" y="449"/>
      <point x="336" y="427"/>
      <point x="354" y="391" type="curve"/>
      <point x="395" y="427"/>
      <point x="440" y="449"/>
      <point x="483" y="449" type="curve" smooth="yes"/>
      <point x="534" y="449"/>
      <point x="594" y="427"/>
      <point x="594" y="357" type="curve" smooth="yes"/>
      <point x="594" y="254"/>
      <point x="419" y="188"/>
      <point x="357" y="188" type="curve"/>
      <point x="356" y="185"/>
      <point x="355" y="168"/>
      <point x="355" y="163" type="curve" smooth="yes"/>
      <point x="355" y="126"/>
      <point x="366" y="77"/>
      <point x="416" y="77" type="curve" smooth="yes"/>
      <point x="461" y="77"/>
      <point x="514" y="139"/>
      <point x="517" y="142" type="curve"/>
      <point x="526" y="142"/>
      <point x="532" y="118"/>
      <point x="532" y="112" type="curve"/>
      <point x="519" y="90"/>
      <point x="409" y="-6"/>
      <point x="346" y="-6" type="curve" smooth="yes"/>
      <point x="300" y="-6"/>
      <point x="266" y="16"/>
      <point x="247" y="57" type="curve"/>
      <point x="232" y="46"/>
      <point x="126" y="-8"/>
      <point x="96" y="-8" type="curve" smooth="yes"/>
      <point x="30" y="-8"/>
      <point x="-5" y="55"/>
      <point x="6" y="114" type="curve" smooth="yes"/>
      <point x="14" y="153"/>
      <point x="43" y="186"/>
      <point x="67" y="194" type="curve" smooth="yes"/>
      <point x="103" y="206"/>
      <point x="173" y="228"/>
      <point x="239" y="249" type="curve" smooth="yes"/>
      <point x="244" y="251"/>
      <point x="245" y="254"/>
      <point x="246" y="263" type="curve" smooth="yes"/>
      <point x="249" y="311" type="line" smooth="yes"/>
      <point x="250" y="319"/>
      <point x="250" y="328"/>
      <point x="250" y="336" type="curve" smooth="yes"/>
      <point x="250" y="376"/>
      <point x="243" y="411"/>
      <point x="217" y="411" type="curve" smooth="yes"/>
      <point x="184" y="411"/>
      <point x="168" y="372"/>
      <point x="150" y="327" type="curve" smooth="yes"/>
      <point x="141" y="304"/>
      <point x="124" y="283"/>
      <point x="94" y="283" type="curve" smooth="yes"/>
      <point x="71" y="283"/>
      <point x="51" y="303"/>
      <point x="56" y="331" type="curve" smooth="yes"/>
      <point x="59" y="344"/>
      <point x="67" y="358"/>
      <point x="77" y="372" type="curve"/>
      <point x="91" y="385"/>
      <point x="182" y="449"/>
    </contour>
  </outline>
</glyph>
<glyph name="eth" format="1">
  <advance width="463"/>
  <unicode hex="00F0"/>
  <outline>
    <contour>
      <point x="285" y="217" type="curve" smooth="yes"/>
      <point x="296" y="272"/>
      <point x="308" y="355"/>
      <point x="305" y="369" type="curve" smooth="yes"/>
      <point x="297" y="405"/>
      <point x="274" y="409"/>
      <point x="260" y="409" type="curve" smooth="yes"/>
      <point x="200" y="409"/>
      <point x="164" y="304"/>
      <point x="148" y="210" type="curve" smooth="yes"/>
      <point x="131" y="112"/>
      <point x="137" y="34"/>
      <point x="173" y="34" type="curve" smooth="yes"/>
      <point x="223" y="34"/>
      <point x="266" y="119"/>
    </contour>
    <contour>
      <point x="145" y="674" type="curve"/>
      <point x="146" y="681"/>
      <point x="151" y="695"/>
      <point x="158" y="695" type="curve" smooth="yes"/>
      <point x="202.609" y="682.573"/>
      <point x="249.96" y="659.181"/>
      <point x="292.223" y="625.114" type="curve"/>
      <point x="414" y="705" type="line"/>
      <point x="418" y="699"/>
      <point x="429" y="679"/>
      <point x="424" y="674" type="curve" smooth="yes"/>
      <point x="316.781" y="603.518" type="line"/>
      <point x="394.219" y="529.235"/>
      <point x="446.663" y="415.021"/>
      <point x="417" y="263" type="curve" smooth="yes"/>
      <point x="388" y="115"/>
      <point x="249" y="-7"/>
      <point x="159" y="-7" type="curve" smooth="yes"/>
      <point x="37" y="-7"/>
      <point x="1" y="94"/>
      <point x="22" y="204" type="curve" smooth="yes"/>
      <point x="43" y="312"/>
      <point x="165" y="449"/>
      <point x="271" y="449" type="curve" smooth="yes"/>
      <point x="289" y="449"/>
      <point x="305" y="447"/>
      <point x="312" y="446" type="curve"/>
      <point x="312" y="481.766"/>
      <point x="304.679" y="526.851"/>
      <point x="270.647" y="573.19" type="curve"/>
      <point x="173" y="509" type="line"/>
      <point x="169" y="516"/>
      <point x="159" y="536"/>
      <point x="164" y="541" type="curve" smooth="yes"/>
      <point x="250.238" y="597.572" type="line"/>
      <point x="225.678" y="623.565"/>
      <point x="191.725" y="649.509"/>
    </contour>
  </outline>
</glyph>
<glyph name="oslash" format="1">
  <advance width="455"/>
  <unicode hex="00F8"/>
  <outline>
    <contour>
      <point x="334" y="459" type="line"/>
      <point x="340" y="459"/>
      <point x="361" y="455"/>
      <point x="362" y="449" type="curve"/>
      <point x="110" y="-19" type="line"/>
      <point x="104" y="-20"/>
      <point x="86" y="-16"/>
      <point x="82" y="-8" type="curve"/>
    </contour>
    <component base="o"/>
  </outline>
</glyph>
<glyph name="hbar" format="1">
  <advance width="504"/>
  <unicode hex="0127"/>
  <outline>
    <contour>
      <point x="72" y="556" type="curve"/>
      <point x="100" y="556"/>
      <point x="364" y="556"/>
      <point x="377" y="556" type="curve" smooth="yes"/>
      <point x="381" y="556"/>
      <point x="383" y="552"/>
      <point x="382" y="548" type="curve" smooth="yes"/>
      <point x="381" y="543"/>
      <point x="376" y="524"/>
      <point x="371" y="517" type="curve"/>
      <point x="343" y="517"/>
      <point x="78" y="517"/>
      <point x="65" y="517" type="curve" smooth="yes"/>
      <point x="61" y="517"/>
      <point x="61" y="524"/>
      <point x="62" y="528" type="curve" smooth="yes"/>
      <point x="63" y="533"/>
      <point x="65" y="549"/>
    </contour>
    <component base="h"/>
  </outline>
</glyph>
<glyph name="iogonek" format="1">
  <advance width="311"/>
  <unicode hex="012F"/>
  <outline>
    <contour>
      <point x="214" y="687" type="curve" smooth="yes"/>
      <point x="248" y="687"/>
      <point x="272" y="660"/>
      <point x="272" y="625" type="curve" smooth="yes"/>
      <point x="272" y="581"/>
      <point x="236" y="540"/>
      <point x="194" y="540" type="curve" smooth="yes"/>
      <point x="160" y="540"/>
      <point x="136" y="568"/>
      <point x="136" y="603" type="curve" smooth="yes"/>
      <point x="136" y="647"/>
      <point x="172" y="687"/>
    </contour>
    <contour>
      <point x="283" y="112" type="curve"/>
      <point x="273" y="93"/>
      <point x="235" y="56"/>
      <point x="201" y="27" type="curve" smooth="yes"/>
      <point x="145" y="-21"/>
      <point x="82" y="-70"/>
      <point x="82" y="-122" type="curve" smooth="yes"/>
      <point x="82" y="-146"/>
      <point x="93" y="-156"/>
      <point x="118" y="-156" type="curve" smooth="yes"/>
      <point x="160" y="-156"/>
      <point x="185" y="-125"/>
      <point x="192" y="-120" type="curve"/>
      <point x="199" y="-122"/>
      <point x="197" y="-142"/>
      <point x="195" y="-146" type="curve" smooth="yes"/>
      <point x="172" y="-185"/>
      <point x="123" y="-218"/>
      <point x="81" y="-218" type="curve" smooth="yes"/>
      <point x="42" y="-218"/>
      <point x="21" y="-187"/>
      <point x="21" y="-160" type="curve" smooth="yes"/>
      <point x="21" y="-97"/>
      <point x="72" y="-52"/>
      <point x="114" y="-7" type="curve"/>
      <point x="85" y="-3"/>
      <point x="61" y="17"/>
      <point x="61" y="63" type="curve" smooth="yes"/>
      <point x="61" y="77"/>
      <point x="68" y="115"/>
      <point x="70" y="123" type="curve" smooth="yes"/>
      <point x="107" y="309" type="line" smooth="yes"/>
      <point x="108" y="313"/>
      <point x="112" y="337"/>
      <point x="112" y="342" type="curve" smooth="yes"/>
      <point x="112" y="351"/>
      <point x="107" y="363"/>
      <point x="97" y="363" type="curve" smooth="yes"/>
      <point x="75" y="363"/>
      <point x="29" y="308"/>
      <point x="26" y="302" type="curve"/>
      <point x="19" y="302"/>
      <point x="12" y="323"/>
      <point x="12" y="329" type="curve"/>
      <point x="29" y="361"/>
      <point x="113" y="449"/>
      <point x="167" y="449" type="curve" smooth="yes"/>
      <point x="207" y="449"/>
      <point x="234" y="424"/>
      <point x="234" y="378" type="curve" smooth="yes"/>
      <point x="234" y="364"/>
      <point x="227" y="328"/>
      <point x="225" y="318" type="curve" smooth="yes"/>
      <point x="188" y="132" type="line" smooth="yes"/>
      <point x="187" y="128"/>
      <point x="184" y="104"/>
      <point x="184" y="99" type="curve" smooth="yes"/>
      <point x="184" y="90"/>
      <point x="188" y="78"/>
      <point x="198" y="78" type="curve" smooth="yes"/>
      <point x="220" y="78"/>
      <point x="266" y="133"/>
      <point x="269" y="139" type="curve"/>
      <point x="276" y="139"/>
      <point x="283" y="118"/>
    </contour>
  </outline>
</glyph>
<glyph name="dotlessi" format="1">
  <advance width="310"/>
  <unicode hex="0131"/>
  <outline>
    <contour>
      <point x="106" y="309" type="line" smooth="yes"/>
      <point x="107" y="313"/>
      <point x="111" y="337"/>
      <point x="111" y="342" type="curve" smooth="yes"/>
      <point x="111" y="351"/>
      <point x="106" y="363"/>
      <point x="96" y="363" type="curve" smooth="yes"/>
      <point x="74" y="363"/>
      <point x="28" y="308"/>
      <point x="25" y="302" type="curve"/>
      <point x="18" y="302"/>
      <point x="11" y="323"/>
      <point x="11" y="329" type="curve"/>
      <point x="28" y="361"/>
      <point x="112" y="449"/>
      <point x="166" y="449" type="curve" smooth="yes"/>
      <point x="206" y="449"/>
      <point x="233" y="424"/>
      <point x="233" y="378" type="curve" smooth="yes"/>
      <point x="233" y="364"/>
      <point x="226" y="328"/>
      <point x="224" y="318" type="curve" smooth="yes"/>
      <point x="187" y="132" type="line" smooth="yes"/>
      <point x="186" y="128"/>
      <point x="183" y="104"/>
      <point x="183" y="99" type="curve" smooth="yes"/>
      <point x="183" y="90"/>
      <point x="187" y="78"/>
      <point x="197" y="78" type="curve" smooth="yes"/>
      <point x="219" y="78"/>
      <point x="265" y="133"/>
      <point x="268" y="139" type="curve"/>
      <point x="275" y="139"/>
      <point x="282" y="118"/>
      <point x="282" y="112" type="curve"/>
      <point x="265" y="80"/>
      <point x="177" y="-8"/>
      <point x="123" y="-8" type="curve" smooth="yes"/>
      <point x="90" y="-8"/>
      <point x="60" y="12"/>
      <point x="60" y="63" type="curve" smooth="yes"/>
      <point x="60" y="77"/>
      <point x="67" y="115"/>
      <point x="69" y="123" type="curve"/>
    </contour>
  </outline>
</glyph>
<glyph name="Eng" format="1">
  <advance width="714"/>
  <unicode hex="014A"/>
  <outline>
    <contour>
      <point x="479" y="69" type="curve"/>
      <point x="226" y="519" type="line"/>
      <point x="156" y="157" type="line" smooth="yes"/>
      <point x="149" y="121"/>
      <point x="145" y="74"/>
      <point x="147" y="60" type="curve" smooth="yes"/>
      <point x="150" y="41"/>
      <point x="212" y="34"/>
      <point x="219" y="34" type="curve"/>
      <point x="223" y="24"/>
      <point x="216" y="2"/>
      <point x="213" y="-4" type="curve"/>
      <point x="176" y="-2"/>
      <point x="138" y="4"/>
      <point x="97" y="4" type="curve" smooth="yes"/>
      <point x="54" y="4"/>
      <point x="25" y="-2"/>
      <point x="-18" y="-4" type="curve"/>
      <point x="-21" y="5"/>
      <point x="-12" y="33"/>
      <point x="-10" y="33" type="curve" smooth="yes"/>
      <point x="1" y="33"/>
      <point x="58" y="41"/>
      <point x="69" y="59" type="curve" smooth="yes"/>
      <point x="78" y="74"/>
      <point x="93" y="122"/>
      <point x="100" y="160" type="curve" smooth="yes"/>
      <point x="125" y="291"/>
      <point x="144" y="383"/>
      <point x="169" y="514" type="curve" smooth="yes"/>
      <point x="174" y="542"/>
      <point x="177" y="585"/>
      <point x="169" y="604" type="curve" smooth="yes"/>
      <point x="163" y="617"/>
      <point x="123" y="625"/>
      <point x="112" y="625" type="curve" smooth="yes"/>
      <point x="107" y="625"/>
      <point x="111" y="657"/>
      <point x="117" y="662" type="curve"/>
      <point x="145" y="660"/>
      <point x="178" y="655"/>
      <point x="221" y="655" type="curve" smooth="yes"/>
      <point x="254" y="655"/>
      <point x="293" y="658"/>
      <point x="324" y="662" type="curve"/>
      <point x="344" y="584"/>
      <point x="457" y="401"/>
      <point x="542" y="248" type="curve"/>
      <point x="545" y="255"/>
      <point x="549" y="275"/>
      <point x="552" y="289" type="curve" smooth="yes"/>
      <point x="588" y="476" type="line" smooth="yes"/>
      <point x="595" y="514"/>
      <point x="607" y="589"/>
      <point x="603" y="604" type="curve" smooth="yes"/>
      <point x="599" y="622"/>
      <point x="543" y="626"/>
      <point x="532" y="626" type="curve" smooth="yes"/>
      <point x="530" y="626"/>
      <point x="533" y="654"/>
      <point x="539" y="663" type="curve"/>
      <point x="581" y="661"/>
      <point x="608" y="655"/>
      <point x="651" y="655" type="curve" smooth="yes"/>
      <point x="692" y="655"/>
      <point x="732" y="661"/>
      <point x="770" y="663" type="curve"/>
      <point x="771" y="657"/>
      <point x="768" y="635"/>
      <point x="760" y="625" type="curve"/>
      <point x="753" y="625"/>
      <point x="691" y="623"/>
      <point x="679" y="602" type="curve" smooth="yes"/>
      <point x="672" y="588"/>
      <point x="652" y="515"/>
      <point x="645" y="479" type="curve" smooth="yes"/>
      <point x="579" y="139" type="line" smooth="yes"/>
      <point x="534" y="-89"/>
      <point x="329" y="-200"/>
      <point x="270" y="-218" type="curve"/>
      <point x="265" y="-215"/>
      <point x="259" y="-205"/>
      <point x="259" y="-200" type="curve" smooth="yes"/>
      <point x="259" y="-197"/>
      <point x="260" y="-195"/>
      <point x="261" y="-194" type="curve" smooth="yes"/>
      <point x="352" y="-145"/>
      <point x="438" y="-63"/>
    </contour>
  </outline>
</glyph>
<glyph name="Tbar" format="1">
  <advance width="596"/>
  <unicode hex="0166"/>
  <outline>
    <contour>
      <point x="151" y="343" type="curve"/>
      <point x="179" y="343"/>
      <point x="468" y="343"/>
      <point x="481" y="343" type="curve" smooth="yes"/>
      <point x="485" y="343"/>
      <point x="487" y="339"/>
      <point x="486" y="335" type="curve" smooth="yes"/>
      <point x="485" y="330"/>
      <point x="480" y="311"/>
      <point x="475" y="304" type="curve"/>
      <point x="447" y="304"/>
      <point x="157" y="304"/>
      <point x="144" y="304" type="curve" smooth="yes"/>
      <point x="140" y="304"/>
      <point x="140" y="311"/>
      <point x="141" y="315" type="curve" smooth="yes"/>
      <point x="142" y="320"/>
      <point x="144" y="336"/>
    </contour>
    <component base="T"/>
  </outline>
</glyph>
<glyph name="tbar" format="1">
  <advance width="351"/>
  <unicode hex="0167"/>
  <outline>
    <contour>
      <point x="34" y="318" type="curve"/>
      <point x="62" y="318"/>
      <point x="296" y="318"/>
      <point x="309" y="318" type="curve" smooth="yes"/>
      <point x="313" y="318"/>
      <point x="315" y="314"/>
      <point x="314" y="310" type="curve" smooth="yes"/>
      <point x="313" y="305"/>
      <point x="308" y="286"/>
      <point x="303" y="279" type="curve"/>
      <point x="275" y="279"/>
      <point x="40" y="279"/>
      <point x="27" y="279" type="curve" smooth="yes"/>
      <point x="23" y="279"/>
      <point x="23" y="286"/>
      <point x="24" y="290" type="curve" smooth="yes"/>
      <point x="25" y="295"/>
      <point x="27" y="311"/>
    </contour>
    <component base="t" xOffset="24"/>
  </outline>
</glyph>
<glyph name="Uogonek" format="1">
  <advance width="692"/>
  <unicode hex="0172"/>
  <outline>
    <contour>
      <point x="314" y="-122" type="curve" smooth="yes"/>
      <point x="314" y="-146"/>
      <point x="325" y="-156"/>
      <point x="350" y="-156" type="curve" smooth="yes"/>
      <point x="392" y="-156"/>
      <point x="417" y="-125"/>
      <point x="424" y="-120" type="curve"/>
      <point x="431" y="-122"/>
      <point x="429" y="-142"/>
      <point x="427" y="-146" type="curve" smooth="yes"/>
      <point x="404" y="-185"/>
      <point x="355" y="-218"/>
      <point x="313" y="-218" type="curve" smooth="yes"/>
      <point x="274" y="-218"/>
      <point x="253" y="-187"/>
      <point x="253" y="-160" type="curve" smooth="yes"/>
      <point x="253" y="-98"/>
      <point x="308" y="-48"/>
      <point x="349" y="-3" type="curve"/>
      <point x="329" y="-7"/>
      <point x="308" y="-9"/>
      <point x="287" y="-9" type="curve" smooth="yes"/>
      <point x="209" y="-9"/>
      <point x="141" y="19"/>
      <point x="108" y="79" type="curve" smooth="yes"/>
      <point x="81" y="128"/>
      <point x="79" y="197"/>
      <point x="99" y="301" type="curve" smooth="yes"/>
      <point x="140" y="513" type="line" smooth="yes"/>
      <point x="148" y="556"/>
      <point x="155" y="587"/>
      <point x="151" y="607" type="curve" smooth="yes"/>
      <point x="149" y="620"/>
      <point x="107" y="624"/>
      <point x="95" y="625" type="curve"/>
      <point x="92" y="632"/>
      <point x="97" y="656"/>
      <point x="102" y="662" type="curve"/>
      <point x="137" y="658"/>
      <point x="195" y="655"/>
      <point x="234" y="655" type="curve" smooth="yes"/>
      <point x="273" y="655"/>
      <point x="329" y="658"/>
      <point x="366" y="662" type="curve"/>
      <point x="369" y="656"/>
      <point x="365" y="632"/>
      <point x="359" y="625" type="curve"/>
      <point x="347" y="624"/>
      <point x="303" y="620"/>
      <point x="296" y="607" type="curve" smooth="yes"/>
      <point x="285" y="587"/>
      <point x="278" y="556"/>
      <point x="270" y="513" type="curve" smooth="yes"/>
      <point x="235" y="330" type="line" smooth="yes"/>
      <point x="222" y="262"/>
      <point x="214" y="212"/>
      <point x="225" y="159" type="curve" smooth="yes"/>
      <point x="243" y="71"/>
      <point x="312" y="63"/>
      <point x="348" y="63" type="curve" smooth="yes"/>
      <point x="422" y="63"/>
      <point x="512" y="134"/>
      <point x="546" y="309" type="curve" smooth="yes"/>
      <point x="579" y="479" type="line" smooth="yes"/>
      <point x="587" y="522"/>
      <point x="594" y="581"/>
      <point x="590" y="601" type="curve" smooth="yes"/>
      <point x="586" y="620"/>
      <point x="537" y="624"/>
      <point x="525" y="625" type="curve"/>
      <point x="522" y="632"/>
      <point x="527" y="656"/>
      <point x="532" y="662" type="curve"/>
      <point x="575" y="658"/>
      <point x="604" y="655"/>
      <point x="647" y="655" type="curve" smooth="yes"/>
      <point x="688" y="655"/>
      <point x="718" y="660"/>
      <point x="757" y="662" type="curve"/>
      <point x="760" y="656"/>
      <point x="756" y="632"/>
      <point x="750" y="625" type="curve"/>
      <point x="738" y="624"/>
      <point x="686" y="622"/>
      <point x="674" y="601" type="curve" smooth="yes"/>
      <point x="663" y="581"/>
      <point x="645" y="523"/>
      <point x="637" y="480" type="curve" smooth="yes"/>
      <point x="599" y="286" type="line" smooth="yes"/>
      <point x="574" y="161"/>
      <point x="513" y="78"/>
      <point x="438" y="33" type="curve" smooth="yes"/>
      <point x="389" y="3"/>
      <point x="314" y="-70"/>
    </contour>
  </outline>
</glyph>
<glyph name="longs" format="1">
  <advance width="318"/>
  <unicode hex="017F"/>
  <outline>
    <contour>
      <point x="115" y="424" type="line"/>
      <point x="147" y="588"/>
      <point x="276" y="695"/>
      <point x="343" y="695" type="curve" smooth="yes"/>
      <point x="377" y="695"/>
      <point x="406" y="685"/>
      <point x="417" y="677" type="curve"/>
      <point x="422" y="669"/>
      <point x="426" y="657"/>
      <point x="426" y="644" type="curve" smooth="yes"/>
      <point x="426" y="619"/>
      <point x="411" y="595"/>
      <point x="388" y="595" type="curve" smooth="yes"/>
      <point x="371" y="595"/>
      <point x="357" y="604"/>
      <point x="346" y="619" type="curve" smooth="yes"/>
      <point x="337" y="632"/>
      <point x="327" y="649"/>
      <point x="309" y="649" type="curve" smooth="yes"/>
      <point x="274" y="649"/>
      <point x="255" y="571"/>
      <point x="222" y="378" type="curve" smooth="yes"/>
      <point x="222" y="378"/>
      <point x="191" y="184"/>
      <point x="167" y="58" type="curve" smooth="yes"/>
      <point x="135" y="-106"/>
      <point x="22" y="-218"/>
      <point x="-58" y="-218" type="curve" smooth="yes"/>
      <point x="-92" y="-218"/>
      <point x="-121" y="-208"/>
      <point x="-132" y="-200" type="curve"/>
      <point x="-137" y="-192"/>
      <point x="-141" y="-180"/>
      <point x="-141" y="-167" type="curve" smooth="yes"/>
      <point x="-141" y="-142"/>
      <point x="-126" y="-118"/>
      <point x="-103" y="-118" type="curve" smooth="yes"/>
      <point x="-86" y="-118"/>
      <point x="-72" y="-127"/>
      <point x="-61" y="-142" type="curve" smooth="yes"/>
      <point x="-52" y="-155"/>
      <point x="-42" y="-172"/>
      <point x="-24" y="-172" type="curve" smooth="yes"/>
      <point x="15" y="-172"/>
      <point x="20" y="-105"/>
      <point x="51" y="54" type="curve"/>
    </contour>
  </outline>
</glyph>
<glyph name="Uhorn" format="1">
  <advance width="692"/>
  <unicode hex="01AF"/>
  <outline>
    <contour>
      <point x="234" y="655" type="curve" smooth="yes"/>
      <point x="273" y="655"/>
      <point x="329" y="658"/>
      <point x="366" y="662" type="curve"/>
      <point x="369" y="656"/>
      <point x="365" y="632"/>
      <point x="359" y="625" type="curve"/>
      <point x="347" y="624"/>
      <point x="303" y="620"/>
      <point x="296" y="607" type="curve" smooth="yes"/>
      <point x="285" y="587"/>
      <point x="278" y="556"/>
      <point x="270" y="513" type="curve" smooth="yes"/>
      <point x="235" y="330" type="line" smooth="yes"/>
      <point x="222" y="262"/>
      <point x="214" y="212"/>
      <point x="225" y="159" type="curve" smooth="yes"/>
      <point x="243" y="71"/>
      <point x="312" y="63"/>
      <point x="348" y="63" type="curve" smooth="yes"/>
      <point x="422" y="63"/>
      <point x="512" y="134"/>
      <point x="546" y="309" type="curve" smooth="yes"/>
      <point x="579" y="479" type="line" smooth="yes"/>
      <point x="587" y="522"/>
      <point x="594" y="581"/>
      <point x="590" y="601" type="curve" smooth="yes"/>
      <point x="586" y="620"/>
      <point x="537" y="624"/>
      <point x="525" y="625" type="curve"/>
      <point x="522" y="632"/>
      <point x="527" y="656"/>
      <point x="532" y="662" type="curve"/>
      <point x="575" y="658"/>
      <point x="604" y="656"/>
      <point x="647" y="656" type="curve" smooth="yes"/>
      <point x="687" y="656"/>
      <point x="709" y="659"/>
      <point x="734" y="676" type="curve" smooth="yes"/>
      <point x="752" y="689"/>
      <point x="711" y="700"/>
      <point x="716" y="732" type="curve" smooth="yes"/>
      <point x="721" y="764"/>
      <point x="771" y="782"/>
      <point x="798" y="764" type="curve"/>
      <point x="801" y="756"/>
      <point x="807" y="741"/>
      <point x="807" y="733" type="curve" smooth="yes"/>
      <point x="808" y="690"/>
      <point x="782" y="661"/>
      <point x="750" y="643" type="curve" smooth="yes"/>
      <point x="723" y="628"/>
      <point x="688" y="626"/>
      <point x="674" y="601" type="curve" smooth="yes"/>
      <point x="663" y="581"/>
      <point x="645" y="523"/>
      <point x="637" y="480" type="curve" smooth="yes"/>
      <point x="599" y="286" type="line" smooth="yes"/>
      <point x="559" y="82"/>
      <point x="421" y="-9"/>
      <point x="287" y="-9" type="curve" smooth="yes"/>
      <point x="209" y="-9"/>
      <point x="141" y="19"/>
      <point x="108" y="79" type="curve" smooth="yes"/>
      <point x="81" y="128"/>
      <point x="79" y="197"/>
      <point x="99" y="301" type="curve" smooth="yes"/>
      <point x="140" y="513" type="line" smooth="yes"/>
      <point x="148" y="556"/>
      <point x="155" y="587"/>
      <point x="151" y="607" type="curve" smooth="yes"/>
      <point x="149" y="620"/>
      <point x="107" y="624"/>
      <point x="95" y="625" type="curve"/>
      <point x="92" y="632"/>
      <point x="97" y="656"/>
      <point x="102" y="662" type="curve"/>
      <point x="137" y="658"/>
      <point x="195" y="655"/>
    </contour>
  </outline>
</glyph>
<glyph name="uni02BE" format="1">
  <advance width="187"/>
  <unicode hex="02BE"/>
  <outline>
    <contour>
      <point x="65" y="701" type="curve"/>
      <point x="148" y="701"/>
      <point x="177" y="628"/>
      <point x="167" y="574" type="curve" smooth="yes"/>
      <point x="155" y="514"/>
      <point x="96" y="446"/>
      <point x="15" y="446" type="curve"/>
      <point x="14" y="456"/>
      <point x="18" y="475"/>
      <point x="23" y="485" type="curve"/>
      <point x="67" y="485"/>
      <point x="102" y="530"/>
      <point x="110" y="574" type="curve" smooth="yes"/>
      <point x="119" y="619"/>
      <point x="101" y="663"/>
      <point x="57" y="663" type="curve"/>
      <point x="56" y="673"/>
      <point x="59" y="689"/>
    </contour>
  </outline>
</glyph>
<glyph name="gravecomb" format="1">
  <advance width="0"/>
  <unicode hex="0300"/>
  <outline>
    <contour>
      <point x="-183" y="490" type="curve"/>
      <point x="-200" y="494"/>
      <point x="-346" y="562"/>
      <point x="-346" y="597" type="curve" smooth="yes"/>
      <point x="-346" y="624"/>
      <point x="-318" y="638"/>
      <point x="-301" y="638" type="curve" smooth="yes"/>
      <point x="-288" y="638"/>
      <point x="-274" y="635"/>
      <point x="-270" y="631" type="curve" smooth="yes"/>
      <point x="-240" y="603"/>
      <point x="-177" y="512"/>
      <point x="-174" y="502" type="curve"/>
      <point x="-175" y="496"/>
      <point x="-180" y="492"/>
    </contour>
  </outline>
</glyph>
<glyph name="uni0305" format="1">
  <advance width="526"/>
  <unicode hex="0305"/>
  <outline>
    <contour>
      <point x="131" y="744" type="curve" smooth="yes"/>
      <point x="131" y="746"/>
      <point x="146" y="806"/>
      <point x="156" y="806" type="curve" smooth="yes"/>
      <point x="697" y="806" type="line" smooth="yes"/>
      <point x="699" y="806"/>
      <point x="703" y="805"/>
      <point x="701" y="797" type="curve" smooth="yes"/>
      <point x="698" y="779"/>
      <point x="685" y="745"/>
      <point x="683" y="741" type="curve" smooth="yes"/>
      <point x="680" y="735"/>
      <point x="674" y="734"/>
      <point x="674" y="734" type="curve"/>
      <point x="135" y="734" type="line"/>
      <point x="135" y="734"/>
      <point x="129" y="734"/>
    </contour>
  </outline>
</glyph>
<glyph name="uni0306" format="1">
  <advance width="0"/>
  <unicode hex="0306"/>
  <outline>
    <contour>
      <point x="-244" y="546" type="curve" smooth="yes"/>
      <point x="-207" y="546"/>
      <point x="-169" y="565"/>
      <point x="-151" y="608" type="curve" smooth="yes"/>
      <point x="-151" y="610"/>
      <point x="-149" y="611"/>
      <point x="-147" y="611" type="curve" smooth="yes"/>
      <point x="-141" y="611"/>
      <point x="-132" y="603"/>
      <point x="-133" y="598" type="curve" smooth="yes"/>
      <point x="-133" y="597"/>
      <point x="-135" y="592"/>
      <point x="-135" y="590" type="curve" smooth="yes"/>
      <point x="-154" y="537"/>
      <point x="-205" y="490"/>
      <point x="-255" y="490" type="curve" smooth="yes"/>
      <point x="-305" y="490"/>
      <point x="-339" y="534"/>
      <point x="-336" y="591" type="curve" smooth="yes"/>
      <point x="-336" y="593"/>
      <point x="-335" y="597"/>
      <point x="-335" y="598" type="curve" smooth="yes"/>
      <point x="-334" y="603"/>
      <point x="-322" y="611"/>
      <point x="-316" y="611" type="curve" smooth="yes"/>
      <point x="-314" y="611"/>
      <point x="-313" y="610"/>
      <point x="-313" y="608" type="curve" smooth="yes"/>
      <point x="-312" y="565"/>
      <point x="-275" y="546"/>
    </contour>
  </outline>
</glyph>
<glyph name="uni0307" format="1">
  <advance width="0"/>
  <unicode hex="0307"/>
  <outline>
    <contour>
      <point x="-313" y="561" type="curve" smooth="yes"/>
      <point x="-306" y="598"/>
      <point x="-272" y="628"/>
      <point x="-237" y="628" type="curve" smooth="yes"/>
      <point x="-203" y="628"/>
      <point x="-180" y="598"/>
      <point x="-187" y="561" type="curve" smooth="yes"/>
      <point x="-194" y="524"/>
      <point x="-227" y="490"/>
      <point x="-262" y="490" type="curve" smooth="yes"/>
      <point x="-298" y="490"/>
      <point x="-320" y="524"/>
    </contour>
  </outline>
</glyph>
<glyph name="uni0308" format="1">
  <advance width="0"/>
  <unicode hex="0308"/>
  <outline>
    <contour>
      <point x="-132" y="629" type="curve" smooth="yes"/>
      <point x="-96" y="629"/>
      <point x="-74" y="598"/>
      <point x="-81" y="560" type="curve" smooth="yes"/>
      <point x="-88" y="522"/>
      <point x="-124" y="490"/>
      <point x="-160" y="490" type="curve" smooth="yes"/>
      <point x="-196" y="490"/>
      <point x="-218" y="522"/>
      <point x="-211" y="560" type="curve" smooth="yes"/>
      <point x="-204" y="598"/>
      <point x="-168" y="629"/>
    </contour>
    <contour>
      <point x="-308" y="629" type="curve" smooth="yes"/>
      <point x="-272" y="629"/>
      <point x="-250" y="598"/>
      <point x="-257" y="560" type="curve" smooth="yes"/>
      <point x="-264" y="522"/>
      <point x="-299" y="490"/>
      <point x="-335" y="490" type="curve" smooth="yes"/>
      <point x="-371" y="490"/>
      <point x="-393" y="522"/>
      <point x="-386" y="560" type="curve" smooth="yes"/>
      <point x="-379" y="598"/>
      <point x="-344" y="629"/>
    </contour>
  </outline>
</glyph>
<glyph name="hookabovecomb" format="1">
  <advance width="0"/>
  <unicode hex="0309"/>
  <outline>
    <contour>
      <point x="-218" y="674" type="curve" smooth="yes"/>
      <point x="-180" y="674"/>
      <point x="-159" y="649"/>
      <point x="-165" y="616" type="curve" smooth="yes"/>
      <point x="-172" y="579"/>
      <point x="-200" y="553"/>
      <point x="-227" y="542" type="curve" smooth="yes"/>
      <point x="-249" y="533"/>
      <point x="-262" y="528"/>
      <point x="-265" y="515" type="curve" smooth="yes"/>
      <point x="-265" y="513"/>
      <point x="-266" y="510"/>
      <point x="-266" y="507" type="curve"/>
      <point x="-267" y="504"/>
      <point x="-291" y="498"/>
      <point x="-304" y="498" type="curve"/>
      <point x="-308" y="501"/>
      <point x="-311" y="512"/>
      <point x="-310" y="515" type="curve" smooth="yes"/>
      <point x="-305" y="543"/>
      <point x="-277" y="556"/>
      <point x="-259" y="564" type="curve" smooth="yes"/>
      <point x="-236" y="574"/>
      <point x="-221" y="587"/>
      <point x="-217" y="606" type="curve" smooth="yes"/>
      <point x="-215" y="618"/>
      <point x="-215" y="636"/>
      <point x="-234" y="636" type="curve" smooth="yes"/>
      <point x="-255" y="636"/>
      <point x="-268" y="619"/>
      <point x="-272" y="600" type="curve" smooth="yes"/>
      <point x="-275" y="583"/>
      <point x="-300" y="578"/>
      <point x="-313" y="578" type="curve" smooth="yes"/>
      <point x="-321" y="578"/>
      <point x="-332" y="583"/>
      <point x="-330" y="595" type="curve" smooth="yes"/>
      <point x="-320" y="646"/>
      <point x="-264" y="674"/>
    </contour>
  </outline>
</glyph>
<glyph name="uni0312" format="1">
  <advance width="131"/>
  <unicode hex="0312"/>
  <outline>
    <contour>
      <point x="223" y="635" type="curve"/>
      <point x="227" y="635"/>
      <point x="240" y="628"/>
      <point x="240" y="625" type="curve"/>
      <point x="233" y="623"/>
      <point x="190" y="591"/>
      <point x="190" y="566" type="curve" smooth="yes"/>
      <point x="190" y="544"/>
      <point x="216" y="540"/>
      <point x="216" y="508" type="curve" smooth="yes"/>
      <point x="216" y="481"/>
      <point x="184" y="467"/>
      <point x="154" y="466" type="curve" smooth="yes"/>
      <point x="141" y="466"/>
      <point x="128" y="468"/>
      <point x="119" y="473" type="curve"/>
      <point x="115" y="480"/>
      <point x="114" y="487"/>
      <point x="114" y="495" type="curve" smooth="yes"/>
      <point x="114" y="543"/>
      <point x="180" y="622"/>
    </contour>
  </outline>
</glyph>
<glyph name="uni0327" format="1">
  <advance width="0"/>
  <unicode hex="0327"/>
  <outline>
    <contour>
      <point x="-246" y="-4" type="curve"/>
      <point x="-217" y="-4" type="line"/>
      <point x="-240" y="-29" type="line"/>
      <point x="-223" y="-29" type="line" smooth="yes"/>
      <point x="-198" y="-29"/>
      <point x="-169" y="-48"/>
      <point x="-169" y="-76" type="curve" smooth="yes"/>
      <point x="-169" y="-126"/>
      <point x="-227" y="-163"/>
      <point x="-289" y="-163" type="curve" smooth="yes"/>
      <point x="-302" y="-163"/>
      <point x="-326" y="-158"/>
      <point x="-332" y="-153" type="curve"/>
      <point x="-334" y="-151"/>
      <point x="-336" y="-147"/>
      <point x="-336" y="-144" type="curve" smooth="yes"/>
      <point x="-336" y="-128"/>
      <point x="-327" y="-116"/>
      <point x="-317" y="-116" type="curve" smooth="yes"/>
      <point x="-298" y="-116"/>
      <point x="-291" y="-140"/>
      <point x="-263" y="-140" type="curve" smooth="yes"/>
      <point x="-238" y="-140"/>
      <point x="-220" y="-123"/>
      <point x="-220" y="-100" type="curve" smooth="yes"/>
      <point x="-220" y="-77"/>
      <point x="-236" y="-65"/>
      <point x="-249" y="-65" type="curve" smooth="yes"/>
      <point x="-260" y="-65"/>
      <point x="-267" y="-68"/>
      <point x="-278" y="-73" type="curve" smooth="yes"/>
      <point x="-280" y="-73"/>
      <point x="-293" y="-66"/>
      <point x="-293" y="-61" type="curve" smooth="yes"/>
      <point x="-293" y="-56"/>
      <point x="-273" y="-40"/>
    </contour>
  </outline>
</glyph>
<glyph name="emdash" format="1">
  <advance width="824"/>
  <unicode hex="2014"/>
  <outline>
    <contour>
      <point x="823" y="268" type="line" smooth="yes"/>
      <point x="830" y="268"/>
      <point x="830" y="258"/>
      <point x="830" y="252" type="curve" smooth="yes"/>
      <point x="830" y="230"/>
      <point x="813" y="199"/>
      <point x="808" y="194" type="curve"/>
      <point x="69" y="194" type="line" smooth="yes"/>
      <point x="62" y="194"/>
      <point x="62" y="204"/>
      <point x="62" y="210" type="curve" smooth="yes"/>
      <point x="62" y="232"/>
      <point x="79" y="263"/>
      <point x="84" y="268" type="curve"/>
    </contour>
  </outline>
</glyph>
